Titillium Sans Pro-Thin.ufo
<glyph name="exclam" format="2">
  <advance width="202"/>
  <unicode hex="0021"/>
  <outline>
    <contour>
      <point x="81" y="80" type="line"/>
      <point x="81" y="0" type="line"/>
      <point x="121" y="0" type="line"/>
      <point x="121" y="80" type="line"/>
    </contour>
    <contour>
      <point x="84" y="700" type="line"/>
      <point x="84" y="214" type="line"/>
      <point x="118" y="214" type="line"/>
      <point x="118" y="700" type="line"/>
    </contour>
  </outline>
</glyph>
<glyph name="numbersign" format="2">
  <advance width="616"/>
  <unicode hex="0023"/>
  <outline>
    <contour>
      <point x="438" y="190" type="line"/>
      <point x="558" y="190" type="line"/>
      <point x="558" y="222" type="line"/>
      <point x="438" y="222" type="line"/>
      <point x="438" y="438" type="line"/>
      <point x="558" y="438" type="line"/>
      <point x="558" y="470" type="line"/>
      <point x="438" y="470" type="line"/>
      <point x="438" y="660" type="line"/>
      <point x="402" y="660" type="line"/>
      <point x="402" y="470" type="line"/>
      <point x="214" y="470" type="line"/>
      <point x="214" y="660" type="line"/>
      <point x="178" y="660" type="line"/>
      <point x="178" y="470" type="line"/>
      <point x="58" y="470" type="line"/>
      <point x="58" y="438" type="line"/>
      <point x="178" y="438" type="line"/>
      <point x="178" y="222" type="line"/>
      <point x="58" y="222" type="line"/>
      <point x="58" y="190" type="line"/>
      <point x="178" y="190" type="line"/>
      <point x="178" y="0" type="line"/>
      <point x="214" y="0" type="line"/>
      <point x="214" y="190" type="line"/>
      <point x="402" y="190" type="line"/>
      <point x="402" y="0" type="line"/>
      <point x="438" y="0" type="line"/>
    </contour>
    <contour>
      <point x="402" y="438" type="line"/>
      <point x="402" y="222" type="line"/>
      <point x="214" y="222" type="line"/>
      <point x="214" y="438" type="line"/>
    </contour>
  </outline>
</glyph>
<glyph name="dollar" format="2">
  <advance width="496"/>
  <unicode hex="0024"/>
  <outline>
    <contour>
      <point x="424" y="610" type="curve"/>
      <point x="428" y="641" type="line"/>
      <point x="428" y="641"/>
      <point x="369" y="649"/>
      <point x="311" y="653" type="curve"/>
      <point x="330" y="790" type="line"/>
      <point x="295" y="790" type="line"/>
      <point x="278" y="655" type="line"/>
      <point x="267" y="656"/>
      <point x="257" y="656"/>
      <point x="248" y="656" type="curve" smooth="yes"/>
      <point x="128" y="656"/>
      <point x="53" y="614"/>
      <point x="53" y="496" type="curve" smooth="yes"/>
      <point x="53" y="368"/>
      <point x="119" y="344"/>
      <point x="235" y="326" type="curve"/>
      <point x="197" y="39" type="line"/>
      <point x="134" y="43"/>
      <point x="60" y="52"/>
      <point x="60" y="52" type="curve"/>
      <point x="56" y="21" type="line"/>
      <point x="56" y="21"/>
      <point x="128" y="12"/>
      <point x="193" y="8" type="curve"/>
      <point x="177" y="-116" type="line"/>
      <point x="212" y="-116" type="line"/>
      <point x="227" y="7" type="line"/>
      <point x="235" y="6"/>
      <point x="242" y="6"/>
      <point x="250" y="6" type="curve" smooth="yes"/>
      <point x="375" y="6"/>
      <point x="441" y="55"/>
      <point x="441" y="196" type="curve" smooth="yes"/>
      <point x="441" y="305"/>
      <point x="383" y="335"/>
      <point x="272" y="354" type="curve"/>
      <point x="307" y="621" type="line"/>
      <point x="361" y="617"/>
      <point x="424" y="610"/>
    </contour>
    <contour>
      <point x="86" y="498" type="curve" smooth="yes"/>
      <point x="86" y="589"/>
      <point x="145" y="625"/>
      <point x="248" y="625" type="curve" smooth="yes"/>
      <point x="256" y="625"/>
      <point x="263" y="625"/>
      <point x="274" y="624" type="curve"/>
      <point x="238" y="359" type="line"/>
      <point x="136" y="375"/>
      <point x="86" y="394"/>
    </contour>
    <contour>
      <point x="408" y="194" type="curve" smooth="yes"/>
      <point x="408" y="81"/>
      <point x="352" y="37"/>
      <point x="249" y="37" type="curve" smooth="yes"/>
      <point x="243" y="37"/>
      <point x="236" y="37"/>
      <point x="231" y="37" type="curve"/>
      <point x="268" y="321" type="line"/>
      <point x="365" y="304"/>
      <point x="408" y="280"/>
    </contour>
  </outline>
</glyph>
<glyph name="ampersand" format="2">
  <advance width="675"/>
  <unicode hex="0026"/>
  <outline>
    <contour>
      <point x="319" y="710" type="curve" smooth="yes"/>
      <point x="211" y="710"/>
      <point x="158" y="654"/>
      <point x="158" y="553" type="curve" smooth="yes"/>
      <point x="158" y="514"/>
      <point x="173" y="463"/>
      <point x="217" y="415" type="curve"/>
      <point x="104" y="383"/>
      <point x="48" y="338"/>
      <point x="48" y="211" type="curve" smooth="yes"/>
      <point x="48" y="75"/>
      <point x="109" y="-10"/>
      <point x="279" y="-10" type="curve" smooth="yes"/>
      <point x="393" y="-10"/>
      <point x="461" y="29"/>
      <point x="509" y="125" type="curve"/>
      <point x="643" y="-8" type="line"/>
      <point x="667" y="19" type="line"/>
      <point x="524" y="158" type="line"/>
      <point x="543" y="205"/>
      <point x="562" y="303"/>
      <point x="568" y="374" type="curve"/>
      <point x="532" y="374" type="line"/>
      <point x="528" y="315"/>
      <point x="511" y="226"/>
      <point x="497" y="185" type="curve"/>
      <point x="306" y="374" type="line"/>
      <point x="423" y="412"/>
      <point x="474" y="464"/>
      <point x="474" y="561" type="curve" smooth="yes"/>
      <point x="474" y="652"/>
      <point x="427" y="710"/>
    </contour>
    <contour>
      <point x="281" y="24" type="curve" smooth="yes"/>
      <point x="143" y="24"/>
      <point x="84" y="91"/>
      <point x="84" y="212" type="curve" smooth="yes"/>
      <point x="84" y="319"/>
      <point x="125" y="359"/>
      <point x="241" y="390" type="curve"/>
      <point x="482" y="150" type="line"/>
      <point x="442" y="61"/>
      <point x="382" y="24"/>
    </contour>
    <contour>
      <point x="194" y="560" type="curve" smooth="yes"/>
      <point x="194" y="639"/>
      <point x="238" y="677"/>
      <point x="319" y="677" type="curve" smooth="yes"/>
      <point x="404" y="677"/>
      <point x="439" y="636"/>
      <point x="439" y="562" type="curve" smooth="yes"/>
      <point x="439" y="476"/>
      <point x="395" y="437"/>
      <point x="280" y="398" type="curve"/>
      <point x="244" y="435" type="line" smooth="yes"/>
      <point x="205" y="476"/>
      <point x="194" y="521"/>
    </contour>
  </outline>
</glyph>
<glyph name="quotesingle" format="2">
	<advance width="182"/>
	<unicode hex="0027"/>
	<outline>
		<contour>
			<point x="70" y="730" type="line"/>
			<point x="75" y="520" type="line"/>
			<point x="107" y="520" type="line"/>
			<point x="112" y="730" type="line"/>
		</contour>
	</outline>
</glyph>
<glyph name="parenleft" format="2">
	<advance width="231"/>
	<unicode hex="0028"/>
	<outline>
		<contour>
			<point x="189" y="750" type="curve"/>
			<point x="154" y="750" type="line"/>
			<point x="154" y="750"/>
			<point x="57" y="501"/>
			<point x="57" y="301" type="curve" smooth="yes"/>
			<point x="57" y="101"/>
			<point x="154" y="-125"/>
			<point x="154" y="-125" type="curve"/>
			<point x="189" y="-125" type="line"/>
			<point x="189" y="-125"/>
			<point x="94" y="115"/>
			<point x="94" y="301" type="curve" smooth="yes"/>
			<point x="94" y="490"/>
			<point x="189" y="750"/>
		</contour>
	</outline>
</glyph>
<glyph name="asterisk" format="2">
	<advance width="432"/>
	<unicode hex="002A"/>
	<outline>
		<contour>
			<point x="240" y="536" type="line"/>
			<point x="377" y="536" type="line"/>
			<point x="377" y="570" type="line"/>
			<point x="242" y="570" type="line"/>
			<point x="284" y="700" type="line"/>
			<point x="252" y="710" type="line"/>
			<point x="210" y="581" type="line"/>
			<point x="100" y="662" type="line"/>
			<point x="80" y="635" type="line"/>
			<point x="189" y="555" type="line"/>
			<point x="79" y="475" type="line"/>
			<point x="98" y="448" type="line"/>
			<point x="208" y="527" type="line"/>
			<point x="250" y="397" type="line"/>
			<point x="282" y="407" type="line"/>
		</contour>
	</outline>
</glyph>
<glyph name="plus" format="2">
  <advance width="560"/>
  <unicode hex="002B"/>
  <outline>
    <contour>
      <point x="60" y="309" type="line"/>
      <point x="60" y="273" type="line"/>
      <point x="262" y="273" type="line"/>
      <point x="262" y="72" type="line"/>
      <point x="298" y="72" type="line"/>
      <point x="298" y="273" type="line"/>
      <point x="500" y="273" type="line"/>
      <point x="500" y="309" type="line"/>
      <point x="298" y="309" type="line"/>
      <point x="298" y="510" type="line"/>
      <point x="262" y="510" type="line"/>
      <point x="262" y="309" type="line"/>
    </contour>
  </outline>
</glyph>
<glyph name="comma" format="2">
	<advance width="186"/>
	<unicode hex="002C"/>
	<outline>
		<contour>
			<point x="84" y="80" type="line"/>
			<point x="42" y="-123" type="line"/>
			<point x="73" y="-123" type="line"/>
			<point x="124" y="80" type="line"/>
		</contour>
	</outline>
</glyph>
<glyph name="hyphen" format="2">
  <advance width="412"/>
  <unicode hex="002D"/>
  <outline>
    <contour>
      <point x="56" y="308" type="line"/>
      <point x="56" y="274" type="line"/>
      <point x="356" y="274" type="line"/>
      <point x="356" y="308" type="line"/>
    </contour>
  </outline>
</glyph>
<glyph name="period" format="2">
  <advance width="188"/>
  <unicode hex="002E"/>
  <outline>
    <contour>
      <point x="74" y="80" type="line"/>
      <point x="74" y="0" type="line"/>
      <point x="114" y="0" type="line"/>
      <point x="114" y="80" type="line"/>
    </contour>
  </outline>
</glyph>
<glyph name="slash" format="2">
  <advance width="369"/>
  <unicode hex="002F"/>
  <outline>
    <contour>
      <point x="315" y="710" type="line"/>
      <point x="20" y="3" type="line"/>
      <point x="53" y="-10" type="line"/>
      <point x="348" y="696" type="line"/>
    </contour>
  </outline>
</glyph>
<glyph name="one" format="2">
	<advance width="360"/>
	<unicode hex="0031"/>
	<note>
		one
	</note>
	<outline>
		<contour>
			<point x="228" y="660" type="line"/>
			<point x="24" y="524" type="line"/>
			<point x="41" y="495" type="line"/>
			<point x="228" y="621" type="line"/>
			<point x="228" y="0" type="line"/>
			<point x="264" y="0" type="line"/>
			<point x="264" y="660" type="line"/>
		</contour>
	</outline>
</glyph>
<glyph name="two" format="2">
	<advance width="519"/>
	<unicode hex="0032"/>
	<note>
		two
	</note>
	<outline>
		<contour>
			<point x="50" y="0" type="line"/>
			<point x="468" y="0" type="line"/>
			<point x="468" y="32" type="line"/>
			<point x="98" y="32" type="line"/>
			<point x="314" y="261" type="line" smooth="yes"/>
			<point x="394" y="346"/>
			<point x="447" y="403"/>
			<point x="447" y="500" type="curve" smooth="yes"/>
			<point x="447" y="625"/>
			<point x="373" y="670"/>
			<point x="242" y="670" type="curve" smooth="yes"/>
			<point x="149" y="670"/>
			<point x="56" y="643"/>
			<point x="56" y="643" type="curve"/>
			<point x="61" y="609" type="line"/>
			<point x="61" y="609"/>
			<point x="165" y="636"/>
			<point x="241" y="636" type="curve" smooth="yes"/>
			<point x="349" y="636"/>
			<point x="409" y="601"/>
			<point x="409" y="500" type="curve" smooth="yes"/>
			<point x="409" y="413"/>
			<point x="356" y="358"/>
			<point x="277" y="273" type="curve" smooth="yes"/>
			<point x="50" y="31" type="line"/>
		</contour>
	</outline>
</glyph>
<glyph name="three" format="2">
  <advance width="539"/>
  <unicode hex="0033"/>
  <note>
three
</note>
  <outline>
    <contour>
      <point x="63" y="648" type="curve"/>
      <point x="69" y="614" type="line"/>
      <point x="69" y="614"/>
      <point x="160" y="636"/>
      <point x="259" y="636" type="curve" smooth="yes"/>
      <point x="377" y="636"/>
      <point x="418" y="588"/>
      <point x="418" y="510" type="curve" smooth="yes"/>
      <point x="418" y="397"/>
      <point x="328" y="365"/>
      <point x="274" y="365" type="curve" smooth="yes"/>
      <point x="141" y="365" type="line"/>
      <point x="141" y="333" type="line"/>
      <point x="275" y="333" type="line"/>
      <point x="362" y="328"/>
      <point x="437" y="298"/>
      <point x="437" y="179" type="curve" smooth="yes"/>
      <point x="437" y="78"/>
      <point x="385" y="25"/>
      <point x="267" y="24" type="curve" smooth="yes"/>
      <point x="161" y="24"/>
      <point x="56" y="48"/>
      <point x="56" y="48" type="curve"/>
      <point x="50" y="14" type="line"/>
      <point x="50" y="14"/>
      <point x="159" y="-10"/>
      <point x="267" y="-10" type="curve" smooth="yes"/>
      <point x="408" y="-10"/>
      <point x="475" y="53"/>
      <point x="475" y="182" type="curve" smooth="yes"/>
      <point x="475" y="301"/>
      <point x="418" y="333"/>
      <point x="343" y="353" type="curve"/>
      <point x="344" y="353"/>
      <point x="456" y="369"/>
      <point x="456" y="509" type="curve" smooth="yes"/>
      <point x="456" y="606"/>
      <point x="402" y="670"/>
      <point x="258" y="670" type="curve" smooth="yes"/>
      <point x="158" y="670"/>
      <point x="63" y="648"/>
    </contour>
  </outline>
</glyph>
<glyph name="four" format="2">
	<advance width="546"/>
	<unicode hex="0034"/>
	<note>
		four
	</note>
	<outline>
		<contour>
			<point x="380" y="142" type="line"/>
			<point x="380" y="0" type="line"/>
			<point x="416" y="0" type="line"/>
			<point x="416" y="142" type="line"/>
			<point x="514" y="142" type="line"/>
			<point x="514" y="174" type="line"/>
			<point x="416" y="174" type="line"/>
			<point x="416" y="395" type="line"/>
			<point x="380" y="395" type="line"/>
			<point x="380" y="174" type="line"/>
			<point x="74" y="174" type="line"/>
			<point x="275" y="660" type="line"/>
			<point x="238" y="660" type="line"/>
			<point x="35" y="172" type="line"/>
			<point x="35" y="142" type="line"/>
		</contour>
	</outline>
</glyph>
<glyph name="five" format="2">
	<advance width="551"/>
	<unicode hex="0035"/>
	<note>
		five
	</note>
	<outline>
		<contour>
			<point x="463" y="660" type="line"/>
			<point x="91" y="660" type="line"/>
			<point x="72" y="327" type="line"/>
			<point x="106" y="323" type="line"/>
			<point x="106" y="323"/>
			<point x="182" y="378"/>
			<point x="285" y="378" type="curve" smooth="yes"/>
			<point x="369" y="378"/>
			<point x="456" y="341"/>
			<point x="456" y="214" type="curve" smooth="yes"/>
			<point x="456" y="91"/>
			<point x="383" y="24"/>
			<point x="275" y="24" type="curve" smooth="yes"/>
			<point x="182" y="24"/>
			<point x="72" y="51"/>
			<point x="72" y="51" type="curve"/>
			<point x="67" y="17" type="line"/>
			<point x="67" y="17"/>
			<point x="176" y="-10"/>
			<point x="276" y="-10" type="curve" smooth="yes"/>
			<point x="410" y="-10"/>
			<point x="494" y="64"/>
			<point x="494" y="214" type="curve" smooth="yes"/>
			<point x="494" y="361"/>
			<point x="398" y="412"/>
			<point x="286" y="412" type="curve" smooth="yes"/>
			<point x="180" y="412"/>
			<point x="107" y="361"/>
			<point x="107" y="361" type="curve"/>
			<point x="125" y="626" type="line"/>
			<point x="463" y="626" type="line"/>
		</contour>
	</outline>
</glyph>
<glyph name="six" format="2">
	<advance width="569"/>
	<unicode hex="0036"/>
	<note>
		six
	</note>
	<outline>
		<contour>
			<point x="478" y="626" type="curve"/>
			<point x="482" y="659" type="line"/>
			<point x="482" y="659"/>
			<point x="376" y="670"/>
			<point x="312" y="670" type="curve" smooth="yes"/>
			<point x="143" y="670"/>
			<point x="66" y="568"/>
			<point x="66" y="337" type="curve" smooth="yes"/>
			<point x="66" y="121"/>
			<point x="129" y="-10"/>
			<point x="299" y="-10" type="curve" smooth="yes"/>
			<point x="432" y="-10"/>
			<point x="514" y="76"/>
			<point x="514" y="209" type="curve" smooth="yes"/>
			<point x="514" y="343"/>
			<point x="435" y="406"/>
			<point x="305" y="406" type="curve" smooth="yes"/>
			<point x="194" y="406"/>
			<point x="104" y="357"/>
			<point x="104" y="358" type="curve" smooth="yes"/>
			<point x="105" y="541"/>
			<point x="162" y="636"/>
			<point x="312" y="636" type="curve" smooth="yes"/>
			<point x="376" y="636"/>
			<point x="478" y="626"/>
		</contour>
		<contour>
			<point x="299" y="372" type="curve" smooth="yes"/>
			<point x="407" y="372"/>
			<point x="476" y="323"/>
			<point x="476" y="209" type="curve" smooth="yes"/>
			<point x="476" y="92"/>
			<point x="406" y="24"/>
			<point x="299" y="24" type="curve" smooth="yes"/>
			<point x="151" y="24"/>
			<point x="106" y="151"/>
			<point x="103" y="323" type="curve"/>
			<point x="103" y="323"/>
			<point x="193" y="372"/>
		</contour>
	</outline>
</glyph>
<glyph name="seven" format="2">
  <advance width="471"/>
  <unicode hex="0037"/>
  <note>
seven
</note>
  <outline>
    <contour>
      <point x="31" y="660" type="line"/>
      <point x="31" y="626" type="line"/>
      <point x="395" y="626" type="line"/>
      <point x="395" y="601" type="line"/>
      <point x="131" y="6" type="line"/>
      <point x="165" y="-9" type="line"/>
      <point x="431" y="597" type="line"/>
      <point x="431" y="660" type="line"/>
    </contour>
  </outline>
</glyph>
<glyph name="eight" format="2">
  <advance width="612"/>
  <unicode hex="0038"/>
  <note>
eight
</note>
  <outline>
    <contour>
      <point x="105" y="178" type="curve" smooth="yes"/>
      <point x="105" y="270"/>
      <point x="159" y="309"/>
      <point x="246" y="330" type="curve"/>
      <point x="366" y="330" type="line"/>
      <point x="453" y="309"/>
      <point x="507" y="270"/>
      <point x="507" y="178" type="curve" smooth="yes"/>
      <point x="507" y="61"/>
      <point x="417" y="24"/>
      <point x="306" y="24" type="curve" smooth="yes"/>
      <point x="195" y="24"/>
      <point x="105" y="61"/>
    </contour>
    <contour>
      <point x="66" y="178" type="curve" smooth="yes"/>
      <point x="66" y="37"/>
      <point x="176" y="-10"/>
      <point x="306" y="-10" type="curve" smooth="yes"/>
      <point x="436" y="-10"/>
      <point x="546" y="37"/>
      <point x="546" y="178" type="curve" smooth="yes"/>
      <point x="546" y="280"/>
      <point x="489" y="316"/>
      <point x="411" y="348" type="curve"/>
      <point x="488" y="375"/>
      <point x="535" y="416"/>
      <point x="535" y="503" type="curve" smooth="yes"/>
      <point x="535" y="620"/>
      <point x="446" y="670"/>
      <point x="306" y="670" type="curve" smooth="yes"/>
      <point x="166" y="670"/>
      <point x="77" y="620"/>
      <point x="77" y="503" type="curve" smooth="yes"/>
      <point x="77" y="416"/>
      <point x="124" y="375"/>
      <point x="201" y="348" type="curve"/>
      <point x="123" y="316"/>
      <point x="66" y="280"/>
    </contour>
    <contour>
      <point x="306" y="636" type="curve" smooth="yes"/>
      <point x="422" y="636"/>
      <point x="497" y="605"/>
      <point x="497" y="503" type="curve" smooth="yes"/>
      <point x="497" y="425"/>
      <point x="453" y="387"/>
      <point x="366" y="363" type="curve"/>
      <point x="246" y="363" type="line"/>
      <point x="159" y="387"/>
      <point x="115" y="425"/>
      <point x="115" y="503" type="curve" smooth="yes"/>
      <point x="115" y="605"/>
      <point x="190" y="636"/>
    </contour>
  </outline>
</glyph>
<glyph name="nine" format="2">
  <advance width="570"/>
  <unicode hex="0039"/>
  <note>
nine
</note>
  <outline>
    <contour>
      <point x="86" y="35" type="curve"/>
      <point x="82" y="2" type="line"/>
      <point x="82" y="2"/>
      <point x="182" y="-10"/>
      <point x="253" y="-10" type="curve" smooth="yes"/>
      <point x="428" y="-10"/>
      <point x="504" y="72"/>
      <point x="504" y="324" type="curve" smooth="yes"/>
      <point x="504" y="539"/>
      <point x="440" y="670"/>
      <point x="272" y="670" type="curve" smooth="yes"/>
      <point x="139" y="670"/>
      <point x="55" y="587"/>
      <point x="55" y="452" type="curve" smooth="yes"/>
      <point x="55" y="318"/>
      <point x="138" y="256"/>
      <point x="257" y="256" type="curve" smooth="yes"/>
      <point x="362" y="256"/>
      <point x="466" y="300"/>
      <point x="466" y="300" type="curve"/>
      <point x="464" y="104"/>
      <point x="411" y="24"/>
      <point x="256" y="24" type="curve" smooth="yes"/>
      <point x="185" y="24"/>
      <point x="86" y="35"/>
    </contour>
    <contour>
      <point x="259" y="290" type="curve" smooth="yes"/>
      <point x="162" y="290"/>
      <point x="93" y="340"/>
      <point x="93" y="452" type="curve" smooth="yes"/>
      <point x="93" y="566"/>
      <point x="160" y="636"/>
      <point x="272" y="636" type="curve" smooth="yes"/>
      <point x="416" y="636"/>
      <point x="463" y="518"/>
      <point x="467" y="335" type="curve"/>
      <point x="467" y="335"/>
      <point x="355" y="290"/>
    </contour>
  </outline>
</glyph>
<glyph name="equal" format="2">
	<advance width="560"/>
	<unicode hex="003D"/>
	<outline>
		<contour>
			<point x="79" y="364" type="line"/>
			<point x="481" y="364" type="line"/>
			<point x="481" y="398" type="line"/>
			<point x="79" y="398" type="line"/>
		</contour>
		<contour>
			<point x="79" y="184" type="line"/>
			<point x="481" y="184" type="line"/>
			<point x="481" y="218" type="line"/>
			<point x="79" y="218" type="line"/>
		</contour>
	</outline>
</glyph>
<glyph name="greater" format="2">
	<advance width="560"/>
	<unicode hex="003E"/>
	<outline>
		<contour>
			<point x="460" y="291" type="line"/>
			<point x="71" y="96" type="line"/>
			<point x="71" y="57" type="line"/>
			<point x="495" y="274" type="line"/>
			<point x="495" y="308" type="line"/>
			<point x="71" y="525" type="line"/>
			<point x="71" y="486" type="line"/>
		</contour>
	</outline>
</glyph>
<glyph name="question" format="2">
  <advance width="432"/>
  <unicode hex="003F"/>
  <outline>
    <contour>
      <point x="392" y="546" type="curve" smooth="yes"/>
      <point x="392" y="676"/>
      <point x="313" y="710"/>
      <point x="198" y="710" type="curve" smooth="yes"/>
      <point x="96" y="710"/>
      <point x="26" y="683"/>
      <point x="26" y="683" type="curve"/>
      <point x="31" y="649" type="line"/>
      <point x="31" y="649"/>
      <point x="92" y="677"/>
      <point x="195" y="677" type="curve" smooth="yes"/>
      <point x="286" y="677"/>
      <point x="357" y="655"/>
      <point x="357" y="548" type="curve" smooth="yes"/>
      <point x="357" y="490"/>
      <point x="336" y="456"/>
      <point x="265" y="392" type="curve" smooth="yes"/>
      <point x="213" y="345"/>
      <point x="158" y="297"/>
      <point x="158" y="232" type="curve" smooth="yes"/>
      <point x="158" y="213"/>
      <point x="159" y="191"/>
      <point x="159" y="191" type="curve"/>
      <point x="193" y="191" type="line"/>
      <point x="193" y="229" type="line" smooth="yes"/>
      <point x="193" y="285"/>
      <point x="240" y="325"/>
      <point x="291" y="370" type="curve" smooth="yes"/>
      <point x="375" y="444"/>
      <point x="392" y="481"/>
    </contour>
    <contour>
      <point x="156" y="80" type="line"/>
      <point x="156" y="0" type="line"/>
      <point x="196" y="0" type="line"/>
      <point x="196" y="80" type="line"/>
    </contour>
  </outline>
</glyph>
<glyph name="at" format="2">
	<advance width="984"/>
	<unicode hex="0040"/>
	<outline>
		<contour>
			<point x="922" y="288" type="curve" smooth="yes"/>
			<point x="922" y="305" type="line" smooth="yes"/>
			<point x="922" y="589"/>
			<point x="806" y="719"/>
			<point x="501" y="719" type="curve" smooth="yes"/>
			<point x="205" y="719"/>
			<point x="57" y="599"/>
			<point x="57" y="261" type="curve" smooth="yes"/>
			<point x="57" y="-100"/>
			<point x="205" y="-199"/>
			<point x="501" y="-199" type="curve" smooth="yes"/>
			<point x="549" y="-199"/>
			<point x="647" y="-190"/>
			<point x="647" y="-190" type="curve"/>
			<point x="644" y="-157" type="line"/>
			<point x="644" y="-157"/>
			<point x="541" y="-167"/>
			<point x="501" y="-167" type="curve" smooth="yes"/>
			<point x="224" y="-167"/>
			<point x="94" y="-71"/>
			<point x="94" y="261" type="curve" smooth="yes"/>
			<point x="94" y="580"/>
			<point x="224" y="687"/>
			<point x="501" y="687" type="curve" smooth="yes"/>
			<point x="783" y="687"/>
			<point x="885" y="570"/>
			<point x="885" y="306" type="curve" smooth="yes"/>
			<point x="885" y="288" type="line" smooth="yes"/>
			<point x="885" y="29"/>
			<point x="836" y="20"/>
			<point x="764" y="20" type="curve" smooth="yes"/>
			<point x="674" y="20"/>
			<point x="669" y="48"/>
			<point x="669" y="300" type="curve" smooth="yes"/>
			<point x="669" y="500" type="line"/>
			<point x="634" y="500" type="line"/>
			<point x="634" y="482" type="line"/>
			<point x="634" y="482"/>
			<point x="559" y="509"/>
			<point x="502" y="509" type="curve" smooth="yes"/>
			<point x="338" y="509"/>
			<point x="292" y="415"/>
			<point x="292" y="243" type="curve" smooth="yes"/>
			<point x="292" y="0"/>
			<point x="399" y="-9"/>
			<point x="461" y="-9" type="curve" smooth="yes"/>
			<point x="542" y="-9"/>
			<point x="652" y="53"/>
			<point x="652" y="53" type="curve"/>
			<point x="652" y="53"/>
			<point x="663" y="-10"/>
			<point x="759" y="-10" type="curve" smooth="yes"/>
			<point x="854" y="-10"/>
			<point x="922" y="-1"/>
		</contour>
		<contour>
			<point x="461" y="23" type="curve" smooth="yes"/>
			<point x="405" y="23"/>
			<point x="327" y="41"/>
			<point x="327" y="240" type="curve" smooth="yes"/>
			<point x="327" y="392"/>
			<point x="360" y="477"/>
			<point x="502" y="477" type="curve" smooth="yes"/>
			<point x="561" y="477"/>
			<point x="634" y="450"/>
			<point x="634" y="450" type="curve"/>
			<point x="634" y="300" type="line" smooth="yes"/>
			<point x="634" y="197"/>
			<point x="645" y="83"/>
			<point x="645" y="83" type="curve"/>
			<point x="645" y="83"/>
			<point x="530" y="23"/>
		</contour>
	</outline>
</glyph>
<glyph name="A" format="2">
  <advance width="590"/>
  <unicode hex="0041"/>
  <note>
A
</note>
  <anchor x="295" y="0" name="bottom"/>
  <anchor x="563" y="0" name="ogonek"/>
  <anchor x="295" y="700" name="top"/>
  <outline>
    <contour>
      <point x="310" y="666" type="line"/>
      <point x="446" y="249" type="line"/>
      <point x="144" y="249" type="line"/>
      <point x="280" y="666" type="line"/>
    </contour>
    <contour>
      <point x="27" y="0" type="line"/>
      <point x="63" y="0" type="line"/>
      <point x="133" y="215" type="line"/>
      <point x="457" y="215" type="line"/>
      <point x="527" y="0" type="line"/>
      <point x="563" y="0" type="line"/>
      <point x="335" y="700" type="line"/>
      <point x="255" y="700" type="line"/>
    </contour>
  </outline>
</glyph>
<glyph name="B" format="2">
	<advance width="621"/>
	<unicode hex="0042"/>
	<anchor x="304" y="0" name="bottom"/>
	<anchor x="304" y="350" name="center"/>
	<anchor x="304" y="700" name="top"/>
	<note>
		B
	</note>
	<outline>
		<contour>
			<point x="334" y="700" type="curve" smooth="yes"/>
			<point x="94" y="700" type="line"/>
			<point x="94" y="0" type="line"/>
			<point x="353" y="0" type="line" smooth="yes"/>
			<point x="479" y="0"/>
			<point x="563" y="48"/>
			<point x="563" y="188" type="curve" smooth="yes"/>
			<point x="563" y="308"/>
			<point x="501" y="344"/>
			<point x="439" y="361" type="curve"/>
			<point x="496" y="382"/>
			<point x="536" y="429"/>
			<point x="536" y="524" type="curve" smooth="yes"/>
			<point x="536" y="646"/>
			<point x="468" y="700"/>
		</contour>
		<contour>
			<point x="130" y="341" type="line"/>
			<point x="345" y="341" type="line" smooth="yes"/>
			<point x="446" y="341"/>
			<point x="526" y="309"/>
			<point x="526" y="188" type="curve" smooth="yes"/>
			<point x="526" y="73"/>
			<point x="455" y="34"/>
			<point x="353" y="34" type="curve" smooth="yes"/>
			<point x="130" y="34" type="line"/>
		</contour>
		<contour>
			<point x="130" y="666" type="line"/>
			<point x="334" y="666" type="line" smooth="yes"/>
			<point x="446" y="666"/>
			<point x="499" y="628"/>
			<point x="499" y="524" type="curve" smooth="yes"/>
			<point x="499" y="429"/>
			<point x="454" y="375"/>
			<point x="345" y="375" type="curve" smooth="yes"/>
			<point x="130" y="375" type="line"/>
		</contour>
	</outline>
</glyph>
<glyph name="D" format="2">
	<advance width="650"/>
	<unicode hex="0044"/>
	<anchor x="301" y="0" name="bottom"/>
	<anchor x="112" y="354" name="center"/>
	<anchor x="301" y="700" name="top"/>
	<note>
		D
	</note>
	<outline>
		<contour>
			<point x="94" y="0" type="line"/>
			<point x="354" y="0" type="line" smooth="yes"/>
			<point x="530" y="0"/>
			<point x="588" y="182"/>
			<point x="588" y="358" type="curve" smooth="yes"/>
			<point x="588" y="534"/>
			<point x="530" y="700"/>
			<point x="354" y="700" type="curve" smooth="yes"/>
			<point x="94" y="700" type="line"/>
		</contour>
		<contour>
			<point x="550" y="358" type="curve" smooth="yes"/>
			<point x="550" y="208"/>
			<point x="504" y="34"/>
			<point x="354" y="34" type="curve" smooth="yes"/>
			<point x="130" y="34" type="line"/>
			<point x="130" y="666" type="line"/>
			<point x="354" y="666" type="line" smooth="yes"/>
			<point x="504" y="666"/>
			<point x="550" y="508"/>
		</contour>
	</outline>
</glyph>
<glyph name="E" format="2">
	<advance width="552"/>
	<unicode hex="0045"/>
	<anchor x="304" y="0" name="bottom"/>
	<anchor x="458" y="0" name="ogonek"/>
	<anchor x="304" y="700" name="top"/>
	<anchor x="14" y="700" name="topleft"/>
	<note>
		E
	</note>
	<outline>
		<contour>
			<point x="94" y="700" type="line"/>
			<point x="94" y="0" type="line"/>
			<point x="503" y="0" type="line"/>
			<point x="503" y="34" type="line"/>
			<point x="130" y="34" type="line"/>
			<point x="130" y="341" type="line"/>
			<point x="443" y="341" type="line"/>
			<point x="443" y="375" type="line"/>
			<point x="130" y="375" type="line"/>
			<point x="130" y="666" type="line"/>
			<point x="503" y="666" type="line"/>
			<point x="503" y="700" type="line"/>
		</contour>
	</outline>
</glyph>
<glyph name="F" format="2">
	<advance width="526"/>
	<unicode hex="0046"/>
	<anchor x="297" y="0" name="bottom"/>
	<anchor x="297" y="700" name="top"/>
	<note>
		F
	</note>
	<outline>
		<contour>
			<point x="94" y="700" type="line"/>
			<point x="94" y="0" type="line"/>
			<point x="130" y="0" type="line"/>
			<point x="130" y="316" type="line"/>
			<point x="444" y="316" type="line"/>
			<point x="444" y="350" type="line"/>
			<point x="130" y="350" type="line"/>
			<point x="130" y="666" type="line"/>
			<point x="495" y="666" type="line"/>
			<point x="495" y="700" type="line"/>
		</contour>
	</outline>
</glyph>
<glyph name="G" format="2">
	<advance width="618"/>
	<unicode hex="0047"/>
	<anchor x="359" y="0" name="bottom"/>
	<anchor x="342" y="700" name="top"/>
	<note>
		G
	</note>
	<outline>
		<contour>
			<point x="361" y="347" type="line"/>
			<point x="361" y="313" type="line"/>
			<point x="511" y="313" type="line"/>
			<point x="511" y="43" type="line"/>
			<point x="467" y="32"/>
			<point x="381" y="24"/>
			<point x="329" y="24" type="curve" smooth="yes"/>
			<point x="130" y="24"/>
			<point x="103" y="137"/>
			<point x="103" y="347" type="curve" smooth="yes"/>
			<point x="103" y="558"/>
			<point x="129" y="676"/>
			<point x="317" y="676" type="curve" smooth="yes"/>
			<point x="408" y="676"/>
			<point x="544" y="650"/>
			<point x="544" y="650" type="curve"/>
			<point x="547" y="685" type="line"/>
			<point x="547" y="685"/>
			<point x="422" y="710"/>
			<point x="317" y="710" type="curve" smooth="yes"/>
			<point x="104" y="710"/>
			<point x="65" y="577"/>
			<point x="65" y="347" type="curve" smooth="yes"/>
			<point x="65" y="119"/>
			<point x="105" y="-10"/>
			<point x="328" y="-10" type="curve" smooth="yes"/>
			<point x="395" y="-10"/>
			<point x="482" y="2"/>
			<point x="547" y="16" type="curve"/>
			<point x="547" y="347" type="line"/>
		</contour>
	</outline>
</glyph>
<glyph name="H" format="2">
  <advance width="678"/>
  <unicode hex="0048"/>
  <note>
H
</note>
  <anchor x="339" y="0" name="bottom"/>
  <anchor x="339" y="537" name="center"/>
  <anchor x="339" y="700" name="top"/>
  <anchor x="14" y="700" name="topleft"/>
  <outline>
    <contour>
      <point x="548" y="339" type="line"/>
      <point x="548" y="0" type="line"/>
      <point x="584" y="0" type="line"/>
      <point x="584" y="700" type="line"/>
      <point x="548" y="700" type="line"/>
      <point x="548" y="373" type="line"/>
      <point x="130" y="373" type="line"/>
      <point x="130" y="700" type="line"/>
      <point x="94" y="700" type="line"/>
      <point x="94" y="0" type="line"/>
      <point x="130" y="0" type="line"/>
      <point x="130" y="339" type="line"/>
    </contour>
  </outline>
</glyph>
<glyph name="I" format="2">
  <advance width="224"/>
  <unicode hex="0049"/>
  <note>
I
</note>
  <anchor x="112" y="0" name="bottom"/>
  <anchor x="130" y="0" name="ogonek"/>
  <anchor x="112" y="353" name="stroke"/>
  <anchor x="112" y="700" name="top"/>
  <anchor x="14" y="700" name="topleft"/>
  <outline>
    <contour>
      <point x="94" y="700" type="line"/>
      <point x="94" y="0" type="line"/>
      <point x="130" y="0" type="line"/>
      <point x="130" y="700" type="line"/>
    </contour>
  </outline>
</glyph>
<glyph name="J" format="2">
	<advance width="279"/>
	<unicode hex="004A"/>
	<anchor x="144" y="0" name="bottom"/>
	<anchor x="171" y="700" name="top"/>
	<note>
		J
	</note>
	<outline>
		<contour>
			<point x="188" y="114" type="curve" smooth="yes"/>
			<point x="188" y="700" type="line"/>
			<point x="152" y="700" type="line"/>
			<point x="152" y="124" type="line" smooth="yes"/>
			<point x="152" y="51"/>
			<point x="142" y="27"/>
			<point x="15" y="27" type="curve"/>
			<point x="15" y="-7" type="line"/>
			<point x="157" y="-7"/>
			<point x="188" y="16"/>
		</contour>
	</outline>
</glyph>
<glyph name="K" format="2">
	<advance width="553"/>
	<unicode hex="004B"/>
	<anchor x="286" y="0" name="bottom"/>
	<anchor x="281" y="700" name="top"/>
	<note>
		K
	</note>
	<outline>
		<contour>
			<point x="262" y="329" type="line"/>
			<point x="492" y="0" type="line"/>
			<point x="536" y="0" type="line"/>
			<point x="291" y="348" type="line"/>
			<point x="522" y="700" type="line"/>
			<point x="481" y="700" type="line"/>
			<point x="261" y="363" type="line"/>
			<point x="130" y="363" type="line"/>
			<point x="130" y="700" type="line"/>
			<point x="94" y="700" type="line"/>
			<point x="94" y="0" type="line"/>
			<point x="130" y="0" type="line"/>
			<point x="130" y="329" type="line"/>
		</contour>
	</outline>
</glyph>
<glyph name="L" format="2">
	<advance width="484"/>
	<unicode hex="004C"/>
	<anchor x="279" y="0" name="bottom"/>
	<anchor x="113" y="350" name="center"/>
	<anchor x="113" y="700" name="top"/>
	<anchor x="296" y="700" name="topright"/>
	<note>
		L
	</note>
	<outline>
		<contour>
			<point x="94" y="0" type="line"/>
			<point x="471" y="0" type="line"/>
			<point x="471" y="34" type="line"/>
			<point x="130" y="34" type="line"/>
			<point x="130" y="700" type="line"/>
			<point x="94" y="700" type="line"/>
		</contour>
	</outline>
</glyph>
<glyph name="M" format="2">
  <advance width="833"/>
  <unicode hex="004D"/>
  <note>
M
</note>
  <anchor x="417" y="0" name="bottom"/>
  <anchor x="417" y="700" name="top"/>
  <outline>
    <contour>
      <point x="94" y="700" type="line"/>
      <point x="94" y="0" type="line"/>
      <point x="130" y="0" type="line"/>
      <point x="130" y="666" type="line"/>
      <point x="160" y="666" type="line"/>
      <point x="393" y="0" type="line"/>
      <point x="441" y="0" type="line"/>
      <point x="673" y="666" type="line"/>
      <point x="703" y="666" type="line"/>
      <point x="703" y="0" type="line"/>
      <point x="739" y="0" type="line"/>
      <point x="739" y="700" type="line"/>
      <point x="648" y="700" type="line"/>
      <point x="417" y="37" type="line"/>
      <point x="185" y="700" type="line"/>
    </contour>
  </outline>
</glyph>
<glyph name="N" format="2">
	<advance width="669"/>
	<unicode hex="004E"/>
	<anchor x="335" y="0" name="bottom"/>
	<anchor x="356" y="700" name="top"/>
	<note>
		N
	</note>
	<outline>
		<contour>
			<point x="94" y="700" type="line"/>
			<point x="94" y="0" type="line"/>
			<point x="130" y="0" type="line"/>
			<point x="130" y="666" type="line"/>
			<point x="160" y="666" type="line"/>
			<point x="487" y="0" type="line"/>
			<point x="575" y="0" type="line"/>
			<point x="575" y="700" type="line"/>
			<point x="539" y="700" type="line"/>
			<point x="539" y="34" type="line"/>
			<point x="509" y="34" type="line"/>
			<point x="182" y="700" type="line"/>
		</contour>
	</outline>
</glyph>
<glyph name="O" format="2">
	<advance width="662"/>
	<unicode hex="004F"/>
	<anchor x="331" y="0" name="bottom"/>
	<anchor x="331" y="350" name="center"/>
	<anchor x="386" y="0" name="ogonek"/>
	<anchor x="331" y="700" name="top"/>
	<anchor x="19" y="700" name="topleft"/>
	<anchor x="643" y="700" name="topright"/>
	<note>
		O
	</note>
	<outline>
		<contour>
			<point x="331" y="24" type="curve" smooth="yes"/>
			<point x="141" y="24"/>
			<point x="102" y="139"/>
			<point x="102" y="347" type="curve" smooth="yes"/>
			<point x="102" y="557"/>
			<point x="141" y="675"/>
			<point x="331" y="675" type="curve" smooth="yes"/>
			<point x="522" y="675"/>
			<point x="560" y="557"/>
			<point x="560" y="347" type="curve" smooth="yes"/>
			<point x="560" y="139"/>
			<point x="522" y="24"/>
		</contour>
		<contour>
			<point x="331" y="-10" type="curve" smooth="yes"/>
			<point x="545" y="-10"/>
			<point x="598" y="117"/>
			<point x="598" y="347" type="curve" smooth="yes"/>
			<point x="598" y="577"/>
			<point x="545" y="709"/>
			<point x="331" y="709" type="curve" smooth="yes"/>
			<point x="117" y="709"/>
			<point x="64" y="577"/>
			<point x="64" y="347" type="curve" smooth="yes"/>
			<point x="64" y="117"/>
			<point x="117" y="-10"/>
		</contour>
	</outline>
</glyph>
<glyph name="P" format="2">
	<advance width="599"/>
	<unicode hex="0050"/>
	<anchor x="303" y="0" name="bottom"/>
	<anchor x="303" y="700" name="top"/>
	<note>
		P
	</note>
	<outline>
		<contour>
			<point x="130" y="257" type="line"/>
			<point x="349" y="257" type="line" smooth="yes"/>
			<point x="494" y="257"/>
			<point x="556" y="340"/>
			<point x="556" y="485" type="curve" smooth="yes"/>
			<point x="556" y="630"/>
			<point x="494" y="700"/>
			<point x="349" y="700" type="curve" smooth="yes"/>
			<point x="94" y="700" type="line"/>
			<point x="94" y="0" type="line"/>
			<point x="130" y="0" type="line"/>
		</contour>
		<contour>
			<point x="349" y="291" type="curve" smooth="yes"/>
			<point x="130" y="291" type="line"/>
			<point x="130" y="666" type="line"/>
			<point x="349" y="666" type="line" smooth="yes"/>
			<point x="470" y="666"/>
			<point x="518" y="606"/>
			<point x="518" y="485" type="curve" smooth="yes"/>
			<point x="518" y="364"/>
			<point x="470" y="291"/>
		</contour>
	</outline>
</glyph>
<glyph name="Q" format="2">
  <advance width="662"/>
  <unicode hex="0051"/>
  <note>
Q
</note>
  <outline>
    <contour>
      <point x="331" y="25" type="curve" smooth="yes"/>
      <point x="141" y="25"/>
      <point x="102" y="139"/>
      <point x="102" y="347" type="curve" smooth="yes"/>
      <point x="102" y="557"/>
      <point x="141" y="675"/>
      <point x="331" y="675" type="curve" smooth="yes"/>
      <point x="522" y="675"/>
      <point x="560" y="557"/>
      <point x="560" y="347" type="curve" smooth="yes"/>
      <point x="560" y="139"/>
      <point x="522" y="25"/>
    </contour>
    <contour>
      <point x="64" y="347" type="curve" smooth="yes"/>
      <point x="64" y="117"/>
      <point x="117" y="-9"/>
      <point x="331" y="-9" type="curve" smooth="yes"/>
      <point x="375" y="-9"/>
      <point x="412" y="-4"/>
      <point x="443" y="7" type="curve"/>
      <point x="530" y="-140" type="line"/>
      <point x="561" y="-123" type="line"/>
      <point x="476" y="21" type="line"/>
      <point x="571" y="70"/>
      <point x="598" y="182"/>
      <point x="598" y="347" type="curve" smooth="yes"/>
      <point x="598" y="577"/>
      <point x="545" y="709"/>
      <point x="331" y="709" type="curve" smooth="yes"/>
      <point x="117" y="709"/>
      <point x="64" y="577"/>
    </contour>
  </outline>
</glyph>
<glyph name="R" format="2">
  <advance width="614"/>
  <unicode hex="0052"/>
  <note>
R
</note>
  <anchor x="312" y="0" name="bottom"/>
  <anchor x="303" y="700" name="top"/>
  <outline>
    <contour>
      <point x="515" y="500" type="curve" smooth="yes"/>
      <point x="515" y="396"/>
      <point x="472" y="324"/>
      <point x="345" y="324" type="curve" smooth="yes"/>
      <point x="130" y="324" type="line"/>
      <point x="130" y="666" type="line"/>
      <point x="345" y="666" type="line" smooth="yes"/>
      <point x="462" y="666"/>
      <point x="515" y="616"/>
    </contour>
    <contour>
      <point x="130" y="290" type="line"/>
      <point x="372" y="290" type="line"/>
      <point x="526" y="0" type="line"/>
      <point x="566" y="0" type="line"/>
      <point x="408" y="295" type="line"/>
      <point x="512" y="315"/>
      <point x="553" y="392"/>
      <point x="553" y="500" type="curve" smooth="yes"/>
      <point x="553" y="640"/>
      <point x="484" y="700"/>
      <point x="345" y="700" type="curve" smooth="yes"/>
      <point x="94" y="700" type="line"/>
      <point x="94" y="0" type="line"/>
      <point x="130" y="0" type="line"/>
    </contour>
  </outline>
</glyph>
<glyph name="S" format="2">
	<advance width="540"/>
	<unicode hex="0053"/>
	<anchor x="265" y="0" name="bottom"/>
	<anchor x="278" y="700" name="top"/>
	<note>
		S
	</note>
	<outline>
		<contour>
			<point x="465" y="659" type="curve"/>
			<point x="469" y="694" type="line"/>
			<point x="469" y="694"/>
			<point x="351" y="710"/>
			<point x="272" y="710" type="curve" smooth="yes"/>
			<point x="142" y="710"/>
			<point x="57" y="668"/>
			<point x="57" y="530" type="curve" smooth="yes"/>
			<point x="57" y="416"/>
			<point x="113" y="375"/>
			<point x="211" y="355" type="curve" smooth="yes"/>
			<point x="332" y="330" type="line" smooth="yes"/>
			<point x="424" y="311"/>
			<point x="450" y="271"/>
			<point x="450" y="195" type="curve" smooth="yes"/>
			<point x="450" y="73"/>
			<point x="388" y="24"/>
			<point x="274" y="24" type="curve" smooth="yes"/>
			<point x="203" y="24"/>
			<point x="62" y="44"/>
			<point x="62" y="44" type="curve"/>
			<point x="58" y="9" type="line"/>
			<point x="58" y="9"/>
			<point x="199" y="-10"/>
			<point x="274" y="-10" type="curve" smooth="yes"/>
			<point x="412" y="-10"/>
			<point x="488" y="50"/>
			<point x="488" y="195" type="curve" smooth="yes"/>
			<point x="488" y="301"/>
			<point x="449" y="346"/>
			<point x="338" y="368" type="curve" smooth="yes"/>
			<point x="222" y="391" type="line" smooth="yes"/>
			<point x="137" y="408"/>
			<point x="95" y="439"/>
			<point x="95" y="532" type="curve" smooth="yes"/>
			<point x="95" y="640"/>
			<point x="150" y="676"/>
			<point x="263" y="676" type="curve" smooth="yes"/>
			<point x="341" y="676"/>
			<point x="465" y="659"/>
		</contour>
	</outline>
</glyph>
<glyph name="T" format="2">
  <advance width="522"/>
  <unicode hex="0054"/>
  <note>
T
</note>
  <anchor x="260" y="0" name="bottom"/>
  <anchor x="260" y="344" name="center"/>
  <anchor x="260" y="700" name="top"/>
  <outline>
    <contour>
      <point x="13" y="700" type="line"/>
      <point x="13" y="666" type="line"/>
      <point x="243" y="666" type="line"/>
      <point x="243" y="0" type="line"/>
      <point x="279" y="0" type="line"/>
      <point x="279" y="666" type="line"/>
      <point x="509" y="666" type="line"/>
      <point x="509" y="700" type="line"/>
    </contour>
  </outline>
</glyph>
<glyph name="U" format="2">
	<advance width="640"/>
	<unicode hex="0055"/>
	<anchor x="320" y="0" name="bottom"/>
	<anchor x="387" y="0" name="ogonek"/>
	<anchor x="320" y="700" name="top"/>
	<anchor x="621" y="700" name="topright"/>
	<note>
		U
	</note>
	<outline>
		<contour>
			<point x="125" y="196" type="curve" smooth="yes"/>
			<point x="125" y="700" type="line"/>
			<point x="89" y="700" type="line"/>
			<point x="89" y="196" type="line" smooth="yes"/>
			<point x="89" y="45"/>
			<point x="174" y="-10"/>
			<point x="319" y="-10" type="curve" smooth="yes"/>
			<point x="464" y="-10"/>
			<point x="551" y="46"/>
			<point x="551" y="196" type="curve" smooth="yes"/>
			<point x="551" y="700" type="line"/>
			<point x="515" y="700" type="line"/>
			<point x="515" y="196" type="line" smooth="yes"/>
			<point x="515" y="69"/>
			<point x="440" y="24"/>
			<point x="319" y="24" type="curve" smooth="yes"/>
			<point x="197" y="24"/>
			<point x="125" y="70"/>
		</contour>
	</outline>
</glyph>
<glyph name="V" format="2">
  <advance width="571"/>
  <unicode hex="0056"/>
  <note>
V
</note>
  <anchor x="286" y="0" name="bottom"/>
  <anchor x="286" y="700" name="top"/>
  <outline>
    <contour>
      <point x="540" y="700" type="line"/>
      <point x="504" y="700" type="line"/>
      <point x="300" y="34" type="line"/>
      <point x="270" y="34" type="line"/>
      <point x="67" y="700" type="line"/>
      <point x="31" y="700" type="line"/>
      <point x="245" y="0" type="line"/>
      <point x="325" y="0" type="line"/>
    </contour>
  </outline>
</glyph>
<glyph name="W" format="2">
	<advance width="862"/>
	<unicode hex="0057"/>
	<anchor x="431" y="0" name="bottom"/>
	<anchor x="431" y="700" name="top"/>
	<note>
		W
	</note>
	<outline>
		<contour>
			<point x="76" y="700" type="line"/>
			<point x="41" y="700" type="line"/>
			<point x="189" y="0" type="line"/>
			<point x="272" y="0" type="line"/>
			<point x="431" y="641" type="line"/>
			<point x="590" y="0" type="line"/>
			<point x="673" y="0" type="line"/>
			<point x="820" y="700" type="line"/>
			<point x="785" y="700" type="line"/>
			<point x="645" y="34" type="line"/>
			<point x="615" y="34" type="line"/>
			<point x="452" y="690" type="line"/>
			<point x="410" y="690" type="line"/>
			<point x="247" y="34" type="line"/>
			<point x="217" y="34" type="line"/>
		</contour>
	</outline>
</glyph>
<glyph name="X" format="2">
	<advance width="564"/>
	<unicode hex="0058"/>
	<note>
		X
	</note>
	<outline>
		<contour>
			<point x="26" y="0" type="line"/>
			<point x="67" y="0" type="line"/>
			<point x="281" y="323" type="line"/>
			<point x="497" y="0" type="line"/>
			<point x="538" y="0" type="line"/>
			<point x="305" y="350" type="line"/>
			<point x="533" y="700" type="line"/>
			<point x="492" y="700" type="line"/>
			<point x="283" y="379" type="line"/>
			<point x="74" y="700" type="line"/>
			<point x="33" y="700" type="line"/>
			<point x="260" y="353" type="line"/>
		</contour>
	</outline>
</glyph>
<glyph name="Y" format="2">
  <advance width="542"/>
  <unicode hex="0059"/>
  <note>
Y
</note>
  <anchor x="271" y="0" name="bottom"/>
  <anchor x="271" y="700" name="top"/>
  <anchor x="15" y="700" name="topleft"/>
  <outline>
    <contour>
      <point x="253" y="0" type="line"/>
      <point x="289" y="0" type="line"/>
      <point x="289" y="301" type="line"/>
      <point x="517" y="700" type="line"/>
      <point x="477" y="700" type="line"/>
      <point x="271" y="337" type="line"/>
      <point x="65" y="700" type="line"/>
      <point x="25" y="700" type="line"/>
      <point x="253" y="301" type="line"/>
    </contour>
  </outline>
</glyph>
<glyph name="Z" format="2">
	<advance width="536"/>
	<unicode hex="005A"/>
	<anchor x="278" y="0" name="bottom"/>
	<anchor x="217" y="350" name="center"/>
	<anchor x="260" y="700" name="top"/>
	<note>
		Z
	</note>
	<outline>
		<contour>
			<point x="46" y="700" type="line"/>
			<point x="46" y="666" type="line"/>
			<point x="454" y="666" type="line"/>
			<point x="454" y="641" type="line"/>
			<point x="44" y="67" type="line"/>
			<point x="44" y="-1" type="line"/>
			<point x="491" y="-1" type="line"/>
			<point x="491" y="33" type="line"/>
			<point x="81" y="33" type="line"/>
			<point x="81" y="58" type="line"/>
			<point x="491" y="632" type="line"/>
			<point x="491" y="700" type="line"/>
		</contour>
	</outline>
</glyph>
<glyph name="bracketleft" format="2">
  <advance width="304"/>
  <unicode hex="005B"/>
  <outline>
    <contour>
      <point x="273" y="716" type="line"/>
      <point x="273" y="748" type="line"/>
      <point x="91" y="748" type="line"/>
      <point x="91" y="-123" type="line"/>
      <point x="273" y="-123" type="line"/>
      <point x="273" y="-91" type="line"/>
      <point x="126" y="-91" type="line"/>
      <point x="126" y="716" type="line"/>
    </contour>
  </outline>
</glyph>
<glyph name="underscore" format="2">
	<advance width="526"/>
	<unicode hex="005F"/>
	<outline>
		<contour>
			<point x="48" y="-42" type="line"/>
			<point x="48" y="-76" type="line"/>
			<point x="478" y="-76" type="line"/>
			<point x="478" y="-42" type="line"/>
		</contour>
	</outline>
</glyph>
<glyph name="a" format="2">
	<advance width="498"/>
	<unicode hex="0061"/>
	<anchor x="251" y="0" name="bottom"/>
	<anchor x="458" y="0" name="ogonek"/>
	<anchor x="237" y="500" name="top"/>
	<note>
		a
	</note>
	<outline>
		<contour>
			<point x="405" y="65" type="curve"/>
			<point x="405" y="353" type="line" smooth="yes"/>
			<point x="405" y="456"/>
			<point x="360" y="510"/>
			<point x="246" y="510" type="curve" smooth="yes"/>
			<point x="179" y="510"/>
			<point x="67" y="491"/>
			<point x="67" y="491" type="curve"/>
			<point x="70" y="458" type="line"/>
			<point x="70" y="458"/>
			<point x="188" y="476"/>
			<point x="248" y="476" type="curve" smooth="yes"/>
			<point x="334" y="476"/>
			<point x="370" y="440"/>
			<point x="370" y="353" type="curve" smooth="yes"/>
			<point x="370" y="301" type="line"/>
			<point x="180" y="281" type="line" smooth="yes"/>
			<point x="82" y="271"/>
			<point x="42" y="225"/>
			<point x="42" y="139" type="curve" smooth="yes"/>
			<point x="42" y="43"/>
			<point x="91" y="-10"/>
			<point x="188" y="-10" type="curve" smooth="yes"/>
			<point x="273" y="-10"/>
			<point x="375" y="34"/>
			<point x="375" y="34" type="curve"/>
			<point x="397" y="3"/>
			<point x="435" y="-8"/>
			<point x="478" y="-8" type="curve"/>
			<point x="480" y="23" type="line"/>
			<point x="445" y="26"/>
			<point x="408" y="36"/>
		</contour>
		<contour>
			<point x="184" y="250" type="curve" smooth="yes"/>
			<point x="370" y="269" type="line"/>
			<point x="370" y="64" type="line"/>
			<point x="370" y="64"/>
			<point x="268" y="22"/>
			<point x="189" y="22" type="curve" smooth="yes"/>
			<point x="113" y="22"/>
			<point x="79" y="64"/>
			<point x="79" y="139" type="curve" smooth="yes"/>
			<point x="79" y="206"/>
			<point x="106" y="242"/>
		</contour>
	</outline>
</glyph>
<glyph name="b" format="2">
  <advance width="517"/>
  <unicode hex="0062"/>
  <note>
b
</note>
  <anchor x="252" y="0" name="bottom"/>
  <anchor x="262" y="250" name="center"/>
  <anchor x="100" y="730" name="top"/>
  <outline>
    <contour>
      <point x="293" y="510" type="curve" smooth="yes"/>
      <point x="200" y="510"/>
      <point x="117" y="469"/>
      <point x="117" y="469" type="curve"/>
      <point x="117" y="730" type="line"/>
      <point x="82" y="730" type="line"/>
      <point x="82" y="0" type="line"/>
      <point x="82" y="0"/>
      <point x="163" y="-9"/>
      <point x="231" y="-9" type="curve" smooth="yes"/>
      <point x="417" y="-9"/>
      <point x="459" y="73"/>
      <point x="459" y="260" type="curve" smooth="yes"/>
      <point x="459" y="432"/>
      <point x="425" y="510"/>
    </contour>
    <contour>
      <point x="235" y="23" type="curve" smooth="yes"/>
      <point x="191" y="23"/>
      <point x="117" y="29"/>
      <point x="117" y="29" type="curve"/>
      <point x="117" y="437" type="line"/>
      <point x="117" y="437"/>
      <point x="203" y="478"/>
      <point x="289" y="478" type="curve" smooth="yes"/>
      <point x="403" y="478"/>
      <point x="422" y="400"/>
      <point x="422" y="260" type="curve" smooth="yes"/>
      <point x="422" y="91"/>
      <point x="393" y="23"/>
    </contour>
  </outline>
</glyph>
<glyph name="c" format="2">
	<advance width="426"/>
	<unicode hex="0063"/>
	<anchor x="234" y="0" name="bottom"/>
	<anchor x="244" y="500" name="top"/>
	<note>
		c
	</note>
	<outline>
		<contour>
			<point x="251" y="510" type="curve" smooth="yes"/>
			<point x="118" y="510"/>
			<point x="57" y="445"/>
			<point x="57" y="246" type="curve" smooth="yes"/>
			<point x="57" y="59"/>
			<point x="111" y="-10"/>
			<point x="264" y="-10" type="curve" smooth="yes"/>
			<point x="316" y="-10"/>
			<point x="384" y="0"/>
			<point x="384" y="0" type="curve"/>
			<point x="382" y="32" type="line"/>
			<point x="382" y="32"/>
			<point x="308" y="22"/>
			<point x="261" y="22" type="curve" smooth="yes"/>
			<point x="128" y="22"/>
			<point x="94" y="88"/>
			<point x="94" y="246" type="curve" smooth="yes"/>
			<point x="94" y="418"/>
			<point x="136" y="478"/>
			<point x="252" y="478" type="curve" smooth="yes"/>
			<point x="302" y="478"/>
			<point x="380" y="467"/>
			<point x="380" y="467" type="curve"/>
			<point x="382" y="499" type="line"/>
			<point x="382" y="499"/>
			<point x="305" y="510"/>
		</contour>
	</outline>
</glyph>
<glyph name="d" format="2">
  <advance width="517"/>
  <unicode hex="0064"/>
  <note>
d
</note>
  <anchor x="255" y="0" name="bottom"/>
  <anchor x="255" y="250" name="center"/>
  <anchor x="407" y="614" name="stroke"/>
  <anchor x="417" y="730" name="top"/>
  <anchor x="497" y="730" name="topright"/>
  <outline>
    <contour>
      <point x="227" y="22" type="curve" smooth="yes"/>
      <point x="131" y="22"/>
      <point x="94" y="89"/>
      <point x="94" y="244" type="curve" smooth="yes"/>
      <point x="94" y="385"/>
      <point x="125" y="478"/>
      <point x="262" y="478" type="curve" smooth="yes"/>
      <point x="306" y="478"/>
      <point x="374" y="471"/>
      <point x="400" y="467" type="curve"/>
      <point x="400" y="76" type="line"/>
      <point x="400" y="76"/>
      <point x="313" y="22"/>
    </contour>
    <contour>
      <point x="435" y="0" type="line"/>
      <point x="435" y="730" type="line"/>
      <point x="400" y="730" type="line"/>
      <point x="400" y="497" type="line"/>
      <point x="375" y="501"/>
      <point x="314" y="510"/>
      <point x="264" y="510" type="curve" smooth="yes"/>
      <point x="103" y="510"/>
      <point x="57" y="413"/>
      <point x="57" y="244" type="curve" smooth="yes"/>
      <point x="57" y="73"/>
      <point x="104" y="-10"/>
      <point x="224" y="-10" type="curve" smooth="yes"/>
      <point x="318" y="-10"/>
      <point x="400" y="42"/>
      <point x="400" y="42" type="curve"/>
      <point x="400" y="0" type="line"/>
    </contour>
  </outline>
</glyph>
<glyph name="e" format="2">
  <advance width="498"/>
  <unicode hex="0065"/>
  <note>
e
</note>
  <anchor x="252" y="0" name="bottom"/>
  <anchor x="377" y="0" name="ogonek"/>
  <anchor x="258" y="500" name="top"/>
  <outline>
    <contour>
      <point x="252" y="22" type="curve" smooth="yes"/>
      <point x="124" y="22"/>
      <point x="93" y="98"/>
      <point x="93" y="236" type="curve"/>
      <point x="448" y="236" type="line"/>
      <point x="448" y="269" type="line" smooth="yes"/>
      <point x="448" y="442"/>
      <point x="384" y="510"/>
      <point x="259" y="510" type="curve" smooth="yes"/>
      <point x="137" y="510"/>
      <point x="56" y="445"/>
      <point x="56" y="239" type="curve" smooth="yes"/>
      <point x="56" y="94"/>
      <point x="90" y="-9"/>
      <point x="251" y="-10" type="curve" smooth="yes"/>
      <point x="312" y="-10"/>
      <point x="429" y="0"/>
      <point x="429" y="0" type="curve"/>
      <point x="427" y="32" type="line"/>
      <point x="427" y="32"/>
      <point x="310" y="22"/>
    </contour>
    <contour>
      <point x="411" y="268" type="curve"/>
      <point x="93" y="268" type="line"/>
      <point x="93" y="425"/>
      <point x="158" y="478"/>
      <point x="259" y="478" type="curve" smooth="yes"/>
      <point x="365" y="478"/>
      <point x="411" y="421"/>
    </contour>
  </outline>
</glyph>
<glyph name="f" format="2">
  <advance width="307"/>
  <unicode hex="0066"/>
  <note>
f
</note>
  <anchor x="146" y="0" name="bottom"/>
  <anchor x="215" y="730" name="top"/>
  <outline>
    <contour>
      <point x="131" y="0" type="line"/>
      <point x="131" y="468" type="line"/>
      <point x="293" y="468" type="line"/>
      <point x="293" y="500" type="line"/>
      <point x="131" y="500" type="line"/>
      <point x="131" y="570" type="line" smooth="yes"/>
      <point x="131" y="680"/>
      <point x="150" y="708"/>
      <point x="218" y="708" type="curve" smooth="yes"/>
      <point x="246" y="708"/>
      <point x="315" y="705"/>
      <point x="315" y="705" type="curve"/>
      <point x="315" y="737" type="line"/>
      <point x="315" y="737"/>
      <point x="258" y="740"/>
      <point x="223" y="740" type="curve" smooth="yes"/>
      <point x="132" y="740"/>
      <point x="96" y="705"/>
      <point x="96" y="571" type="curve" smooth="yes"/>
      <point x="96" y="500" type="line"/>
      <point x="27" y="500" type="line"/>
      <point x="27" y="468" type="line"/>
      <point x="96" y="468" type="line"/>
      <point x="96" y="0" type="line"/>
    </contour>
  </outline>
</glyph>
<glyph name="g" format="2">
	<advance width="488"/>
	<unicode hex="0067"/>
	<anchor x="237" y="-230" name="bottom"/>
	<anchor x="236" y="500" name="top"/>
	<note>
		g
	</note>
	<outline>
		<contour>
			<point x="235" y="-240" type="curve" smooth="yes"/>
			<point x="395" y="-240"/>
			<point x="456" y="-193"/>
			<point x="456" y="-85" type="curve" smooth="yes"/>
			<point x="456" y="39"/>
			<point x="403" y="59"/>
			<point x="279" y="59" type="curve" smooth="yes"/>
			<point x="148" y="59"/>
			<point x="142" y="64"/>
			<point x="142" y="113" type="curve" smooth="yes"/>
			<point x="142" y="126"/>
			<point x="165" y="183"/>
			<point x="165" y="183" type="curve"/>
			<point x="177" y="181"/>
			<point x="211" y="179"/>
			<point x="219" y="179" type="curve" smooth="yes"/>
			<point x="342" y="179"/>
			<point x="401" y="220"/>
			<point x="401" y="343" type="curve" smooth="yes"/>
			<point x="401" y="412"/>
			<point x="386" y="442"/>
			<point x="361" y="465" type="curve"/>
			<point x="469" y="465" type="line"/>
			<point x="469" y="500" type="line"/>
			<point x="329" y="497" type="line"/>
			<point x="329" y="497"/>
			<point x="277" y="510"/>
			<point x="223" y="510" type="curve" smooth="yes"/>
			<point x="116" y="510"/>
			<point x="52" y="462"/>
			<point x="52" y="343" type="curve" smooth="yes"/>
			<point x="52" y="247"/>
			<point x="92" y="206"/>
			<point x="138" y="191" type="curve"/>
			<point x="138" y="191"/>
			<point x="108" y="128"/>
			<point x="108" y="113" type="curve" smooth="yes"/>
			<point x="108" y="82"/>
			<point x="114" y="58"/>
			<point x="130" y="48" type="curve"/>
			<point x="76" y="9"/>
			<point x="45" y="-14"/>
			<point x="45" y="-80" type="curve" smooth="yes"/>
			<point x="45" y="-198"/>
			<point x="80" y="-240"/>
		</contour>
		<contour>
			<point x="277" y="27" type="curve" smooth="yes"/>
			<point x="378" y="27"/>
			<point x="419" y="16"/>
			<point x="419" y="-85" type="curve" smooth="yes"/>
			<point x="419" y="-171"/>
			<point x="371" y="-208"/>
			<point x="236" y="-208" type="curve" smooth="yes"/>
			<point x="109" y="-208"/>
			<point x="81" y="-174"/>
			<point x="81" y="-79" type="curve" smooth="yes"/>
			<point x="81" y="-31"/>
			<point x="98" y="-10"/>
			<point x="156" y="30" type="curve"/>
			<point x="156" y="30"/>
			<point x="236" y="27"/>
		</contour>
		<contour>
			<point x="222" y="211" type="curve" smooth="yes"/>
			<point x="128" y="211"/>
			<point x="88" y="243"/>
			<point x="88" y="343" type="curve" smooth="yes"/>
			<point x="88" y="443"/>
			<point x="128" y="478"/>
			<point x="222" y="478" type="curve" smooth="yes"/>
			<point x="327" y="478"/>
			<point x="364" y="443"/>
			<point x="364" y="343" type="curve" smooth="yes"/>
			<point x="364" y="243"/>
			<point x="327" y="211"/>
		</contour>
	</outline>
</glyph>
<glyph name="h" format="2">
	<advance width="532"/>
	<unicode hex="0068"/>
	<anchor x="265" y="0" name="bottom"/>
	<anchor x="208" y="614" name="stroke"/>
	<anchor x="100" y="730" name="top"/>
	<note>
		h
	</note>
	<outline>
		<contour>
			<point x="82" y="0" type="line"/>
			<point x="117" y="0" type="line"/>
			<point x="117" y="438" type="line"/>
			<point x="117" y="438"/>
			<point x="202" y="478"/>
			<point x="298" y="478" type="curve" smooth="yes"/>
			<point x="402" y="478"/>
			<point x="420" y="429"/>
			<point x="420" y="259" type="curve" smooth="yes"/>
			<point x="420" y="0" type="line"/>
			<point x="455" y="0" type="line"/>
			<point x="455" y="261" type="line" smooth="yes"/>
			<point x="455" y="455"/>
			<point x="423" y="510"/>
			<point x="303" y="510" type="curve" smooth="yes"/>
			<point x="201" y="510"/>
			<point x="117" y="470"/>
			<point x="117" y="470" type="curve"/>
			<point x="117" y="730" type="line"/>
			<point x="82" y="730" type="line"/>
		</contour>
	</outline>
</glyph>
<glyph name="k" format="2">
  <advance width="453"/>
  <unicode hex="006B"/>
  <note>
k
</note>
  <anchor x="247" y="0" name="bottom"/>
  <anchor x="99" y="730" name="top"/>
  <outline>
    <contour>
      <point x="82" y="0" type="line"/>
      <point x="117" y="0" type="line"/>
      <point x="117" y="257" type="line"/>
      <point x="213" y="257" type="line"/>
      <point x="393" y="0" type="line"/>
      <point x="435" y="0" type="line"/>
      <point x="243" y="274" type="line"/>
      <point x="427" y="500" type="line"/>
      <point x="385" y="500" type="line"/>
      <point x="213" y="289" type="line"/>
      <point x="117" y="289" type="line"/>
      <point x="117" y="730" type="line"/>
      <point x="82" y="730" type="line"/>
    </contour>
  </outline>
</glyph>
<glyph name="l" format="2">
	<advance width="252"/>
	<unicode hex="006C"/>
	<anchor x="163" y="0" name="bottom"/>
	<anchor x="96" y="365" name="center"/>
	<anchor x="97" y="730" name="top"/>
	<anchor x="182" y="730" name="topright"/>
	<note>
		l
	</note>
	<outline>
		<contour>
			<point x="114" y="98" type="curve" smooth="yes"/>
			<point x="114" y="730" type="line"/>
			<point x="79" y="730" type="line"/>
			<point x="79" y="87" type="line" smooth="yes"/>
			<point x="79" y="23"/>
			<point x="105" y="-10"/>
			<point x="176" y="-10" type="curve" smooth="yes"/>
			<point x="211" y="-10"/>
			<point x="237" y="-3"/>
			<point x="237" y="-3" type="curve"/>
			<point x="234" y="26" type="line"/>
			<point x="234" y="26"/>
			<point x="207" y="23"/>
			<point x="179" y="23" type="curve" smooth="yes"/>
			<point x="128" y="23"/>
			<point x="114" y="44"/>
		</contour>
	</outline>
</glyph>
<glyph name="m" format="2">
  <advance width="840"/>
  <unicode hex="006D"/>
  <note>
m
</note>
  <anchor x="428" y="0" name="bottom"/>
  <anchor x="427" y="500" name="top"/>
  <outline>
    <contour>
      <point x="82" y="0" type="line"/>
      <point x="117" y="0" type="line"/>
      <point x="117" y="427" type="line"/>
      <point x="117" y="427"/>
      <point x="192" y="478"/>
      <point x="281" y="478" type="curve" smooth="yes"/>
      <point x="392" y="478"/>
      <point x="410" y="428"/>
      <point x="410" y="258" type="curve" smooth="yes"/>
      <point x="410" y="0" type="line"/>
      <point x="445" y="0" type="line"/>
      <point x="445" y="260" type="line" smooth="yes"/>
      <point x="445" y="335"/>
      <point x="441" y="390"/>
      <point x="427" y="428" type="curve"/>
      <point x="427" y="428"/>
      <point x="502" y="478"/>
      <point x="599" y="478" type="curve" smooth="yes"/>
      <point x="710" y="478"/>
      <point x="728" y="428"/>
      <point x="728" y="258" type="curve" smooth="yes"/>
      <point x="728" y="0" type="line"/>
      <point x="763" y="0" type="line"/>
      <point x="763" y="260" type="line" smooth="yes"/>
      <point x="763" y="454"/>
      <point x="735" y="510"/>
      <point x="599" y="510" type="curve" smooth="yes"/>
      <point x="501" y="510"/>
      <point x="415" y="455"/>
      <point x="415" y="455" type="curve"/>
      <point x="391" y="493"/>
      <point x="355" y="510"/>
      <point x="281" y="510" type="curve" smooth="yes"/>
      <point x="195" y="510"/>
      <point x="117" y="460"/>
      <point x="117" y="460" type="curve"/>
      <point x="117" y="500" type="line"/>
      <point x="82" y="500" type="line"/>
    </contour>
  </outline>
</glyph>
<glyph name="n" format="2">
	<advance width="533"/>
	<unicode hex="006E"/>
	<anchor x="278" y="0" name="bottom"/>
	<anchor x="264" y="500" name="top"/>
	<note>
		n
	</note>
	<outline>
		<contour>
			<point x="82" y="0" type="line"/>
			<point x="117" y="0" type="line"/>
			<point x="117" y="427" type="line"/>
			<point x="117" y="427"/>
			<point x="196" y="478"/>
			<point x="297" y="478" type="curve" smooth="yes"/>
			<point x="399" y="478"/>
			<point x="421" y="432"/>
			<point x="421" y="258" type="curve" smooth="yes"/>
			<point x="421" y="0" type="line"/>
			<point x="456" y="0" type="line"/>
			<point x="456" y="260" type="line" smooth="yes"/>
			<point x="456" y="458"/>
			<point x="420" y="510"/>
			<point x="302" y="510" type="curve" smooth="yes"/>
			<point x="195" y="510"/>
			<point x="117" y="460"/>
			<point x="117" y="460" type="curve"/>
			<point x="117" y="500" type="line"/>
			<point x="82" y="500" type="line"/>
		</contour>
	</outline>
</glyph>
<glyph name="o" format="2">
	<advance width="518"/>
	<unicode hex="006F"/>
	<anchor x="259" y="0" name="bottom"/>
	<anchor x="259" y="250" name="center"/>
	<anchor x="306" y="0" name="ogonek"/>
	<anchor x="259" y="500" name="top"/>
	<anchor x="502" y="500" name="topright"/>
	<note>
		o
	</note>
	<outline>
		<contour>
			<point x="259" y="510" type="curve" smooth="yes"/>
			<point x="111" y="510"/>
			<point x="56" y="430"/>
			<point x="56" y="243" type="curve" smooth="yes"/>
			<point x="56" y="94"/>
			<point x="99" y="-10"/>
			<point x="259" y="-10" type="curve" smooth="yes"/>
			<point x="419" y="-10"/>
			<point x="462" y="94"/>
			<point x="462" y="243" type="curve" smooth="yes"/>
			<point x="462" y="430"/>
			<point x="407" y="510"/>
		</contour>
		<contour>
			<point x="259" y="22" type="curve" smooth="yes"/>
			<point x="126" y="22"/>
			<point x="93" y="113"/>
			<point x="93" y="243" type="curve" smooth="yes"/>
			<point x="93" y="413"/>
			<point x="131" y="478"/>
			<point x="259" y="478" type="curve" smooth="yes"/>
			<point x="387" y="478"/>
			<point x="425" y="413"/>
			<point x="425" y="243" type="curve" smooth="yes"/>
			<point x="425" y="113"/>
			<point x="392" y="22"/>
		</contour>
	</outline>
</glyph>
<glyph name="p" format="2">
  <advance width="518"/>
  <unicode hex="0070"/>
  <note>
p
</note>
  <anchor x="263" y="0" name="bottom"/>
  <anchor x="265" y="500" name="top"/>
  <outline>
    <contour>
      <point x="82" y="500" type="line"/>
      <point x="82" y="-230" type="line"/>
      <point x="117" y="-230" type="line"/>
      <point x="117" y="5" type="line"/>
      <point x="117" y="5"/>
      <point x="195" y="-10"/>
      <point x="249" y="-10" type="curve" smooth="yes"/>
      <point x="404" y="-10"/>
      <point x="461" y="72"/>
      <point x="461" y="258" type="curve" smooth="yes"/>
      <point x="461" y="428"/>
      <point x="412" y="510"/>
      <point x="290" y="510" type="curve" smooth="yes"/>
      <point x="199" y="510"/>
      <point x="117" y="458"/>
      <point x="117" y="458" type="curve"/>
      <point x="117" y="500" type="line"/>
    </contour>
    <contour>
      <point x="290" y="478" type="curve" smooth="yes"/>
      <point x="376" y="478"/>
      <point x="424" y="419"/>
      <point x="424" y="258" type="curve" smooth="yes"/>
      <point x="424" y="88"/>
      <point x="378" y="22"/>
      <point x="249" y="22" type="curve" smooth="yes"/>
      <point x="195" y="22"/>
      <point x="117" y="37"/>
      <point x="117" y="37" type="curve"/>
      <point x="117" y="424" type="line"/>
      <point x="117" y="424"/>
      <point x="204" y="478"/>
    </contour>
  </outline>
</glyph>
<glyph name="q" format="2">
	<advance width="515"/>
	<unicode hex="0071"/>
	<note>
		q
	</note>
	<outline>
		<contour>
			<point x="236" y="-10" type="curve" smooth="yes"/>
			<point x="325" y="-10"/>
			<point x="398" y="29"/>
			<point x="398" y="29" type="curve"/>
			<point x="398" y="-230" type="line"/>
			<point x="433" y="-230" type="line"/>
			<point x="433" y="500" type="line"/>
			<point x="433" y="500"/>
			<point x="338" y="510"/>
			<point x="281" y="510" type="curve" smooth="yes"/>
			<point x="114" y="510"/>
			<point x="56" y="426"/>
			<point x="56" y="242" type="curve" smooth="yes"/>
			<point x="56" y="75"/>
			<point x="100" y="-10"/>
		</contour>
		<contour>
			<point x="282" y="478" type="curve" smooth="yes"/>
			<point x="326" y="478"/>
			<point x="398" y="471"/>
			<point x="398" y="471" type="curve"/>
			<point x="398" y="63" type="line"/>
			<point x="398" y="63"/>
			<point x="325" y="22"/>
			<point x="236" y="22" type="curve" smooth="yes"/>
			<point x="125" y="22"/>
			<point x="93" y="101"/>
			<point x="93" y="242" type="curve" smooth="yes"/>
			<point x="93" y="400"/>
			<point x="134" y="478"/>
		</contour>
	</outline>
</glyph>
<glyph name="r" format="2">
  <advance width="324"/>
  <unicode hex="0072"/>
  <note>
r
</note>
  <anchor x="100" y="0" name="bottom"/>
  <anchor x="198" y="500" name="top"/>
  <outline>
    <contour>
      <point x="82" y="500" type="line"/>
      <point x="82" y="0" type="line"/>
      <point x="117" y="0" type="line"/>
      <point x="117" y="388" type="line"/>
      <point x="117" y="388"/>
      <point x="217" y="454"/>
      <point x="315" y="474" type="curve"/>
      <point x="315" y="510" type="line"/>
      <point x="205" y="489"/>
      <point x="117" y="422"/>
      <point x="117" y="422" type="curve"/>
      <point x="117" y="500" type="line"/>
    </contour>
  </outline>
</glyph>
<glyph name="s" format="2">
  <advance width="455"/>
  <unicode hex="0073"/>
  <note>
s
</note>
  <anchor x="216" y="0" name="bottom"/>
  <anchor x="228" y="500" name="top"/>
  <outline>
    <contour>
      <point x="387" y="462" type="curve"/>
      <point x="389" y="494" type="line"/>
      <point x="389" y="494"/>
      <point x="297" y="509"/>
      <point x="220" y="509" type="curve" smooth="yes"/>
      <point x="139" y="509"/>
      <point x="49" y="481"/>
      <point x="49" y="375" type="curve" smooth="yes"/>
      <point x="49" y="301"/>
      <point x="81" y="271"/>
      <point x="163" y="255" type="curve" smooth="yes"/>
      <point x="279" y="232" type="line" smooth="yes"/>
      <point x="352" y="218"/>
      <point x="372" y="196"/>
      <point x="372" y="141" type="curve" smooth="yes"/>
      <point x="372" y="45"/>
      <point x="311" y="23"/>
      <point x="217" y="23" type="curve" smooth="yes"/>
      <point x="166" y="23"/>
      <point x="58" y="40"/>
      <point x="58" y="40" type="curve"/>
      <point x="54" y="8" type="line"/>
      <point x="54" y="8"/>
      <point x="162" y="-9"/>
      <point x="219" y="-9" type="curve" smooth="yes"/>
      <point x="337" y="-9"/>
      <point x="409" y="27"/>
      <point x="409" y="144" type="curve" smooth="yes"/>
      <point x="409" y="218"/>
      <point x="378" y="249"/>
      <point x="289" y="267" type="curve" smooth="yes"/>
      <point x="173" y="290" type="line" smooth="yes"/>
      <point x="101" y="304"/>
      <point x="85" y="329"/>
      <point x="85" y="377" type="curve" smooth="yes"/>
      <point x="85" y="458"/>
      <point x="156" y="477"/>
      <point x="220" y="477" type="curve" smooth="yes"/>
      <point x="288" y="477"/>
      <point x="387" y="462"/>
    </contour>
  </outline>
</glyph>
<glyph name="t" format="2">
	<advance width="345"/>
	<unicode hex="0074"/>
	<anchor x="216" y="0" name="bottom"/>
	<anchor x="120" y="272" name="center"/>
	<anchor x="121" y="663" name="top"/>
	<anchor x="216" y="730" name="topright"/>
	<note>
		t
	</note>
	<outline>
		<contour>
			<point x="138" y="468" type="line"/>
			<point x="320" y="468" type="line"/>
			<point x="320" y="500" type="line"/>
			<point x="138" y="500" type="line"/>
			<point x="138" y="663" type="line"/>
			<point x="103" y="663" type="line"/>
			<point x="103" y="500" type="line"/>
			<point x="24" y="500" type="line"/>
			<point x="24" y="468" type="line"/>
			<point x="103" y="468" type="line"/>
			<point x="103" y="168" type="line" smooth="yes"/>
			<point x="103" y="24"/>
			<point x="139" y="-10"/>
			<point x="230" y="-10" type="curve" smooth="yes"/>
			<point x="265" y="-10"/>
			<point x="331" y="-2"/>
			<point x="331" y="-2" type="curve"/>
			<point x="328" y="30" type="line"/>
			<point x="328" y="30"/>
			<point x="258" y="22"/>
			<point x="230" y="22" type="curve" smooth="yes"/>
			<point x="149" y="22"/>
			<point x="138" y="59"/>
			<point x="138" y="178" type="curve" smooth="yes"/>
		</contour>
	</outline>
</glyph>
<glyph name="u" format="2">
	<advance width="522"/>
	<unicode hex="0075"/>
	<anchor x="261" y="0" name="bottom"/>
	<anchor x="440" y="0" name="ogonek"/>
	<anchor x="261" y="500" name="top"/>
	<anchor x="500" y="500" name="topright"/>
	<note>
		u
	</note>
	<outline>
		<contour>
			<point x="440" y="500" type="line"/>
			<point x="405" y="500" type="line"/>
			<point x="405" y="73" type="line"/>
			<point x="405" y="73"/>
			<point x="339" y="23"/>
			<point x="237" y="23" type="curve" smooth="yes"/>
			<point x="139" y="23"/>
			<point x="112" y="72"/>
			<point x="112" y="242" type="curve" smooth="yes"/>
			<point x="112" y="500" type="line"/>
			<point x="77" y="500" type="line"/>
			<point x="77" y="240" type="line" smooth="yes"/>
			<point x="77" y="46"/>
			<point x="121" y="-9"/>
			<point x="236" y="-9" type="curve" smooth="yes"/>
			<point x="343" y="-9"/>
			<point x="405" y="40"/>
			<point x="405" y="40" type="curve"/>
			<point x="405" y="0" type="line"/>
			<point x="440" y="0" type="line"/>
		</contour>
	</outline>
</glyph>
<glyph name="v" format="2">
	<advance width="473"/>
	<unicode hex="0076"/>
	<anchor x="237" y="0" name="bottom"/>
	<anchor x="237" y="500" name="top"/>
	<note>
		v
	</note>
	<outline>
		<contour>
			<point x="66" y="500" type="line"/>
			<point x="30" y="500" type="line"/>
			<point x="202" y="0" type="line"/>
			<point x="271" y="0" type="line"/>
			<point x="443" y="500" type="line"/>
			<point x="408" y="500" type="line"/>
			<point x="247" y="32" type="line"/>
			<point x="227" y="32" type="line"/>
		</contour>
	</outline>
</glyph>
<glyph name="w" format="2">
	<advance width="778"/>
	<unicode hex="0077"/>
	<anchor x="389" y="0" name="bottom"/>
	<anchor x="389" y="500" name="top"/>
	<note>
		w
	</note>
	<outline>
		<contour>
			<point x="70" y="500" type="line"/>
			<point x="35" y="500" type="line"/>
			<point x="172" y="0" type="line"/>
			<point x="243" y="0" type="line"/>
			<point x="389" y="448" type="line"/>
			<point x="535" y="0" type="line"/>
			<point x="606" y="0" type="line"/>
			<point x="743" y="500" type="line"/>
			<point x="708" y="500" type="line"/>
			<point x="579" y="32" type="line"/>
			<point x="559" y="32" type="line"/>
			<point x="409" y="490" type="line"/>
			<point x="369" y="490" type="line"/>
			<point x="219" y="32" type="line"/>
			<point x="199" y="32" type="line"/>
		</contour>
	</outline>
</glyph>
<glyph name="x" format="2">
  <advance width="443"/>
  <unicode hex="0078"/>
  <note>
x
</note>
  <outline>
    <contour>
      <point x="25" y="0" type="line"/>
      <point x="65" y="0" type="line"/>
      <point x="220" y="225" type="line"/>
      <point x="376" y="0" type="line"/>
      <point x="416" y="0" type="line"/>
      <point x="242" y="249" type="line"/>
      <point x="412" y="500" type="line"/>
      <point x="372" y="500" type="line"/>
      <point x="223" y="276" type="line"/>
      <point x="73" y="500" type="line"/>
      <point x="33" y="500" type="line"/>
      <point x="201" y="251" type="line"/>
    </contour>
  </outline>
</glyph>
<glyph name="y" format="2">
	<advance width="474"/>
	<unicode hex="0079"/>
	<anchor x="237" y="0" name="bottom"/>
	<anchor x="237" y="500" name="top"/>
	<note>
		y
	</note>
	<outline>
		<contour>
			<point x="66" y="500" type="line"/>
			<point x="30" y="500" type="line"/>
			<point x="199" y="0" type="line"/>
			<point x="235" y="0" type="line"/>
			<point x="161" y="-230" type="line"/>
			<point x="198" y="-230" type="line"/>
			<point x="443" y="500" type="line"/>
			<point x="407" y="500" type="line"/>
			<point x="244" y="32" type="line"/>
			<point x="224" y="32" type="line"/>
		</contour>
	</outline>
</glyph>
<glyph name="z" format="2">
	<advance width="456"/>
	<unicode hex="007A"/>
	<anchor x="225" y="0" name="bottom"/>
	<anchor x="225" y="250" name="center"/>
	<anchor x="225" y="500" name="top"/>
	<note>
		z
	</note>
	<outline>
		<contour>
			<point x="46" y="500" type="line"/>
			<point x="46" y="468" type="line"/>
			<point x="377" y="468" type="line"/>
			<point x="377" y="453" type="line"/>
			<point x="41" y="58" type="line"/>
			<point x="41" y="0" type="line"/>
			<point x="414" y="0" type="line"/>
			<point x="414" y="32" type="line"/>
			<point x="76" y="32" type="line"/>
			<point x="76" y="47" type="line"/>
			<point x="412" y="443" type="line"/>
			<point x="412" y="500" type="line"/>
		</contour>
	</outline>
</glyph>
<glyph name="braceleft" format="2">
	<advance width="343"/>
	<unicode hex="007B"/>
	<outline>
		<contour>
			<point x="177" y="169" type="curve" smooth="yes"/>
			<point x="181" y="253"/>
			<point x="150" y="287"/>
			<point x="77" y="311" type="curve"/>
			<point x="150" y="335"/>
			<point x="177" y="367"/>
			<point x="177" y="455" type="curve" smooth="yes"/>
			<point x="177" y="488"/>
			<point x="170" y="545"/>
			<point x="170" y="578" type="curve" smooth="yes"/>
			<point x="170" y="668"/>
			<point x="198" y="717"/>
			<point x="312" y="722" type="curve"/>
			<point x="310" y="754" type="line"/>
			<point x="184" y="749"/>
			<point x="135" y="697"/>
			<point x="135" y="578" type="curve" smooth="yes"/>
			<point x="135" y="541"/>
			<point x="142" y="478"/>
			<point x="142" y="446" type="curve" smooth="yes"/>
			<point x="142" y="381"/>
			<point x="115" y="345"/>
			<point x="38" y="326" type="curve"/>
			<point x="38" y="294" type="line"/>
			<point x="114" y="272"/>
			<point x="142" y="240"/>
			<point x="142" y="176" type="curve" smooth="yes"/>
			<point x="142" y="147"/>
			<point x="135" y="88"/>
			<point x="135" y="49" type="curve" smooth="yes"/>
			<point x="135" y="-70"/>
			<point x="184" y="-124"/>
			<point x="310" y="-129" type="curve"/>
			<point x="312" y="-97" type="line"/>
			<point x="198" y="-92"/>
			<point x="170" y="-39"/>
			<point x="170" y="49" type="curve" smooth="yes"/>
			<point x="170" y="88"/>
			<point x="175" y="126"/>
		</contour>
	</outline>
</glyph>
<glyph name="bar" format="2">
  <advance width="223"/>
  <unicode hex="007C"/>
  <outline>
    <contour>
      <point x="94" y="730" type="line"/>
      <point x="94" y="-230" type="line"/>
      <point x="129" y="-230" type="line"/>
      <point x="129" y="730" type="line"/>
    </contour>
  </outline>
</glyph>
<glyph name="asciitilde" format="2">
  <advance width="560"/>
  <unicode hex="007E"/>
  <outline>
    <contour>
      <point x="497" y="297" type="curve"/>
      <point x="480" y="323" type="line"/>
      <point x="480" y="323"/>
      <point x="414" y="271"/>
      <point x="378" y="271" type="curve" smooth="yes"/>
      <point x="334" y="271"/>
      <point x="238" y="344"/>
      <point x="181" y="344" type="curve" smooth="yes"/>
      <point x="131" y="344"/>
      <point x="63" y="284"/>
      <point x="63" y="284" type="curve"/>
      <point x="80" y="258" type="line"/>
      <point x="80" y="258"/>
      <point x="146" y="310"/>
      <point x="182" y="310" type="curve" smooth="yes"/>
      <point x="226" y="310"/>
      <point x="322" y="237"/>
      <point x="379" y="237" type="curve" smooth="yes"/>
      <point x="429" y="237"/>
      <point x="497" y="297"/>
    </contour>
  </outline>
</glyph>
<glyph name="cent" format="2">
	<advance width="448"/>
	<unicode hex="00A2"/>
	<outline>
		<contour>
			<point x="234" y="85" type="curve"/>
			<point x="234" y="-31" type="line"/>
			<point x="269" y="-31" type="line"/>
			<point x="269" y="85" type="line"/>
			<point x="312" y="86"/>
			<point x="386" y="94"/>
			<point x="386" y="94" type="curve"/>
			<point x="384" y="129" type="line"/>
			<point x="384" y="129"/>
			<point x="312" y="121"/>
			<point x="254" y="121" type="curve" smooth="yes"/>
			<point x="131" y="121"/>
			<point x="99" y="159"/>
			<point x="99" y="291" type="curve" smooth="yes"/>
			<point x="99" y="420"/>
			<point x="136" y="469"/>
			<point x="244" y="469" type="curve" smooth="yes"/>
			<point x="302" y="469"/>
			<point x="382" y="459"/>
			<point x="382" y="459" type="curve"/>
			<point x="384" y="492" type="line"/>
			<point x="384" y="492"/>
			<point x="313" y="504"/>
			<point x="268" y="504" type="curve"/>
			<point x="268" y="625" type="line"/>
			<point x="233" y="625" type="line"/>
			<point x="233" y="505" type="line"/>
			<point x="111" y="501"/>
			<point x="59" y="441"/>
			<point x="59" y="291" type="curve" smooth="yes"/>
			<point x="59" y="128"/>
			<point x="111" y="89"/>
		</contour>
	</outline>
</glyph>
<glyph name="sterling" format="2">
  <advance width="471"/>
  <unicode hex="00A3"/>
  <outline>
    <contour>
      <point x="390" y="626" type="curve"/>
      <point x="390" y="658" type="line"/>
      <point x="390" y="658"/>
      <point x="308" y="670"/>
      <point x="270" y="670" type="curve" smooth="yes"/>
      <point x="169" y="670"/>
      <point x="133" y="632"/>
      <point x="133" y="459" type="curve" smooth="yes"/>
      <point x="133" y="406" type="line"/>
      <point x="64" y="406" type="line"/>
      <point x="64" y="374" type="line"/>
      <point x="133" y="374" type="line"/>
      <point x="133" y="34" type="line"/>
      <point x="41" y="34" type="line"/>
      <point x="41" y="0" type="line"/>
      <point x="349" y="0" type="line"/>
      <point x="431" y="18" type="line"/>
      <point x="424" y="50" type="line"/>
      <point x="342" y="34" type="line"/>
      <point x="168" y="34" type="line"/>
      <point x="168" y="374" type="line"/>
      <point x="350" y="374" type="line"/>
      <point x="350" y="406" type="line"/>
      <point x="168" y="406" type="line"/>
      <point x="168" y="455" type="line" smooth="yes"/>
      <point x="168" y="604"/>
      <point x="188" y="638"/>
      <point x="270" y="638" type="curve" smooth="yes"/>
      <point x="303" y="638"/>
      <point x="390" y="626"/>
    </contour>
  </outline>
</glyph>
<glyph name="currency" format="2">
	<advance width="532"/>
	<unicode hex="00A4"/>
	<outline>
		<contour>
			<point x="373" y="159" type="curve"/>
			<point x="443" y="88" type="line"/>
			<point x="469" y="114" type="line"/>
			<point x="398" y="184" type="line"/>
			<point x="422" y="213"/>
			<point x="436" y="250"/>
			<point x="436" y="291" type="curve" smooth="yes"/>
			<point x="436" y="331"/>
			<point x="422" y="369"/>
			<point x="398" y="398" type="curve"/>
			<point x="469" y="468" type="line"/>
			<point x="443" y="494" type="line"/>
			<point x="373" y="423" type="line"/>
			<point x="344" y="447"/>
			<point x="306" y="461"/>
			<point x="266" y="461" type="curve" smooth="yes"/>
			<point x="225" y="461"/>
			<point x="188" y="447"/>
			<point x="159" y="423" type="curve"/>
			<point x="89" y="494" type="line"/>
			<point x="63" y="468" type="line"/>
			<point x="134" y="398" type="line"/>
			<point x="110" y="369"/>
			<point x="96" y="331"/>
			<point x="96" y="291" type="curve" smooth="yes"/>
			<point x="96" y="250"/>
			<point x="110" y="213"/>
			<point x="134" y="184" type="curve"/>
			<point x="63" y="114" type="line"/>
			<point x="89" y="88" type="line"/>
			<point x="159" y="159" type="line"/>
			<point x="188" y="135"/>
			<point x="225" y="121"/>
			<point x="266" y="121" type="curve" smooth="yes"/>
			<point x="306" y="121"/>
			<point x="344" y="135"/>
		</contour>
		<contour>
			<point x="266" y="157" type="curve" smooth="yes"/>
			<point x="193" y="157"/>
			<point x="132" y="218"/>
			<point x="132" y="291" type="curve" smooth="yes"/>
			<point x="132" y="364"/>
			<point x="193" y="425"/>
			<point x="266" y="425" type="curve" smooth="yes"/>
			<point x="339" y="425"/>
			<point x="400" y="364"/>
			<point x="400" y="291" type="curve" smooth="yes"/>
			<point x="400" y="218"/>
			<point x="339" y="157"/>
		</contour>
	</outline>
</glyph>
<glyph name="yen" format="2">
	<advance width="570"/>
	<unicode hex="00A5"/>
	<outline>
		<contour>
			<point x="303" y="0" type="line"/>
			<point x="303" y="281" type="line"/>
			<point x="531" y="660" type="line"/>
			<point x="491" y="660" type="line"/>
			<point x="285" y="317" type="line"/>
			<point x="79" y="660" type="line"/>
			<point x="39" y="660" type="line"/>
			<point x="267" y="281" type="line"/>
			<point x="267" y="0" type="line"/>
		</contour>
		<contour>
			<point x="483" y="180" type="line"/>
			<point x="87" y="180" type="line"/>
			<point x="87" y="148" type="line"/>
			<point x="483" y="148" type="line"/>
		</contour>
		<contour>
			<point x="483" y="310" type="line"/>
			<point x="87" y="310" type="line"/>
			<point x="87" y="278" type="line"/>
			<point x="483" y="278" type="line"/>
		</contour>
	</outline>
</glyph>
<glyph name="brokenbar" format="2">
  <advance width="223"/>
  <unicode hex="00A6"/>
  <outline>
    <contour>
      <point x="95" y="730" type="line"/>
      <point x="95" y="360" type="line"/>
      <point x="130" y="360" type="line"/>
      <point x="130" y="730" type="line"/>
    </contour>
    <contour>
      <point x="95" y="140" type="line"/>
      <point x="95" y="-230" type="line"/>
      <point x="130" y="-230" type="line"/>
      <point x="130" y="140" type="line"/>
    </contour>
  </outline>
</glyph>
<glyph name="section" format="2">
	<advance width="479"/>
	<unicode hex="00A7"/>
	<outline>
		<contour>
			<point x="398" y="665" type="curve"/>
			<point x="400" y="697" type="line"/>
			<point x="400" y="697"/>
			<point x="307" y="710"/>
			<point x="244" y="710" type="curve" smooth="yes"/>
			<point x="135" y="710"/>
			<point x="69" y="663"/>
			<point x="69" y="567" type="curve" smooth="yes"/>
			<point x="69" y="508"/>
			<point x="84" y="475"/>
			<point x="113" y="453" type="curve"/>
			<point x="113" y="453"/>
			<point x="59" y="401"/>
			<point x="59" y="333" type="curve" smooth="yes"/>
			<point x="59" y="235"/>
			<point x="122" y="205"/>
			<point x="235" y="189" type="curve" smooth="yes"/>
			<point x="329" y="176"/>
			<point x="380" y="167"/>
			<point x="380" y="84" type="curve" smooth="yes"/>
			<point x="380" y="-1"/>
			<point x="330" y="-42"/>
			<point x="242" y="-42" type="curve" smooth="yes"/>
			<point x="187" y="-42"/>
			<point x="77" y="-28"/>
			<point x="77" y="-28" type="curve"/>
			<point x="74" y="-60" type="line"/>
			<point x="74" y="-60"/>
			<point x="182" y="-73"/>
			<point x="242" y="-73" type="curve" smooth="yes"/>
			<point x="353" y="-73"/>
			<point x="415" y="-19"/>
			<point x="415" y="85" type="curve" smooth="yes"/>
			<point x="415" y="130"/>
			<point x="403" y="159"/>
			<point x="379" y="178" type="curve"/>
			<point x="379" y="178"/>
			<point x="418" y="240"/>
			<point x="418" y="305" type="curve" smooth="yes"/>
			<point x="418" y="404"/>
			<point x="355" y="429"/>
			<point x="252" y="445" type="curve" smooth="yes"/>
			<point x="153" y="460"/>
			<point x="104" y="475"/>
			<point x="104" y="568" type="curve" smooth="yes"/>
			<point x="104" y="643"/>
			<point x="155" y="678"/>
			<point x="244" y="678" type="curve" smooth="yes"/>
			<point x="292" y="678"/>
			<point x="398" y="665"/>
		</contour>
		<contour>
			<point x="245" y="413" type="curve" smooth="yes"/>
			<point x="329" y="400"/>
			<point x="383" y="385"/>
			<point x="383" y="302" type="curve" smooth="yes"/>
			<point x="383" y="246"/>
			<point x="353" y="194"/>
			<point x="353" y="194" type="curve"/>
			<point x="326" y="207"/>
			<point x="288" y="214"/>
			<point x="242" y="221" type="curve" smooth="yes"/>
			<point x="143" y="235"/>
			<point x="94" y="260"/>
			<point x="94" y="335" type="curve" smooth="yes"/>
			<point x="94" y="386"/>
			<point x="138" y="439"/>
			<point x="138" y="439" type="curve"/>
			<point x="166" y="426"/>
			<point x="202" y="420"/>
		</contour>
	</outline>
</glyph>
<glyph name="copyright" format="2">
	<advance width="632"/>
	<unicode hex="00A9"/>
	<outline>
		<contour>
			<point x="316" y="708" type="curve" smooth="yes"/>
			<point x="445" y="708"/>
			<point x="538" y="603"/>
			<point x="538" y="474" type="curve" smooth="yes"/>
			<point x="538" y="345"/>
			<point x="445" y="241"/>
			<point x="316" y="241" type="curve" smooth="yes"/>
			<point x="187" y="241"/>
			<point x="94" y="345"/>
			<point x="94" y="474" type="curve" smooth="yes"/>
			<point x="94" y="603"/>
			<point x="187" y="708"/>
		</contour>
		<contour>
			<point x="61" y="474" type="curve" smooth="yes"/>
			<point x="61" y="327"/>
			<point x="169" y="209"/>
			<point x="316" y="209" type="curve" smooth="yes"/>
			<point x="463" y="209"/>
			<point x="571" y="327"/>
			<point x="571" y="474" type="curve" smooth="yes"/>
			<point x="571" y="621"/>
			<point x="463" y="740"/>
			<point x="316" y="740" type="curve" smooth="yes"/>
			<point x="169" y="740"/>
			<point x="61" y="621"/>
		</contour>
		<contour>
			<point x="391" y="335" type="curve"/>
			<point x="390" y="367" type="line"/>
			<point x="390" y="367"/>
			<point x="345" y="359"/>
			<point x="317" y="359" type="curve" smooth="yes"/>
			<point x="253" y="359"/>
			<point x="240" y="403"/>
			<point x="240" y="474" type="curve" smooth="yes"/>
			<point x="240" y="547"/>
			<point x="247" y="592"/>
			<point x="317" y="592" type="curve" smooth="yes"/>
			<point x="349" y="592"/>
			<point x="390" y="585"/>
			<point x="390" y="585" type="curve"/>
			<point x="391" y="617" type="line"/>
			<point x="391" y="617"/>
			<point x="355" y="624"/>
			<point x="317" y="624" type="curve" smooth="yes"/>
			<point x="227" y="624"/>
			<point x="208" y="561"/>
			<point x="208" y="474" type="curve" smooth="yes"/>
			<point x="208" y="388"/>
			<point x="229" y="327"/>
			<point x="317" y="327" type="curve" smooth="yes"/>
			<point x="348" y="327"/>
			<point x="391" y="335"/>
		</contour>
	</outline>
</glyph>
<glyph name="ordfeminine" format="2">
  <advance width="392"/>
  <unicode hex="00AA"/>
  <outline>
    <contour>
      <point x="284" y="488" type="curve"/>
      <point x="284" y="622" type="line" smooth="yes"/>
      <point x="284" y="685"/>
      <point x="258" y="710"/>
      <point x="201" y="710" type="curve" smooth="yes"/>
      <point x="164" y="710"/>
      <point x="95" y="702"/>
      <point x="95" y="702" type="curve"/>
      <point x="97" y="673" type="line"/>
      <point x="97" y="673"/>
      <point x="167" y="680"/>
      <point x="201" y="680" type="curve" smooth="yes"/>
      <point x="236" y="680"/>
      <point x="253" y="666"/>
      <point x="253" y="623" type="curve" smooth="yes"/>
      <point x="253" y="600" type="line"/>
      <point x="151" y="593" type="line" smooth="yes"/>
      <point x="100" y="589"/>
      <point x="76" y="565"/>
      <point x="76" y="517" type="curve" smooth="yes"/>
      <point x="76" y="468"/>
      <point x="105" y="437"/>
      <point x="146" y="437" type="curve" smooth="yes"/>
      <point x="202" y="437"/>
      <point x="265" y="459"/>
      <point x="265" y="459" type="curve"/>
      <point x="281" y="444"/>
      <point x="295" y="438"/>
      <point x="320" y="437" type="curve"/>
      <point x="320" y="465" type="line"/>
      <point x="306" y="468"/>
      <point x="292" y="475"/>
    </contour>
    <contour>
      <point x="156" y="565" type="curve" smooth="yes"/>
      <point x="253" y="571" type="line"/>
      <point x="253" y="486" type="line"/>
      <point x="253" y="486"/>
      <point x="194" y="468"/>
      <point x="149" y="468" type="curve" smooth="yes"/>
      <point x="124" y="468"/>
      <point x="109" y="483"/>
      <point x="109" y="515" type="curve" smooth="yes"/>
      <point x="109" y="548"/>
      <point x="122" y="563"/>
    </contour>
    <contour>
      <point x="84" y="371" type="line"/>
      <point x="84" y="341" type="line"/>
      <point x="314" y="341" type="line"/>
      <point x="314" y="371" type="line"/>
    </contour>
  </outline>
</glyph>
<glyph name="logicalnot" format="2">
	<advance width="560"/>
	<unicode hex="00AC"/>
	<outline>
		<contour>
			<point x="490" y="325" type="line"/>
			<point x="68" y="325" type="line"/>
			<point x="68" y="291" type="line"/>
			<point x="454" y="291" type="line"/>
			<point x="454" y="119" type="line"/>
			<point x="490" y="119" type="line"/>
		</contour>
	</outline>
</glyph>
<glyph name="registered" format="2">
	<advance width="632"/>
	<unicode hex="00AE"/>
	<outline>
		<contour>
			<point x="328" y="444" type="line"/>
			<point x="392" y="332" type="line"/>
			<point x="428" y="332" type="line"/>
			<point x="363" y="447" type="line"/>
			<point x="407" y="458"/>
			<point x="422" y="487"/>
			<point x="422" y="530" type="curve" smooth="yes"/>
			<point x="422" y="598"/>
			<point x="385" y="619"/>
			<point x="309" y="619" type="curve" smooth="yes"/>
			<point x="220" y="619" type="line"/>
			<point x="220" y="332" type="line"/>
			<point x="252" y="332" type="line"/>
			<point x="252" y="444" type="line"/>
		</contour>
		<contour>
			<point x="252" y="475" type="line"/>
			<point x="252" y="588" type="line"/>
			<point x="310" y="588" type="line" smooth="yes"/>
			<point x="364" y="588"/>
			<point x="388" y="578"/>
			<point x="388" y="530" type="curve" smooth="yes"/>
			<point x="388" y="492"/>
			<point x="372" y="475"/>
			<point x="328" y="475" type="curve" smooth="yes"/>
		</contour>
		<contour>
			<point x="316" y="708" type="curve" smooth="yes"/>
			<point x="445" y="708"/>
			<point x="538" y="603"/>
			<point x="538" y="474" type="curve" smooth="yes"/>
			<point x="538" y="345"/>
			<point x="445" y="241"/>
			<point x="316" y="241" type="curve" smooth="yes"/>
			<point x="187" y="241"/>
			<point x="94" y="345"/>
			<point x="94" y="474" type="curve" smooth="yes"/>
			<point x="94" y="603"/>
			<point x="187" y="708"/>
		</contour>
		<contour>
			<point x="61" y="474" type="curve" smooth="yes"/>
			<point x="61" y="327"/>
			<point x="169" y="209"/>
			<point x="316" y="209" type="curve" smooth="yes"/>
			<point x="463" y="209"/>
			<point x="571" y="327"/>
			<point x="571" y="474" type="curve" smooth="yes"/>
			<point x="571" y="621"/>
			<point x="463" y="740"/>
			<point x="316" y="740" type="curve" smooth="yes"/>
			<point x="169" y="740"/>
			<point x="61" y="621"/>
		</contour>
	</outline>
</glyph>
<glyph name="degree" format="2">
	<advance width="394"/>
	<unicode hex="00B0"/>
	<outline>
		<contour>
			<point x="197" y="710" type="curve" smooth="yes"/>
			<point x="115" y="710"/>
			<point x="60" y="653"/>
			<point x="60" y="571" type="curve" smooth="yes"/>
			<point x="60" y="490"/>
			<point x="115" y="434"/>
			<point x="197" y="434" type="curve" smooth="yes"/>
			<point x="279" y="434"/>
			<point x="334" y="490"/>
			<point x="334" y="571" type="curve" smooth="yes"/>
			<point x="334" y="653"/>
			<point x="279" y="710"/>
		</contour>
		<contour>
			<point x="197" y="677" type="curve" smooth="yes"/>
			<point x="259" y="677"/>
			<point x="299" y="634"/>
			<point x="299" y="571" type="curve" smooth="yes"/>
			<point x="299" y="509"/>
			<point x="259" y="467"/>
			<point x="197" y="467" type="curve" smooth="yes"/>
			<point x="135" y="467"/>
			<point x="95" y="509"/>
			<point x="95" y="571" type="curve" smooth="yes"/>
			<point x="95" y="634"/>
			<point x="135" y="677"/>
		</contour>
	</outline>
</glyph>
<glyph name="plusminus" format="2">
	<advance width="560"/>
	<unicode hex="00B1"/>
	<outline>
		<contour>
			<point x="59" y="364" type="line"/>
			<point x="59" y="328" type="line"/>
			<point x="262" y="328" type="line"/>
			<point x="262" y="164" type="line"/>
			<point x="298" y="164" type="line"/>
			<point x="298" y="328" type="line"/>
			<point x="501" y="328" type="line"/>
			<point x="501" y="364" type="line"/>
			<point x="298" y="364" type="line"/>
			<point x="298" y="528" type="line"/>
			<point x="262" y="528" type="line"/>
			<point x="262" y="364" type="line"/>
		</contour>
		<contour>
			<point x="501" y="90" type="line"/>
			<point x="59" y="90" type="line"/>
			<point x="59" y="54" type="line"/>
			<point x="501" y="54" type="line"/>
		</contour>
	</outline>
</glyph>
<glyph name="micro" format="2">
  <advance width="539"/>
  <unicode hex="00B5"/>
  <outline>
    <contour>
      <point x="451" y="500" type="line"/>
      <point x="416" y="500" type="line"/>
      <point x="416" y="73" type="line"/>
      <point x="416" y="73"/>
      <point x="341" y="22"/>
      <point x="252" y="22" type="curve" smooth="yes"/>
      <point x="141" y="22"/>
      <point x="123" y="72"/>
      <point x="123" y="202" type="curve" smooth="yes"/>
      <point x="123" y="500" type="line"/>
      <point x="88" y="500" type="line"/>
      <point x="88" y="-230" type="line"/>
      <point x="123" y="-230" type="line"/>
      <point x="123" y="43" type="line"/>
      <point x="143" y="11"/>
      <point x="188" y="-10"/>
      <point x="246" y="-10" type="curve" smooth="yes"/>
      <point x="338" y="-10"/>
      <point x="416" y="40"/>
      <point x="416" y="40" type="curve"/>
      <point x="416" y="0" type="line"/>
      <point x="451" y="0" type="line"/>
    </contour>
  </outline>
</glyph>
<glyph name="paragraph" format="2">
	<advance width="580"/>
	<unicode hex="00B6"/>
	<outline>
		<contour>
			<point x="421" y="666" type="line"/>
			<point x="421" y="0" type="line"/>
			<point x="457" y="0" type="line"/>
			<point x="457" y="666" type="line"/>
			<point x="554" y="666" type="line"/>
			<point x="554" y="700" type="line"/>
			<point x="226" y="700" type="line" smooth="yes"/>
			<point x="113" y="700"/>
			<point x="34" y="629"/>
			<point x="34" y="524" type="curve" smooth="yes"/>
			<point x="34" y="419"/>
			<point x="113" y="350"/>
			<point x="226" y="350" type="curve" smooth="yes"/>
			<point x="233" y="350" type="line"/>
			<point x="233" y="0" type="line"/>
			<point x="269" y="0" type="line"/>
			<point x="269" y="666" type="line"/>
		</contour>
	</outline>
</glyph>
<glyph name="periodcentered" format="2">
	<advance width="186"/>
	<unicode hex="00B7"/>
	<outline>
		<contour>
			<point x="73" y="331" type="line"/>
			<point x="73" y="251" type="line"/>
			<point x="113" y="251" type="line"/>
			<point x="113" y="331" type="line"/>
		</contour>
	</outline>
</glyph>
<glyph name="ordmasculine" format="2">
	<advance width="384"/>
	<unicode hex="00BA"/>
	<outline>
		<contour>
			<point x="193" y="710" type="curve" smooth="yes"/>
			<point x="117" y="710"/>
			<point x="78" y="669"/>
			<point x="78" y="575" type="curve" smooth="yes"/>
			<point x="78" y="481"/>
			<point x="117" y="437"/>
			<point x="193" y="437" type="curve" smooth="yes"/>
			<point x="269" y="437"/>
			<point x="306" y="481"/>
			<point x="306" y="575" type="curve" smooth="yes"/>
			<point x="306" y="669"/>
			<point x="269" y="710"/>
		</contour>
		<contour>
			<point x="193" y="469" type="curve" smooth="yes"/>
			<point x="136" y="469"/>
			<point x="112" y="499"/>
			<point x="112" y="575" type="curve" smooth="yes"/>
			<point x="112" y="651"/>
			<point x="136" y="678"/>
			<point x="193" y="678" type="curve" smooth="yes"/>
			<point x="250" y="678"/>
			<point x="272" y="651"/>
			<point x="272" y="575" type="curve" smooth="yes"/>
			<point x="272" y="499"/>
			<point x="250" y="469"/>
		</contour>
		<contour>
			<point x="88" y="371" type="line"/>
			<point x="88" y="341" type="line"/>
			<point x="296" y="341" type="line"/>
			<point x="296" y="371" type="line"/>
		</contour>
	</outline>
</glyph>
<glyph name="AE" format="2">
	<advance width="859"/>
	<unicode hex="00C6"/>
	<anchor x="559" y="0" name="bottom"/>
	<anchor x="559" y="700" name="top"/>
	<outline>
		<contour>
			<point x="404" y="666" type="line"/>
			<point x="404" y="0" type="line"/>
			<point x="813" y="0" type="line"/>
			<point x="813" y="34" type="line"/>
			<point x="440" y="34" type="line"/>
			<point x="440" y="341" type="line"/>
			<point x="753" y="341" type="line"/>
			<point x="753" y="375" type="line"/>
			<point x="440" y="375" type="line"/>
			<point x="440" y="666" type="line"/>
			<point x="813" y="666" type="line"/>
			<point x="813" y="700" type="line"/>
			<point x="290" y="700" type="line"/>
			<point x="10" y="0" type="line"/>
			<point x="46" y="0" type="line"/>
			<point x="314" y="666" type="line"/>
		</contour>
		<contour>
			<point x="412" y="215" type="line"/>
			<point x="412" y="249" type="line"/>
			<point x="131" y="249" type="line"/>
			<point x="119" y="215" type="line"/>
		</contour>
	</outline>
</glyph>
<glyph name="multiply" format="2">
	<advance width="560"/>
	<unicode hex="00D7"/>
	<outline>
		<contour>
			<point x="117" y="479" type="line"/>
			<point x="92" y="454" type="line"/>
			<point x="255" y="291" type="line"/>
			<point x="92" y="128" type="line"/>
			<point x="117" y="103" type="line"/>
			<point x="280" y="266" type="line"/>
			<point x="443" y="103" type="line"/>
			<point x="468" y="128" type="line"/>
			<point x="305" y="291" type="line"/>
			<point x="468" y="454" type="line"/>
			<point x="443" y="479" type="line"/>
			<point x="280" y="316" type="line"/>
		</contour>
	</outline>
</glyph>
<glyph name="Thorn" format="2">
	<advance width="579"/>
	<unicode hex="00DE"/>
	<outline>
		<contour>
			<point x="94" y="568" type="line"/>
			<point x="94" y="165" type="line"/>
			<point x="319" y="165" type="line" smooth="yes"/>
			<point x="464" y="165"/>
			<point x="526" y="248"/>
			<point x="526" y="373" type="curve" smooth="yes"/>
			<point x="526" y="498"/>
			<point x="464" y="568"/>
			<point x="319" y="568" type="curve" smooth="yes"/>
		</contour>
		<contour>
			<point x="319" y="199" type="curve" smooth="yes"/>
			<point x="130" y="199" type="line"/>
			<point x="130" y="534" type="line"/>
			<point x="319" y="534" type="line" smooth="yes"/>
			<point x="440" y="534"/>
			<point x="488" y="474"/>
			<point x="488" y="373" type="curve" smooth="yes"/>
			<point x="488" y="272"/>
			<point x="440" y="199"/>
		</contour>
		<component base="I"/>
	</outline>
</glyph>
<glyph name="ae" format="2">
  <advance width="810"/>
  <unicode hex="00E6"/>
  <anchor x="406" y="0" name="bottom"/>
  <anchor x="408" y="500" name="top"/>
  <outline>
    <contour>
      <point x="557" y="23" type="curve" smooth="yes"/>
      <point x="441" y="23"/>
      <point x="405" y="98"/>
      <point x="405" y="236" type="curve"/>
      <point x="760" y="236" type="line"/>
      <point x="760" y="269" type="line" smooth="yes"/>
      <point x="760" y="442"/>
      <point x="696" y="510"/>
      <point x="570" y="510" type="curve" smooth="yes"/>
      <point x="496" y="510"/>
      <point x="434" y="484"/>
      <point x="399" y="413" type="curve"/>
      <point x="382" y="477"/>
      <point x="337" y="510"/>
      <point x="247" y="510" type="curve" smooth="yes"/>
      <point x="179" y="510"/>
      <point x="67" y="491"/>
      <point x="67" y="491" type="curve"/>
      <point x="70" y="458" type="line"/>
      <point x="70" y="458"/>
      <point x="182" y="476"/>
      <point x="249" y="476" type="curve" smooth="yes"/>
      <point x="328" y="476"/>
      <point x="370" y="445"/>
      <point x="370" y="353" type="curve" smooth="yes"/>
      <point x="370" y="301" type="line"/>
      <point x="207" y="284" type="line" smooth="yes"/>
      <point x="94" y="272"/>
      <point x="42" y="243"/>
      <point x="42" y="137" type="curve" smooth="yes"/>
      <point x="42" y="43"/>
      <point x="89" y="-10"/>
      <point x="193" y="-10" type="curve" smooth="yes"/>
      <point x="268" y="-10"/>
      <point x="375" y="33"/>
      <point x="375" y="33" type="curve"/>
      <point x="413" y="49" type="line"/>
      <point x="441" y="13"/>
      <point x="487" y="-9"/>
      <point x="556" y="-9" type="curve" smooth="yes"/>
      <point x="629" y="-9"/>
      <point x="741" y="0"/>
      <point x="741" y="0" type="curve"/>
      <point x="739" y="32" type="line"/>
      <point x="739" y="32"/>
      <point x="627" y="23"/>
    </contour>
    <contour>
      <point x="185" y="22" type="curve" smooth="yes"/>
      <point x="119" y="22"/>
      <point x="79" y="61"/>
      <point x="79" y="137" type="curve" smooth="yes"/>
      <point x="79" y="209"/>
      <point x="110" y="243"/>
      <point x="184" y="250" type="curve" smooth="yes"/>
      <point x="368" y="268" type="line"/>
      <point x="368" y="186"/>
      <point x="374" y="121"/>
      <point x="398" y="74" type="curve"/>
      <point x="381" y="67"/>
      <point x="268" y="22"/>
    </contour>
    <contour>
      <point x="723" y="268" type="curve"/>
      <point x="405" y="268" type="line"/>
      <point x="405" y="419"/>
      <point x="466" y="478"/>
      <point x="570" y="478" type="curve" smooth="yes"/>
      <point x="677" y="478"/>
      <point x="723" y="421"/>
    </contour>
  </outline>
</glyph>
<glyph name="eth" format="2">
	<advance width="548"/>
	<unicode hex="00F0"/>
	<outline>
		<contour>
			<point x="141" y="584" type="line"/>
			<point x="161" y="557" type="line"/>
			<point x="280" y="637" type="line"/>
			<point x="395" y="567"/>
			<point x="444" y="474"/>
			<point x="447" y="381" type="curve"/>
			<point x="447" y="381"/>
			<point x="336" y="425"/>
			<point x="258" y="425" type="curve" smooth="yes"/>
			<point x="132" y="425"/>
			<point x="54" y="340"/>
			<point x="54" y="206" type="curve" smooth="yes"/>
			<point x="54" y="71"/>
			<point x="136" y="-9"/>
			<point x="273" y="-9" type="curve" smooth="yes"/>
			<point x="421" y="-9"/>
			<point x="484" y="84"/>
			<point x="484" y="355" type="curve" smooth="yes"/>
			<point x="484" y="484"/>
			<point x="425" y="585"/>
			<point x="312" y="658" type="curve"/>
			<point x="401" y="719" type="line"/>
			<point x="381" y="746" type="line"/>
			<point x="279" y="677" type="line"/>
			<point x="235" y="702"/>
			<point x="184" y="723"/>
			<point x="127" y="740" type="curve"/>
			<point x="114" y="709" type="line"/>
			<point x="165" y="694"/>
			<point x="209" y="676"/>
			<point x="247" y="656" type="curve"/>
		</contour>
		<contour>
			<point x="260" y="391" type="curve" smooth="yes"/>
			<point x="332" y="391"/>
			<point x="448" y="346"/>
			<point x="448" y="346" type="curve"/>
			<point x="446" y="99"/>
			<point x="399" y="25"/>
			<point x="273" y="25" type="curve" smooth="yes"/>
			<point x="154" y="25"/>
			<point x="90" y="92"/>
			<point x="90" y="206" type="curve" smooth="yes"/>
			<point x="90" y="318"/>
			<point x="153" y="391"/>
		</contour>
	</outline>
</glyph>
<glyph name="divide" format="2">
	<advance width="560"/>
	<unicode hex="00F7"/>
	<outline>
		<contour>
			<point x="79" y="274" type="line"/>
			<point x="481" y="274" type="line"/>
			<point x="481" y="308" type="line"/>
			<point x="79" y="308" type="line"/>
		</contour>
		<contour>
			<point x="257" y="169" type="line"/>
			<point x="257" y="89" type="line"/>
			<point x="303" y="89" type="line"/>
			<point x="303" y="169" type="line"/>
		</contour>
		<contour>
			<point x="257" y="493" type="line"/>
			<point x="257" y="413" type="line"/>
			<point x="303" y="413" type="line"/>
			<point x="303" y="493" type="line"/>
		</contour>
	</outline>
</glyph>
<glyph name="oslash" format="2">
	<advance width="518"/>
	<unicode hex="00F8"/>
	<anchor x="264" y="500" name="top"/>
	<outline>
		<contour>
			<point x="387" y="544" type="line"/>
			<point x="102" y="-30" type="line"/>
			<point x="131" y="-44" type="line"/>
			<point x="416" y="530" type="line"/>
		</contour>
		<component base="o"/>
	</outline>
</glyph>
<glyph name="idotless" format="2">
  <advance width="199"/>
  <unicode hex="0131"/>
  <anchor x="100" y="0" name="bottom"/>
  <anchor x="117" y="0" name="ogonek"/>
  <anchor x="100" y="500" name="top"/>
  <outline>
    <contour>
      <point x="82" y="500" type="line"/>
      <point x="82" y="0" type="line"/>
      <point x="117" y="0" type="line"/>
      <point x="117" y="500" type="line"/>
    </contour>
  </outline>
</glyph>
<glyph name="Eng" format="2">
  <advance width="669"/>
  <unicode hex="014A"/>
  <outline>
    <contour>
      <point x="94" y="700" type="line"/>
      <point x="94" y="0" type="line"/>
      <point x="130" y="0" type="line"/>
      <point x="130" y="666" type="line"/>
      <point x="156" y="666" type="line"/>
      <point x="490" y="0" type="line"/>
      <point x="539" y="0" type="line"/>
      <point x="539" y="-4" type="line" smooth="yes"/>
      <point x="539" y="-137"/>
      <point x="519" y="-139"/>
      <point x="402" y="-139" type="curve"/>
      <point x="402" y="-173" type="line"/>
      <point x="522" y="-173"/>
      <point x="575" y="-169"/>
      <point x="575" y="-19" type="curve" smooth="yes"/>
      <point x="575" y="700" type="line"/>
      <point x="539" y="700" type="line"/>
      <point x="539" y="34" type="line"/>
      <point x="512" y="34" type="line"/>
      <point x="179" y="700" type="line"/>
    </contour>
  </outline>
</glyph>
<glyph name="eng" format="2">
  <advance width="533"/>
  <unicode hex="014B"/>
  <outline>
    <contour>
      <point x="456" y="-10" type="curve" smooth="yes"/>
      <point x="456" y="40" type="line"/>
      <point x="421" y="40" type="line"/>
      <point x="421" y="-12" type="line" smooth="yes"/>
      <point x="421" y="-122"/>
      <point x="411" y="-139"/>
      <point x="304" y="-139" type="curve"/>
      <point x="304" y="-173" type="line"/>
      <point x="426" y="-173"/>
      <point x="456" y="-156"/>
    </contour>
    <component base="n"/>
  </outline>
</glyph>
<glyph name="OE" format="2">
  <advance width="939"/>
  <unicode hex="0152"/>
  <anchor x="527" y="0" name="bottom"/>
  <anchor x="527" y="700" name="top"/>
  <outline>
    <contour>
      <point x="492" y="-1" type="curve"/>
      <point x="890" y="-1" type="line"/>
      <point x="890" y="34" type="line"/>
      <point x="527" y="34" type="line"/>
      <point x="527" y="341" type="line"/>
      <point x="830" y="341" type="line"/>
      <point x="830" y="375" type="line"/>
      <point x="527" y="375" type="line"/>
      <point x="527" y="666" type="line"/>
      <point x="890" y="666" type="line"/>
      <point x="890" y="700" type="line"/>
      <point x="491" y="700" type="line"/>
      <point x="491" y="700"/>
      <point x="376" y="709"/>
      <point x="323" y="709" type="curve" smooth="yes"/>
      <point x="105" y="709"/>
      <point x="66" y="575"/>
      <point x="66" y="345" type="curve" smooth="yes"/>
      <point x="66" y="115"/>
      <point x="108" y="-9"/>
      <point x="324" y="-9" type="curve" smooth="yes"/>
      <point x="361" y="-9"/>
      <point x="492" y="-1"/>
    </contour>
    <contour>
      <point x="324" y="25" type="curve" smooth="yes"/>
      <point x="131" y="25"/>
      <point x="104" y="137"/>
      <point x="104" y="347" type="curve" smooth="yes"/>
      <point x="104" y="556"/>
      <point x="129" y="675"/>
      <point x="336" y="675" type="curve" smooth="yes"/>
      <point x="374" y="675"/>
      <point x="491" y="666"/>
      <point x="491" y="666" type="curve"/>
      <point x="491" y="34" type="line"/>
      <point x="491" y="34"/>
      <point x="356" y="25"/>
    </contour>
  </outline>
</glyph>
<glyph name="oe" format="2">
	<advance width="867"/>
	<unicode hex="0153"/>
	<anchor x="442" y="0" name="bottom"/>
	<anchor x="445" y="500" name="top"/>
	<outline>
		<contour>
			<point x="614" y="23" type="curve" smooth="yes"/>
			<point x="498" y="23"/>
			<point x="462" y="93"/>
			<point x="462" y="236" type="curve"/>
			<point x="817" y="236" type="line"/>
			<point x="817" y="269" type="line" smooth="yes"/>
			<point x="817" y="442"/>
			<point x="755" y="510"/>
			<point x="627" y="510" type="curve" smooth="yes"/>
			<point x="538" y="510"/>
			<point x="478" y="477"/>
			<point x="445" y="387" type="curve"/>
			<point x="418" y="473"/>
			<point x="359" y="510"/>
			<point x="261" y="510" type="curve" smooth="yes"/>
			<point x="123" y="510"/>
			<point x="56" y="442"/>
			<point x="56" y="261" type="curve" smooth="yes"/>
			<point x="56" y="70"/>
			<point x="111" y="-10"/>
			<point x="261" y="-10" type="curve" smooth="yes"/>
			<point x="357" y="-10"/>
			<point x="417" y="30"/>
			<point x="442" y="103" type="curve"/>
			<point x="465" y="33"/>
			<point x="519" y="-9"/>
			<point x="613" y="-9" type="curve" smooth="yes"/>
			<point x="686" y="-9"/>
			<point x="798" y="0"/>
			<point x="798" y="0" type="curve"/>
			<point x="796" y="32" type="line"/>
			<point x="796" y="32"/>
			<point x="684" y="23"/>
		</contour>
		<contour>
			<point x="261" y="22" type="curve" smooth="yes"/>
			<point x="130" y="22"/>
			<point x="93" y="99"/>
			<point x="93" y="261" type="curve" smooth="yes"/>
			<point x="93" y="427"/>
			<point x="145" y="478"/>
			<point x="261" y="478" type="curve" smooth="yes"/>
			<point x="374" y="478"/>
			<point x="425" y="426"/>
			<point x="425" y="259" type="curve" smooth="yes"/>
			<point x="425" y="100"/>
			<point x="386" y="22"/>
		</contour>
		<contour>
			<point x="780" y="268" type="curve"/>
			<point x="462" y="268" type="line"/>
			<point x="462" y="419"/>
			<point x="523" y="478"/>
			<point x="627" y="478" type="curve" smooth="yes"/>
			<point x="736" y="478"/>
			<point x="780" y="421"/>
		</contour>
	</outline>
</glyph>
<glyph name="Schwa" format="2">
  <advance width="648"/>
  <unicode hex="018F"/>
  <outline>
    <contour>
      <point x="322" y="675" type="curve" smooth="yes"/>
      <point x="494" y="675"/>
      <point x="545" y="601"/>
      <point x="545" y="350" type="curve"/>
      <point x="55" y="350" type="line"/>
      <point x="55" y="315" type="line" smooth="yes"/>
      <point x="55" y="82"/>
      <point x="135" y="-10"/>
      <point x="327" y="-10" type="curve" smooth="yes"/>
      <point x="515" y="-10"/>
      <point x="583" y="78"/>
      <point x="583" y="347" type="curve" smooth="yes"/>
      <point x="583" y="620"/>
      <point x="516" y="709"/>
      <point x="331" y="710" type="curve" smooth="yes"/>
      <point x="223" y="711"/>
      <point x="81" y="682"/>
      <point x="81" y="682" type="curve"/>
      <point x="83" y="645" type="line"/>
      <point x="83" y="645"/>
      <point x="214" y="675"/>
    </contour>
    <contour>
      <point x="93" y="316" type="curve"/>
      <point x="545" y="316" type="line"/>
      <point x="545" y="105"/>
      <point x="494" y="24"/>
      <point x="326" y="24" type="curve" smooth="yes"/>
      <point x="158" y="24"/>
      <point x="93" y="107"/>
    </contour>
  </outline>
</glyph>
<glyph name="Eopen" format="2">
  <advance width="545"/>
  <unicode hex="0190"/>
  <outline>
    <contour>
      <point x="496" y="686" type="line"/>
      <point x="496" y="686"/>
      <point x="395" y="710"/>
      <point x="289" y="710" type="curve" smooth="yes"/>
      <point x="136" y="710"/>
      <point x="81" y="642"/>
      <point x="81" y="539" type="curve" smooth="yes"/>
      <point x="81" y="398"/>
      <point x="201" y="371"/>
      <point x="202" y="371" type="curve"/>
      <point x="130" y="356"/>
      <point x="61" y="320"/>
      <point x="61" y="194" type="curve" smooth="yes"/>
      <point x="61" y="57"/>
      <point x="130" y="-10"/>
      <point x="280" y="-10" type="curve" smooth="yes"/>
      <point x="394" y="-10"/>
      <point x="510" y="15"/>
      <point x="510" y="15" type="curve"/>
      <point x="504" y="52" type="line"/>
      <point x="504" y="52"/>
      <point x="392" y="26"/>
      <point x="280" y="26" type="curve" smooth="yes"/>
      <point x="155" y="27"/>
      <point x="99" y="83"/>
      <point x="99" y="191" type="curve" smooth="yes"/>
      <point x="99" y="317"/>
      <point x="179" y="349"/>
      <point x="271" y="354" type="curve"/>
      <point x="413" y="354" type="line"/>
      <point x="413" y="388" type="line"/>
      <point x="272" y="388" type="line" smooth="yes"/>
      <point x="215" y="388"/>
      <point x="119" y="420"/>
      <point x="119" y="540" type="curve" smooth="yes"/>
      <point x="119" y="623"/>
      <point x="163" y="674"/>
      <point x="288" y="674" type="curve" smooth="yes"/>
      <point x="393" y="674"/>
      <point x="490" y="650"/>
      <point x="490" y="650" type="curve"/>
    </contour>
  </outline>
</glyph>
<glyph name="florin" format="2">
	<advance width="451"/>
	<unicode hex="0192"/>
	<outline>
		<contour>
			<point x="234" y="-61" type="curve" smooth="yes"/>
			<point x="234" y="349" type="line"/>
			<point x="396" y="349" type="line"/>
			<point x="396" y="381" type="line"/>
			<point x="234" y="381" type="line"/>
			<point x="234" y="491" type="line" smooth="yes"/>
			<point x="234" y="601"/>
			<point x="259" y="637"/>
			<point x="333" y="637" type="curve" smooth="yes"/>
			<point x="371" y="637"/>
			<point x="417" y="632"/>
			<point x="417" y="632" type="curve"/>
			<point x="419" y="664" type="line"/>
			<point x="419" y="664"/>
			<point x="371" y="670"/>
			<point x="333" y="670" type="curve" smooth="yes"/>
			<point x="236" y="670"/>
			<point x="199" y="615"/>
			<point x="199" y="491" type="curve" smooth="yes"/>
			<point x="199" y="381" type="line"/>
			<point x="130" y="381" type="line"/>
			<point x="130" y="349" type="line"/>
			<point x="199" y="349" type="line"/>
			<point x="199" y="-61" type="line" smooth="yes"/>
			<point x="199" y="-171"/>
			<point x="174" y="-207"/>
			<point x="107" y="-207" type="curve" smooth="yes"/>
			<point x="75" y="-207"/>
			<point x="17" y="-202"/>
			<point x="17" y="-202" type="curve"/>
			<point x="15" y="-235" type="line"/>
			<point x="15" y="-235"/>
			<point x="72" y="-240"/>
			<point x="107" y="-240" type="curve" smooth="yes"/>
			<point x="198" y="-240"/>
			<point x="234" y="-195"/>
		</contour>
	</outline>
</glyph>
<glyph name="Nhookleft" format="2">
  <advance width="669"/>
  <unicode hex="019D"/>
  <outline>
    <contour>
      <point x="130" y="-10" type="curve" smooth="yes"/>
      <point x="130" y="600" type="line"/>
      <point x="94" y="600" type="line"/>
      <point x="94" y="-12" type="line" smooth="yes"/>
      <point x="94" y="-122"/>
      <point x="84" y="-139"/>
      <point x="-43" y="-139" type="curve"/>
      <point x="-43" y="-173" type="line"/>
      <point x="99" y="-173"/>
      <point x="130" y="-156"/>
    </contour>
    <component base="N"/>
  </outline>
</glyph>
<glyph name="jdotless" format="2">
  <advance width="199"/>
  <unicode hex="0237"/>
  <anchor x="99" y="-230" name="bottom"/>
  <anchor x="99" y="500" name="top"/>
  <outline>
    <contour>
      <point x="82" y="500" type="line"/>
      <point x="82" y="-16" type="line" smooth="yes"/>
      <point x="82" y="-120"/>
      <point x="58" y="-147"/>
      <point x="-56" y="-209" type="curve"/>
      <point x="-42" y="-240" type="line"/>
      <point x="87" y="-174"/>
      <point x="117" y="-129"/>
      <point x="117" y="-17" type="curve" smooth="yes"/>
      <point x="117" y="500" type="line"/>
    </contour>
  </outline>
</glyph>
<glyph name="eopen" format="2">
  <advance width="459"/>
  <unicode hex="025B"/>
  <outline>
    <contour>
      <point x="412" y="493" type="line"/>
      <point x="412" y="493"/>
      <point x="328" y="510"/>
      <point x="247" y="510" type="curve" smooth="yes"/>
      <point x="100" y="510"/>
      <point x="70" y="453"/>
      <point x="70" y="379" type="curve" smooth="yes"/>
      <point x="70" y="277"/>
      <point x="157" y="267"/>
      <point x="158" y="267" type="curve"/>
      <point x="114" y="257"/>
      <point x="55" y="230"/>
      <point x="55" y="139" type="curve" smooth="yes"/>
      <point x="55" y="39"/>
      <point x="105" y="-10"/>
      <point x="244" y="-10" type="curve" smooth="yes"/>
      <point x="338" y="-10"/>
      <point x="422" y="8"/>
      <point x="422" y="8" type="curve"/>
      <point x="418" y="41" type="line"/>
      <point x="418" y="41"/>
      <point x="335" y="21"/>
      <point x="243" y="22" type="curve" smooth="yes"/>
      <point x="131" y="23"/>
      <point x="92" y="64"/>
      <point x="92" y="136" type="curve" smooth="yes"/>
      <point x="92" y="228"/>
      <point x="150" y="252"/>
      <point x="238" y="252" type="curve" smooth="yes"/>
      <point x="351" y="252" type="line"/>
      <point x="351" y="282" type="line"/>
      <point x="239" y="282" type="line" smooth="yes"/>
      <point x="167" y="282"/>
      <point x="106" y="291"/>
      <point x="106" y="380" type="curve" smooth="yes"/>
      <point x="106" y="433"/>
      <point x="128" y="478"/>
      <point x="246" y="478" type="curve" smooth="yes"/>
      <point x="327" y="478"/>
      <point x="407" y="461"/>
      <point x="407" y="461" type="curve"/>
    </contour>
  </outline>
</glyph>
<glyph name="nhookleft" format="2">
  <advance width="533"/>
  <unicode hex="0272"/>
  <outline>
    <contour>
      <point x="117" y="-10" type="curve" smooth="yes"/>
      <point x="117" y="40" type="line"/>
      <point x="82" y="40" type="line"/>
      <point x="82" y="-12" type="line" smooth="yes"/>
      <point x="82" y="-122"/>
      <point x="72" y="-139"/>
      <point x="-35" y="-139" type="curve"/>
      <point x="-35" y="-173" type="line"/>
      <point x="87" y="-173"/>
      <point x="117" y="-156"/>
    </contour>
    <component base="n"/>
  </outline>
</glyph>
<glyph name="ubar" format="2">
  <advance width="563"/>
  <unicode hex="0289"/>
  <outline>
    <contour>
      <point x="24" y="287" type="line"/>
      <point x="24" y="255" type="line"/>
      <point x="537" y="255" type="line"/>
      <point x="537" y="287" type="line"/>
    </contour>
    <component base="u" xOffset="22"/>
  </outline>
</glyph>
<glyph name="gravecomb" format="2">
	<advance width="306"/>
	<unicode hex="0300"/>
	<anchor x="153" y="500" name="_top"/>
	<anchor x="153" y="732" name="top"/>
	<outline>
		<contour>
			<point x="256" y="636" type="line"/>
			<point x="65" y="732" type="line"/>
			<point x="50" y="701" type="line"/>
			<point x="243" y="609" type="line"/>
		</contour>
	</outline>
</glyph>
<glyph name="circumflexcomb" format="2">
	<advance width="372"/>
	<unicode hex="0302"/>
	<anchor x="186" y="500" name="_top"/>
	<anchor x="186" y="732" name="top"/>
	<outline>
		<contour>
			<point x="186" y="698" type="line"/>
			<point x="279" y="613" type="line"/>
			<point x="322" y="613" type="line"/>
			<point x="203" y="728" type="line"/>
			<point x="169" y="728" type="line"/>
			<point x="50" y="613" type="line"/>
			<point x="93" y="613" type="line"/>
		</contour>
	</outline>
</glyph>
<glyph name="macroncomb" format="2">
	<advance width="367"/>
	<unicode hex="0304"/>
	<anchor x="184" y="500" name="_top"/>
	<anchor x="184" y="674" name="top"/>
	<outline>
		<contour>
			<point x="50" y="674" type="line"/>
			<point x="50" y="642" type="line"/>
			<point x="317" y="642" type="line"/>
			<point x="317" y="674" type="line"/>
		</contour>
	</outline>
</glyph>
<glyph name="brevecomb" format="2">
  <advance width="366"/>
  <unicode hex="0306"/>
  <anchor x="183" y="500" name="_top"/>
  <anchor x="183" y="732" name="top"/>
  <outline>
    <contour>
      <point x="85" y="732" type="curve"/>
      <point x="50" y="732" type="line"/>
      <point x="55" y="663"/>
      <point x="104" y="609"/>
      <point x="183" y="609" type="curve" smooth="yes"/>
      <point x="262" y="609"/>
      <point x="311" y="663"/>
      <point x="316" y="732" type="curve"/>
      <point x="281" y="732" type="line"/>
      <point x="276" y="682"/>
      <point x="243" y="641"/>
      <point x="183" y="641" type="curve" smooth="yes"/>
      <point x="123" y="641"/>
      <point x="90" y="682"/>
    </contour>
  </outline>
</glyph>
<glyph name="dotaccentcomb" format="2">
  <advance width="138"/>
  <unicode hex="0307"/>
  <anchor x="69" y="500" name="_top"/>
  <anchor x="69" y="703" name="top"/>
  <outline>
    <contour>
      <point x="50" y="703" type="line"/>
      <point x="50" y="642" type="line"/>
      <point x="88" y="642" type="line"/>
      <point x="88" y="703" type="line"/>
    </contour>
  </outline>
</glyph>
<glyph name="dieresiscomb" format="2">
	<advance width="325"/>
	<unicode hex="0308"/>
	<anchor x="163" y="500" name="_top"/>
	<anchor x="163" y="700" name="top"/>
	<outline>
		<contour>
			<point x="50" y="700" type="line"/>
			<point x="50" y="642" type="line"/>
			<point x="88" y="642" type="line"/>
			<point x="88" y="700" type="line"/>
		</contour>
		<contour>
			<point x="237" y="700" type="line"/>
			<point x="237" y="642" type="line"/>
			<point x="275" y="642" type="line"/>
			<point x="275" y="700" type="line"/>
		</contour>
	</outline>
</glyph>
<glyph name="ringcomb" format="2">
  <advance width="291"/>
  <unicode hex="030A"/>
  <anchor x="145" y="500" name="_top"/>
  <anchor x="145" y="745" name="top"/>
  <outline>
    <contour>
      <point x="50" y="650" type="curve" smooth="yes"/>
      <point x="50" y="597"/>
      <point x="92" y="555"/>
      <point x="146" y="555" type="curve" smooth="yes"/>
      <point x="200" y="555"/>
      <point x="241" y="597"/>
      <point x="241" y="650" type="curve" smooth="yes"/>
      <point x="241" y="704"/>
      <point x="200" y="745"/>
      <point x="146" y="745" type="curve" smooth="yes"/>
      <point x="92" y="745"/>
      <point x="50" y="704"/>
    </contour>
    <contour>
      <point x="84" y="650" type="curve" smooth="yes"/>
      <point x="84" y="687"/>
      <point x="111" y="713"/>
      <point x="146" y="713" type="curve" smooth="yes"/>
      <point x="181" y="713"/>
      <point x="208" y="687"/>
      <point x="208" y="650" type="curve" smooth="yes"/>
      <point x="208" y="614"/>
      <point x="181" y="586"/>
      <point x="146" y="586" type="curve" smooth="yes"/>
      <point x="111" y="586"/>
      <point x="84" y="614"/>
    </contour>
  </outline>
</glyph>
<glyph name="hungarumlautcomb" format="2">
	<advance width="409"/>
	<unicode hex="030B"/>
	<anchor x="205" y="500" name="_top"/>
	<anchor x="205" y="732" name="top"/>
	<outline>
		<contour>
			<point x="50" y="634" type="line"/>
			<point x="66" y="609" type="line"/>
			<point x="209" y="701" type="line"/>
			<point x="189" y="732" type="line"/>
		</contour>
		<contour>
			<point x="200" y="634" type="line"/>
			<point x="216" y="609" type="line"/>
			<point x="359" y="701" type="line"/>
			<point x="339" y="732" type="line"/>
		</contour>
	</outline>
</glyph>
<glyph name="commaabovecomb" format="2">
	<advance width="205"/>
	<unicode hex="0313"/>
	<anchor x="103" y="500" name="_top"/>
	<anchor x="103" y="732" name="top"/>
	<outline>
		<contour>
			<point x="128" y="732" type="line"/>
			<point x="50" y="624" type="line"/>
			<point x="69" y="609" type="line"/>
			<point x="155" y="711" type="line"/>
		</contour>
	</outline>
</glyph>
<glyph name="dotbelowcomb" format="2">
  <advance width="138"/>
  <unicode hex="0323"/>
  <anchor x="69" y="0" name="_bottom"/>
  <anchor x="69" y="-165" name="bottom"/>
  <outline>
    <contour>
      <point x="50" y="-104" type="line"/>
      <point x="50" y="-165" type="line"/>
      <point x="88" y="-165" type="line"/>
      <point x="88" y="-104" type="line"/>
    </contour>
  </outline>
</glyph>
<glyph name="commaaccentcomb" format="2">
	<advance width="205"/>
	<unicode hex="0326"/>
	<anchor x="127" y="0" name="_bottom"/>
	<anchor x="84" y="-238" name="bottom"/>
	<outline>
		<contour>
			<point x="128" y="-99" type="line"/>
			<point x="45" y="-236" type="line"/>
			<point x="66" y="-251" type="line"/>
			<point x="157" y="-121" type="line"/>
		</contour>
	</outline>
</glyph>
<glyph name="cedillacomb" format="2">
  <advance width="263"/>
  <unicode hex="0327"/>
  <anchor x="107" y="0" name="_bottom"/>
  <anchor x="131" y="-201" name="bottom"/>
  <outline>
    <contour>
      <point x="213" y="-127" type="curve" smooth="yes"/>
      <point x="213" y="-71"/>
      <point x="180" y="-57"/>
      <point x="113" y="-57" type="curve"/>
      <point x="121" y="1" type="line"/>
      <point x="94" y="1" type="line"/>
      <point x="83" y="-85" type="line"/>
      <point x="134" y="-85" type="line" smooth="yes"/>
      <point x="159" y="-85"/>
      <point x="178" y="-96"/>
      <point x="178" y="-127" type="curve" smooth="yes"/>
      <point x="178" y="-162"/>
      <point x="159" y="-173"/>
      <point x="130" y="-173" type="curve" smooth="yes"/>
      <point x="96" y="-173"/>
      <point x="52" y="-169"/>
      <point x="52" y="-169" type="curve"/>
      <point x="50" y="-197" type="line"/>
      <point x="50" y="-197"/>
      <point x="87" y="-201"/>
      <point x="131" y="-201" type="curve" smooth="yes"/>
      <point x="179" y="-201"/>
      <point x="213" y="-180"/>
    </contour>
  </outline>
</glyph>
<glyph name="ogonekcomb" format="2">
  <advance width="244"/>
  <unicode hex="0328"/>
  <anchor x="168" y="0" name="_ogonek"/>
  <outline>
    <contour>
      <point x="168" y="0" type="curve"/>
      <point x="138" y="6" type="line"/>
      <point x="138" y="6"/>
      <point x="50" y="-74"/>
      <point x="50" y="-118" type="curve" smooth="yes"/>
      <point x="50" y="-169"/>
      <point x="84" y="-200"/>
      <point x="130" y="-200" type="curve" smooth="yes"/>
      <point x="158" y="-200"/>
      <point x="194" y="-192"/>
      <point x="194" y="-192" type="curve"/>
      <point x="190" y="-159" type="line"/>
      <point x="190" y="-159"/>
      <point x="153" y="-166"/>
      <point x="134" y="-166" type="curve" smooth="yes"/>
      <point x="106" y="-166"/>
      <point x="87" y="-143"/>
      <point x="87" y="-116" type="curve" smooth="yes"/>
      <point x="87" y="-84"/>
      <point x="168" y="0"/>
    </contour>
  </outline>
</glyph>
<glyph name="strokeshortcomb" format="2">
  <advance width="326"/>
  <unicode hex="0335"/>
  <anchor x="212" y="615" name="_stroke"/>
  <outline>
    <contour>
      <point x="0" y="630" type="line"/>
      <point x="0" y="598" type="line"/>
      <point x="326" y="598" type="line"/>
      <point x="326" y="630" type="line"/>
    </contour>
  </outline>
</glyph>
<glyph name="slashshortcomb" format="2">
	<advance width="323"/>
	<unicode hex="0337"/>
	<anchor x="162" y="267" name="_center"/>
	<outline>
		<contour>
			<point x="295" y="565" type="line"/>
			<point x="0" y="-20" type="line"/>
			<point x="27" y="-32" type="line"/>
			<point x="323" y="552" type="line"/>
		</contour>
	</outline>
</glyph>
<glyph name="slashlongcomb" format="2">
	<advance width="414"/>
	<unicode hex="0338"/>
	<anchor x="207" y="361" name="_center"/>
	<outline>
		<contour>
			<point x="385" y="755" type="line"/>
			<point x="0" y="-20" type="line"/>
			<point x="29" y="-34" type="line"/>
			<point x="414" y="741" type="line"/>
		</contour>
	</outline>
</glyph>
<glyph name="Omega" format="2">
	<advance width="564"/>
	<unicode hex="03A9"/>
	<outline>
		<contour>
			<point x="282" y="636" type="curve" smooth="yes"/>
			<point x="432" y="636"/>
			<point x="452" y="540"/>
			<point x="452" y="360" type="curve" smooth="yes"/>
			<point x="452" y="252"/>
			<point x="331" y="29"/>
			<point x="331" y="29" type="curve"/>
			<point x="331" y="0" type="line"/>
			<point x="520" y="0" type="line"/>
			<point x="520" y="34" type="line"/>
			<point x="369" y="34" type="line"/>
			<point x="369" y="34"/>
			<point x="490" y="242"/>
			<point x="490" y="370" type="curve" smooth="yes"/>
			<point x="490" y="564"/>
			<point x="454" y="670"/>
			<point x="282" y="670" type="curve" smooth="yes"/>
			<point x="110" y="670"/>
			<point x="74" y="564"/>
			<point x="74" y="370" type="curve" smooth="yes"/>
			<point x="74" y="242"/>
			<point x="195" y="34"/>
			<point x="195" y="34" type="curve"/>
			<point x="44" y="34" type="line"/>
			<point x="44" y="0" type="line"/>
			<point x="233" y="0" type="line"/>
			<point x="233" y="29" type="line"/>
			<point x="233" y="29"/>
			<point x="112" y="252"/>
			<point x="112" y="360" type="curve" smooth="yes"/>
			<point x="112" y="540"/>
			<point x="132" y="636"/>
		</contour>
	</outline>
</glyph>
<glyph name="pi" format="2">
  <advance width="564"/>
  <unicode hex="03C0"/>
  <outline>
    <contour>
      <point x="383" y="468" type="line"/>
      <point x="383" y="154" type="line" smooth="yes"/>
      <point x="383" y="30"/>
      <point x="416" y="0"/>
      <point x="517" y="0" type="curve"/>
      <point x="517" y="32" type="line"/>
      <point x="440" y="32"/>
      <point x="418" y="51"/>
      <point x="418" y="154" type="curve" smooth="yes"/>
      <point x="418" y="469" type="line"/>
      <point x="498" y="471"/>
      <point x="529" y="484"/>
      <point x="529" y="484" type="curve"/>
      <point x="529" y="516" type="line"/>
      <point x="529" y="516"/>
      <point x="467" y="500"/>
      <point x="384" y="500" type="curve" smooth="yes"/>
      <point x="160" y="500" type="line" smooth="yes"/>
      <point x="79" y="500"/>
      <point x="23" y="487"/>
      <point x="23" y="487" type="curve"/>
      <point x="23" y="455" type="line"/>
      <point x="23" y="455"/>
      <point x="57" y="466"/>
      <point x="144" y="467" type="curve"/>
      <point x="114" y="0" type="line"/>
      <point x="150" y="0" type="line"/>
      <point x="179" y="468" type="line"/>
    </contour>
  </outline>
</glyph>
<glyph name="baht" format="2">
	<advance width="594"/>
	<unicode hex="0E3F"/>
	<outline>
		<contour>
			<point x="321" y="660" type="curve" smooth="yes"/>
			<point x="94" y="660" type="line"/>
			<point x="94" y="0" type="line"/>
			<point x="339" y="0" type="line" smooth="yes"/>
			<point x="457" y="0"/>
			<point x="540" y="45"/>
			<point x="540" y="177" type="curve" smooth="yes"/>
			<point x="540" y="290"/>
			<point x="478" y="324"/>
			<point x="420" y="340" type="curve"/>
			<point x="473" y="360"/>
			<point x="515" y="404"/>
			<point x="515" y="494" type="curve" smooth="yes"/>
			<point x="515" y="609"/>
			<point x="447" y="660"/>
		</contour>
		<contour>
			<point x="130" y="321" type="line"/>
			<point x="331" y="321" type="line" smooth="yes"/>
			<point x="426" y="321"/>
			<point x="502" y="291"/>
			<point x="502" y="177" type="curve" smooth="yes"/>
			<point x="502" y="69"/>
			<point x="435" y="34"/>
			<point x="339" y="34" type="curve" smooth="yes"/>
			<point x="130" y="34" type="line"/>
		</contour>
		<contour>
			<point x="130" y="626" type="line"/>
			<point x="321" y="626" type="line" smooth="yes"/>
			<point x="426" y="626"/>
			<point x="476" y="592"/>
			<point x="476" y="494" type="curve" smooth="yes"/>
			<point x="476" y="404"/>
			<point x="434" y="353"/>
			<point x="331" y="353" type="curve" smooth="yes"/>
			<point x="130" y="353" type="line"/>
		</contour>
		<contour>
			<point x="191" y="780" type="line"/>
			<point x="191" y="645" type="line"/>
			<point x="227" y="645" type="line"/>
			<point x="227" y="780" type="line"/>
		</contour>
		<contour>
			<point x="351" y="780" type="line"/>
			<point x="351" y="645" type="line"/>
			<point x="387" y="645" type="line"/>
			<point x="387" y="780" type="line"/>
		</contour>
		<contour>
			<point x="191" y="15" type="line"/>
			<point x="191" y="-120" type="line"/>
			<point x="227" y="-120" type="line"/>
			<point x="227" y="15" type="line"/>
		</contour>
		<contour>
			<point x="351" y="15" type="line"/>
			<point x="351" y="-120" type="line"/>
			<point x="387" y="-120" type="line"/>
			<point x="387" y="15" type="line"/>
		</contour>
	</outline>
</glyph>
<glyph name="endash" format="2">
  <advance width="612"/>
  <unicode hex="2013"/>
  <outline>
    <contour>
      <point x="56" y="308" type="line"/>
      <point x="56" y="274" type="line"/>
      <point x="556" y="274" type="line"/>
      <point x="556" y="308" type="line"/>
    </contour>
  </outline>
</glyph>
<glyph name="emdash" format="2">
  <advance width="1112"/>
  <unicode hex="2014"/>
  <outline>
    <contour>
      <point x="56" y="308" type="line"/>
      <point x="56" y="274" type="line"/>
      <point x="1056" y="274" type="line"/>
      <point x="1056" y="308" type="line"/>
    </contour>
  </outline>
</glyph>
<glyph name="dagger" format="2">
	<advance width="439"/>
	<unicode hex="2020"/>
	<outline>
		<contour>
			<point x="19" y="500" type="line"/>
			<point x="19" y="466" type="line"/>
			<point x="200" y="466" type="line"/>
			<point x="205" y="-230" type="line"/>
			<point x="234" y="-230" type="line"/>
			<point x="239" y="466" type="line"/>
			<point x="420" y="466" type="line"/>
			<point x="420" y="500" type="line"/>
			<point x="237" y="500" type="line"/>
			<point x="237" y="700" type="line"/>
			<point x="202" y="700" type="line"/>
			<point x="202" y="500" type="line"/>
		</contour>
	</outline>
</glyph>
<glyph name="daggerdbl" format="2">
	<advance width="511"/>
	<unicode hex="2021"/>
	<outline>
		<contour>
			<point x="55" y="500" type="line"/>
			<point x="55" y="466" type="line"/>
			<point x="238" y="466" type="line"/>
			<point x="238" y="4" type="line"/>
			<point x="55" y="4" type="line"/>
			<point x="55" y="-30" type="line"/>
			<point x="238" y="-30" type="line"/>
			<point x="238" y="-230" type="line"/>
			<point x="273" y="-230" type="line"/>
			<point x="273" y="-30" type="line"/>
			<point x="456" y="-30" type="line"/>
			<point x="456" y="4" type="line"/>
			<point x="273" y="4" type="line"/>
			<point x="273" y="466" type="line"/>
			<point x="456" y="466" type="line"/>
			<point x="456" y="500" type="line"/>
			<point x="273" y="500" type="line"/>
			<point x="273" y="700" type="line"/>
			<point x="238" y="700" type="line"/>
			<point x="238" y="500" type="line"/>
		</contour>
	</outline>
</glyph>
<glyph name="bullet" format="2">
	<advance width="440"/>
	<unicode hex="2022"/>
	<outline>
		<contour>
			<point x="95" y="431" type="line"/>
			<point x="95" y="151" type="line"/>
			<point x="345" y="151" type="line"/>
			<point x="345" y="431" type="line"/>
		</contour>
	</outline>
</glyph>
<glyph name="minute" format="2">
	<advance width="221"/>
	<unicode hex="2032"/>
	<outline>
		<contour>
			<point x="109" y="660" type="line"/>
			<point x="70" y="450" type="line"/>
			<point x="102" y="450" type="line"/>
			<point x="151" y="660" type="line"/>
		</contour>
	</outline>
</glyph>
<glyph name="second" format="2">
  <advance width="331"/>
  <unicode hex="2033"/>
  <outline>
    <contour>
      <point x="109" y="660" type="line"/>
      <point x="70" y="450" type="line"/>
      <point x="102" y="450" type="line"/>
      <point x="151" y="660" type="line"/>
    </contour>
    <contour>
      <point x="219" y="660" type="line"/>
      <point x="180" y="450" type="line"/>
      <point x="212" y="450" type="line"/>
      <point x="261" y="660" type="line"/>
    </contour>
  </outline>
</glyph>
<glyph name="guilsinglleft" format="2">
  <advance width="320"/>
  <unicode hex="2039"/>
  <outline>
    <contour>
      <point x="85" y="291" type="line"/>
      <point x="248" y="429" type="line"/>
      <point x="231" y="455" type="line"/>
      <point x="54" y="306" type="line"/>
      <point x="54" y="276" type="line"/>
      <point x="231" y="127" type="line"/>
      <point x="248" y="153" type="line"/>
    </contour>
  </outline>
</glyph>
<glyph name="fraction" format="2">
	<advance width="100"/>
	<unicode hex="2044"/>
	<outline>
		<contour>
			<point x="250" y="710" type="line"/>
			<point x="-180" y="9" type="line"/>
			<point x="-151" y="-10" type="line"/>
			<point x="280" y="692" type="line"/>
		</contour>
	</outline>
</glyph>
<glyph name="sheqel" format="2">
  <advance width="644"/>
  <unicode hex="20AA"/>
  <outline>
    <contour>
      <point x="115" y="660" type="line"/>
      <point x="115" y="625" type="line"/>
      <point x="187" y="625" type="line" smooth="yes"/>
      <point x="340" y="625"/>
      <point x="372" y="605"/>
      <point x="372" y="523" type="curve" smooth="yes"/>
      <point x="372" y="203" type="line"/>
      <point x="406" y="203" type="line"/>
      <point x="406" y="523" type="line" smooth="yes"/>
      <point x="406" y="624"/>
      <point x="368" y="660"/>
      <point x="191" y="660" type="curve"/>
    </contour>
    <contour>
      <point x="94" y="660" type="line"/>
      <point x="94" y="0" type="line"/>
      <point x="128" y="0" type="line"/>
      <point x="128" y="660" type="line"/>
    </contour>
    <contour>
      <point x="259" y="0" type="line"/>
      <point x="335" y="0" type="line"/>
      <point x="508" y="0"/>
      <point x="550" y="36"/>
      <point x="550" y="137" type="curve" smooth="yes"/>
      <point x="550" y="660" type="line"/>
      <point x="516" y="660" type="line"/>
      <point x="516" y="137" type="line" smooth="yes"/>
      <point x="516" y="55"/>
      <point x="480" y="35"/>
      <point x="331" y="35" type="curve" smooth="yes"/>
      <point x="259" y="35" type="line"/>
    </contour>
    <contour>
      <point x="272" y="0" type="line"/>
      <point x="272" y="457" type="line"/>
      <point x="238" y="457" type="line"/>
      <point x="238" y="0" type="line"/>
    </contour>
  </outline>
</glyph>
<glyph name="euro" format="2">
  <advance width="593"/>
  <unicode hex="20AC"/>
  <outline>
    <contour>
      <point x="59" y="427" type="line"/>
      <point x="59" y="393" type="line"/>
      <point x="123" y="393" type="line"/>
      <point x="122" y="372"/>
      <point x="122" y="350"/>
      <point x="122" y="328" type="curve" smooth="yes"/>
      <point x="122" y="312"/>
      <point x="122" y="295"/>
      <point x="122" y="279" type="curve"/>
      <point x="59" y="279" type="line"/>
      <point x="59" y="245" type="line"/>
      <point x="124" y="245" type="line"/>
      <point x="136" y="85"/>
      <point x="190" y="-8"/>
      <point x="357" y="-8" type="curve" smooth="yes"/>
      <point x="421" y="-8"/>
      <point x="485" y="1"/>
      <point x="532" y="10" type="curve"/>
      <point x="529" y="42" type="line"/>
      <point x="480" y="33"/>
      <point x="417" y="24"/>
      <point x="357" y="24" type="curve" smooth="yes"/>
      <point x="211" y="24"/>
      <point x="171" y="106"/>
      <point x="161" y="245" type="curve"/>
      <point x="481" y="245" type="line"/>
      <point x="481" y="279" type="line"/>
      <point x="158" y="279" type="line"/>
      <point x="157" y="294"/>
      <point x="157" y="311"/>
      <point x="157" y="328" type="curve" smooth="yes"/>
      <point x="157" y="350"/>
      <point x="157" y="372"/>
      <point x="159" y="393" type="curve"/>
      <point x="481" y="393" type="line"/>
      <point x="481" y="427" type="line"/>
      <point x="161" y="427" type="line"/>
      <point x="171" y="557"/>
      <point x="213" y="637"/>
      <point x="357" y="637" type="curve" smooth="yes"/>
      <point x="414" y="637"/>
      <point x="489" y="627"/>
      <point x="529" y="618" type="curve"/>
      <point x="532" y="651" type="line"/>
      <point x="489" y="660"/>
      <point x="423" y="669"/>
      <point x="357" y="669" type="curve" smooth="yes"/>
      <point x="190" y="669"/>
      <point x="138" y="575"/>
      <point x="125" y="427" type="curve"/>
    </contour>
  </outline>
</glyph>
<glyph name="hryvnia" format="2">
	<advance width="595"/>
	<unicode hex="20B4"/>
	<outline>
		<contour>
			<point x="467" y="419" type="line"/>
			<point x="474" y="439"/>
			<point x="478" y="462"/>
			<point x="478" y="499" type="curve" smooth="yes"/>
			<point x="478" y="629"/>
			<point x="398" y="670"/>
			<point x="286" y="670" type="curve" smooth="yes"/>
			<point x="201" y="670"/>
			<point x="123" y="654"/>
			<point x="123" y="654" type="curve"/>
			<point x="127" y="621" type="line"/>
			<point x="127" y="621"/>
			<point x="211" y="638"/>
			<point x="294" y="638" type="curve" smooth="yes"/>
			<point x="391" y="638"/>
			<point x="443" y="603"/>
			<point x="443" y="501" type="curve" smooth="yes"/>
			<point x="443" y="462"/>
			<point x="438" y="438"/>
			<point x="428" y="419" type="curve"/>
		</contour>
		<contour>
			<point x="526" y="435" type="line"/>
			<point x="67" y="435" type="line"/>
			<point x="67" y="401" type="line"/>
			<point x="526" y="401" type="line"/>
		</contour>
		<contour>
			<point x="526" y="260" type="line"/>
			<point x="67" y="260" type="line"/>
			<point x="67" y="226" type="line"/>
			<point x="526" y="226" type="line"/>
		</contour>
		<contour>
			<point x="124" y="245" type="line"/>
			<point x="121" y="229"/>
			<point x="119" y="211"/>
			<point x="119" y="190" type="curve" smooth="yes"/>
			<point x="119" y="52"/>
			<point x="191" y="-10"/>
			<point x="317" y="-10" type="curve" smooth="yes"/>
			<point x="378" y="-10"/>
			<point x="489" y="7"/>
			<point x="489" y="7" type="curve"/>
			<point x="485" y="40" type="line"/>
			<point x="485" y="40"/>
			<point x="374" y="22"/>
			<point x="317" y="22" type="curve" smooth="yes"/>
			<point x="214" y="22"/>
			<point x="155" y="74"/>
			<point x="155" y="190" type="curve" smooth="yes"/>
			<point x="155" y="211"/>
			<point x="157" y="229"/>
			<point x="162" y="245" type="curve"/>
		</contour>
	</outline>
</glyph>
<glyph name="rupeeIndian" format="2">
  <advance width="596"/>
  <unicode hex="20B9"/>
  <outline>
    <contour>
      <point x="65" y="660" type="line"/>
      <point x="65" y="628" type="line"/>
      <point x="269" y="628" type="line" smooth="yes"/>
      <point x="383" y="628"/>
      <point x="428" y="570"/>
      <point x="428" y="470" type="curve" smooth="yes"/>
      <point x="428" y="372"/>
      <point x="383" y="304"/>
      <point x="269" y="304" type="curve" smooth="yes"/>
      <point x="65" y="304" type="line"/>
      <point x="65" y="272" type="line"/>
      <point x="269" y="272" type="line" smooth="yes"/>
      <point x="405" y="272"/>
      <point x="464" y="349"/>
      <point x="464" y="470" type="curve" smooth="yes"/>
      <point x="464" y="593"/>
      <point x="405" y="660"/>
      <point x="269" y="660" type="curve" smooth="yes"/>
    </contour>
    <contour>
      <point x="544" y="482" type="line"/>
      <point x="65" y="482" type="line"/>
      <point x="65" y="450" type="line"/>
      <point x="544" y="450" type="line"/>
    </contour>
    <contour>
      <point x="544" y="660" type="line"/>
      <point x="65" y="660" type="line"/>
      <point x="65" y="628" type="line"/>
      <point x="544" y="628" type="line"/>
    </contour>
    <contour>
      <point x="482" y="0" type="line"/>
      <point x="110" y="277" type="line"/>
      <point x="65" y="272" type="line"/>
      <point x="426" y="0" type="line"/>
    </contour>
  </outline>
</glyph>
<glyph name="ruble" format="2">
	<advance width="632"/>
	<unicode hex="20BD"/>
	<outline>
		<contour>
			<point x="183" y="262" type="line"/>
			<point x="390" y="262" type="line" smooth="yes"/>
			<point x="526" y="262"/>
			<point x="585" y="339"/>
			<point x="585" y="465" type="curve" smooth="yes"/>
			<point x="585" y="593"/>
			<point x="526" y="660"/>
			<point x="390" y="660" type="curve" smooth="yes"/>
			<point x="149" y="660" type="line"/>
			<point x="149" y="0" type="line"/>
			<point x="183" y="0" type="line"/>
		</contour>
		<contour>
			<point x="390" y="294" type="curve" smooth="yes"/>
			<point x="183" y="294" type="line"/>
			<point x="183" y="628" type="line"/>
			<point x="390" y="628" type="line" smooth="yes"/>
			<point x="504" y="628"/>
			<point x="549" y="570"/>
			<point x="549" y="465" type="curve" smooth="yes"/>
			<point x="549" y="362"/>
			<point x="504" y="294"/>
		</contour>
		<contour>
			<point x="168" y="294" type="line"/>
			<point x="49" y="294" type="line"/>
			<point x="49" y="262" type="line"/>
			<point x="168" y="262" type="line"/>
		</contour>
		<contour>
			<point x="418" y="159" type="line"/>
			<point x="49" y="159" type="line"/>
			<point x="49" y="127" type="line"/>
			<point x="418" y="127" type="line"/>
		</contour>
	</outline>
</glyph>
<glyph name="trademark" format="2">
	<advance width="667"/>
	<unicode hex="2122"/>
	<outline>
		<contour>
			<point x="39" y="700" type="line"/>
			<point x="39" y="669" type="line"/>
			<point x="133" y="669" type="line"/>
			<point x="133" y="411" type="line"/>
			<point x="166" y="411" type="line"/>
			<point x="166" y="669" type="line"/>
			<point x="260" y="669" type="line"/>
			<point x="260" y="700" type="line"/>
		</contour>
		<contour>
			<point x="295" y="700" type="line"/>
			<point x="295" y="410" type="line"/>
			<point x="327" y="410" type="line"/>
			<point x="327" y="661" type="line"/>
			<point x="332" y="661" type="line"/>
			<point x="421" y="421" type="line"/>
			<point x="456" y="421" type="line"/>
			<point x="549" y="661" type="line"/>
			<point x="554" y="661" type="line"/>
			<point x="554" y="410" type="line"/>
			<point x="586" y="410" type="line"/>
			<point x="586" y="700" type="line"/>
			<point x="531" y="700" type="line"/>
			<point x="439" y="458" type="line"/>
			<point x="353" y="700" type="line"/>
		</contour>
	</outline>
</glyph>
<glyph name="upArrow" format="2">
  <advance width="516"/>
  <unicode hex="2191"/>
  <outline>
    <contour>
      <point x="258" y="710" type="line"/>
      <point x="18" y="470" type="line"/>
      <point x="41" y="447" type="line"/>
      <point x="264" y="671" type="line"/>
      <point x="252" y="671" type="line"/>
      <point x="475" y="447" type="line"/>
      <point x="498" y="470" type="line"/>
    </contour>
    <contour>
      <point x="274" y="678" type="line"/>
      <point x="242" y="678" type="line"/>
      <point x="240" y="520" type="line"/>
      <point x="240" y="0" type="line"/>
      <point x="276" y="0" type="line"/>
      <point x="276" y="520" type="line"/>
    </contour>
  </outline>
</glyph>
<glyph name="leftRightArrow" format="2">
  <advance width="836"/>
  <unicode hex="2194"/>
  <outline>
    <contour>
      <point x="783" y="352" type="line"/>
      <point x="543" y="592" type="line"/>
      <point x="520" y="569" type="line"/>
      <point x="720" y="370" type="line"/>
      <point x="418" y="369" type="line"/>
      <point x="116" y="370" type="line"/>
      <point x="316" y="569" type="line"/>
      <point x="293" y="592" type="line"/>
      <point x="53" y="352" type="line"/>
      <point x="293" y="112" type="line"/>
      <point x="316" y="135" type="line"/>
      <point x="116" y="334" type="line"/>
      <point x="418" y="335" type="line"/>
      <point x="720" y="334" type="line"/>
      <point x="520" y="135" type="line"/>
      <point x="543" y="112" type="line"/>
    </contour>
  </outline>
</glyph>
<glyph name="upDownArrow" format="2">
  <advance width="578"/>
  <unicode hex="2195"/>
  <outline>
    <contour>
      <point x="289" y="-13" type="line"/>
      <point x="529" y="227" type="line"/>
      <point x="506" y="250" type="line"/>
      <point x="307" y="50" type="line"/>
      <point x="306" y="352" type="line"/>
      <point x="307" y="654" type="line"/>
      <point x="506" y="454" type="line"/>
      <point x="529" y="477" type="line"/>
      <point x="289" y="717" type="line"/>
      <point x="49" y="477" type="line"/>
      <point x="72" y="454" type="line"/>
      <point x="271" y="654" type="line"/>
      <point x="272" y="352" type="line"/>
      <point x="271" y="50" type="line"/>
      <point x="72" y="250" type="line"/>
      <point x="49" y="227" type="line"/>
    </contour>
  </outline>
</glyph>
<glyph name="partialdiff" format="2">
  <advance width="578"/>
  <unicode hex="2202"/>
  <outline>
    <contour>
      <point x="192" y="706" type="curve"/>
      <point x="189" y="674" type="line"/>
      <point x="189" y="674"/>
      <point x="274" y="706"/>
      <point x="351" y="706" type="curve" smooth="yes"/>
      <point x="452" y="706"/>
      <point x="496" y="655"/>
      <point x="496" y="542" type="curve" smooth="yes"/>
      <point x="496" y="500"/>
      <point x="490" y="450"/>
      <point x="478" y="391" type="curve"/>
      <point x="478" y="391"/>
      <point x="384" y="425"/>
      <point x="284" y="425" type="curve" smooth="yes"/>
      <point x="127" y="425"/>
      <point x="30" y="338"/>
      <point x="30" y="188" type="curve" smooth="yes"/>
      <point x="30" y="57"/>
      <point x="103" y="-10"/>
      <point x="218" y="-10" type="curve" smooth="yes"/>
      <point x="383" y="-10"/>
      <point x="456" y="116"/>
      <point x="511" y="371" type="curve" smooth="yes"/>
      <point x="526" y="441"/>
      <point x="533" y="500"/>
      <point x="533" y="549" type="curve" smooth="yes"/>
      <point x="533" y="685"/>
      <point x="475" y="740"/>
      <point x="364" y="740" type="curve" smooth="yes"/>
      <point x="274" y="740"/>
      <point x="192" y="706"/>
    </contour>
    <contour>
      <point x="279" y="391" type="curve" smooth="yes"/>
      <point x="372" y="391"/>
      <point x="471" y="356"/>
      <point x="471" y="356" type="curve"/>
      <point x="423" y="139"/>
      <point x="361" y="24"/>
      <point x="225" y="24" type="curve" smooth="yes"/>
      <point x="126" y="24"/>
      <point x="67" y="81"/>
      <point x="67" y="194" type="curve" smooth="yes"/>
      <point x="67" y="328"/>
      <point x="150" y="391"/>
    </contour>
  </outline>
</glyph>
<glyph name="increment" format="2">
  <advance width="510"/>
  <unicode hex="2206"/>
  <outline>
    <contour>
      <point x="217" y="660" type="line"/>
      <point x="35" y="26" type="line"/>
      <point x="35" y="0" type="line"/>
      <point x="476" y="0" type="line"/>
      <point x="475" y="26" type="line"/>
      <point x="293" y="660" type="line"/>
    </contour>
    <contour>
      <point x="242" y="626" type="line"/>
      <point x="267" y="626" type="line"/>
      <point x="434" y="34" type="line"/>
      <point x="75" y="34" type="line"/>
    </contour>
  </outline>
</glyph>
<glyph name="product" format="2">
  <advance width="580"/>
  <unicode hex="220F"/>
  <outline>
    <contour>
      <point x="424" y="716" type="line"/>
      <point x="424" y="-151" type="line"/>
      <point x="460" y="-151" type="line"/>
      <point x="460" y="716" type="line"/>
      <point x="560" y="716" type="line"/>
      <point x="560" y="750" type="line"/>
      <point x="20" y="750" type="line"/>
      <point x="20" y="716" type="line"/>
      <point x="120" y="716" type="line"/>
      <point x="120" y="-151" type="line"/>
      <point x="156" y="-151" type="line"/>
      <point x="156" y="716" type="line"/>
    </contour>
  </outline>
</glyph>
<glyph name="summation" format="2">
	<advance width="535"/>
	<unicode hex="2211"/>
	<outline>
		<contour>
			<point x="48" y="677" type="line"/>
			<point x="334" y="314" type="line"/>
			<point x="38" y="-76" type="line"/>
			<point x="38" y="-151" type="line"/>
			<point x="498" y="-151" type="line"/>
			<point x="498" y="-117" type="line"/>
			<point x="75" y="-117" type="line"/>
			<point x="75" y="-85" type="line"/>
			<point x="369" y="298" type="line"/>
			<point x="369" y="328" type="line"/>
			<point x="85" y="689" type="line"/>
			<point x="85" y="716" type="line"/>
			<point x="498" y="716" type="line"/>
			<point x="498" y="750" type="line"/>
			<point x="48" y="750" type="line"/>
		</contour>
	</outline>
</glyph>
<glyph name="minus" format="2">
	<advance width="560"/>
	<unicode hex="2212"/>
	<outline>
		<contour>
			<point x="79" y="274" type="line"/>
			<point x="481" y="274" type="line"/>
			<point x="481" y="308" type="line"/>
			<point x="79" y="308" type="line"/>
		</contour>
	</outline>
</glyph>
<glyph name="radical" format="2">
  <advance width="637"/>
  <unicode hex="221A"/>
  <outline>
    <contour>
      <point x="50" y="450" type="line"/>
      <point x="50" y="416" type="line"/>
      <point x="111" y="416" type="line"/>
      <point x="286" y="-151" type="line"/>
      <point x="347" y="-151" type="line"/>
      <point x="610" y="750" type="line"/>
      <point x="571" y="750" type="line"/>
      <point x="321" y="-119" type="line"/>
      <point x="313" y="-119" type="line"/>
      <point x="143" y="450" type="line"/>
    </contour>
  </outline>
</glyph>
<glyph name="infinity" format="2">
  <advance width="626"/>
  <unicode hex="221E"/>
  <outline>
    <contour>
      <point x="181" y="120" type="curve" smooth="yes"/>
      <point x="256" y="120"/>
      <point x="280" y="148"/>
      <point x="313" y="246" type="curve"/>
      <point x="341" y="172"/>
      <point x="372" y="120"/>
      <point x="445" y="120" type="curve" smooth="yes"/>
      <point x="525" y="120"/>
      <point x="561" y="186"/>
      <point x="561" y="291" type="curve" smooth="yes"/>
      <point x="561" y="396"/>
      <point x="525" y="462"/>
      <point x="447" y="462" type="curve" smooth="yes"/>
      <point x="372" y="462"/>
      <point x="341" y="410"/>
      <point x="313" y="335" type="curve"/>
      <point x="285" y="410"/>
      <point x="253" y="462"/>
      <point x="179" y="462" type="curve" smooth="yes"/>
      <point x="101" y="462"/>
      <point x="65" y="396"/>
      <point x="65" y="291" type="curve" smooth="yes"/>
      <point x="65" y="186"/>
      <point x="101" y="120"/>
    </contour>
    <contour>
      <point x="298" y="291" type="curve"/>
      <point x="265" y="200"/>
      <point x="254" y="155"/>
      <point x="180" y="155" type="curve" smooth="yes"/>
      <point x="125" y="155"/>
      <point x="103" y="213"/>
      <point x="103" y="291" type="curve" smooth="yes"/>
      <point x="103" y="379"/>
      <point x="124" y="427"/>
      <point x="180" y="427" type="curve" smooth="yes"/>
      <point x="254" y="427"/>
      <point x="271" y="354"/>
    </contour>
    <contour>
      <point x="328" y="291" type="curve"/>
      <point x="355" y="354"/>
      <point x="372" y="427"/>
      <point x="446" y="427" type="curve" smooth="yes"/>
      <point x="502" y="427"/>
      <point x="523" y="379"/>
      <point x="523" y="291" type="curve" smooth="yes"/>
      <point x="523" y="203"/>
      <point x="501" y="155"/>
      <point x="446" y="155" type="curve" smooth="yes"/>
      <point x="372" y="155"/>
      <point x="355" y="228"/>
    </contour>
  </outline>
</glyph>
<glyph name="integral" format="2">
  <advance width="414"/>
  <unicode hex="222B"/>
  <outline>
    <contour>
      <point x="224" y="18" type="curve" smooth="yes"/>
      <point x="224" y="545" type="line" smooth="yes"/>
      <point x="224" y="685"/>
      <point x="259" y="727"/>
      <point x="316" y="727" type="curve" smooth="yes"/>
      <point x="356" y="727"/>
      <point x="397" y="722"/>
      <point x="397" y="722" type="curve"/>
      <point x="399" y="754" type="line"/>
      <point x="399" y="754"/>
      <point x="361" y="760"/>
      <point x="316" y="760" type="curve" smooth="yes"/>
      <point x="236" y="760"/>
      <point x="189" y="708"/>
      <point x="189" y="545" type="curve" smooth="yes"/>
      <point x="189" y="18" type="line" smooth="yes"/>
      <point x="189" y="-92"/>
      <point x="164" y="-128"/>
      <point x="97" y="-128" type="curve" smooth="yes"/>
      <point x="65" y="-128"/>
      <point x="17" y="-123"/>
      <point x="17" y="-123" type="curve"/>
      <point x="15" y="-156" type="line"/>
      <point x="15" y="-156"/>
      <point x="62" y="-161"/>
      <point x="97" y="-161" type="curve" smooth="yes"/>
      <point x="188" y="-161"/>
      <point x="224" y="-116"/>
    </contour>
  </outline>
</glyph>
<glyph name="notequal" format="2">
	<advance width="560"/>
	<unicode hex="2260"/>
	<outline>
		<contour>
			<point x="366" y="557" type="line"/>
			<point x="165" y="35" type="line"/>
			<point x="194" y="25" type="line"/>
			<point x="395" y="547" type="line"/>
		</contour>
		<component base="equal"/>
	</outline>
</glyph>
<glyph name="greaterequal" format="2">
	<advance width="560"/>
	<unicode hex="2265"/>
	<outline>
		<contour>
			<point x="444" y="344" type="line"/>
			<point x="69" y="199" type="line"/>
			<point x="69" y="160" type="line"/>
			<point x="493" y="327" type="line"/>
			<point x="493" y="361" type="line"/>
			<point x="69" y="528" type="line"/>
			<point x="69" y="489" type="line"/>
		</contour>
		<contour>
			<point x="493" y="54" type="line"/>
			<point x="493" y="90" type="line"/>
			<point x="69" y="90" type="line"/>
			<point x="69" y="54" type="line"/>
		</contour>
	</outline>
</glyph>
<glyph name="lozenge" format="2">
	<advance width="548"/>
	<unicode hex="25CA"/>
	<outline>
		<contour>
			<point x="236" y="660" type="line"/>
			<point x="53" y="332" type="line"/>
			<point x="236" y="0" type="line"/>
			<point x="312" y="0" type="line"/>
			<point x="495" y="332" type="line"/>
			<point x="312" y="660" type="line"/>
		</contour>
		<contour>
			<point x="286" y="626" type="line"/>
			<point x="452" y="332" type="line"/>
			<point x="286" y="34" type="line"/>
			<point x="261" y="34" type="line"/>
			<point x="96" y="332" type="line"/>
			<point x="261" y="626" type="line"/>
		</contour>
	</outline>
</glyph>
<glyph name="whiteCircle" format="2">
  <advance width="909"/>
  <unicode hex="25CB"/>
  <outline>
    <contour>
      <point x="455" y="-40" type="curve" smooth="yes"/>
      <point x="680" y="-40"/>
      <point x="851" y="130"/>
      <point x="851" y="349" type="curve" smooth="yes"/>
      <point x="851" y="568"/>
      <point x="680" y="740"/>
      <point x="455" y="740" type="curve" smooth="yes"/>
      <point x="228" y="740"/>
      <point x="58" y="568"/>
      <point x="58" y="349" type="curve" smooth="yes"/>
      <point x="58" y="130"/>
      <point x="228" y="-40"/>
    </contour>
    <contour>
      <point x="455" y="-1" type="curve" smooth="yes"/>
      <point x="249" y="-1"/>
      <point x="98" y="151"/>
      <point x="98" y="349" type="curve" smooth="yes"/>
      <point x="98" y="547"/>
      <point x="249" y="701"/>
      <point x="455" y="701" type="curve" smooth="yes"/>
      <point x="659" y="701"/>
      <point x="811" y="547"/>
      <point x="811" y="349" type="curve" smooth="yes"/>
      <point x="811" y="151"/>
      <point x="659" y="-1"/>
    </contour>
  </outline>
</glyph>
<glyph name="dottedCircle" format="2">
  <advance width="896"/>
  <unicode hex="25CC"/>
  <outline>
    <contour>
      <point x="598" y="670" type="curve"/>
      <point x="613" y="706" type="line"/>
      <point x="568" y="726"/>
      <point x="518" y="738"/>
      <point x="465" y="740" type="curve"/>
      <point x="465" y="701" type="line"/>
      <point x="513" y="699"/>
      <point x="558" y="688"/>
    </contour>
    <contour>
      <point x="783" y="472" type="curve"/>
      <point x="819" y="488" type="line"/>
      <point x="801" y="537"/>
      <point x="773" y="582"/>
      <point x="738" y="619" type="curve"/>
      <point x="710" y="591" type="line"/>
      <point x="742" y="557"/>
      <point x="767" y="517"/>
    </contour>
    <contour>
      <point x="773" y="201" type="curve"/>
      <point x="809" y="185" type="line"/>
      <point x="830" y="231"/>
      <point x="842" y="282"/>
      <point x="844" y="336" type="curve"/>
      <point x="804" y="336" type="line"/>
      <point x="802" y="287"/>
      <point x="791" y="242"/>
    </contour>
    <contour>
      <point x="570" y="18" type="curve"/>
      <point x="585" y="-17" type="line"/>
      <point x="635" y="0"/>
      <point x="680" y="27"/>
      <point x="718" y="61" type="curve"/>
      <point x="690" y="88" type="line"/>
      <point x="656" y="57"/>
      <point x="615" y="34"/>
    </contour>
    <contour>
      <point x="299" y="28" type="curve"/>
      <point x="284" y="-8" type="line"/>
      <point x="329" y="-27"/>
      <point x="379" y="-38"/>
      <point x="433" y="-40" type="curve"/>
      <point x="434" y="-1" type="line"/>
      <point x="385" y="1"/>
      <point x="340" y="11"/>
    </contour>
    <contour>
      <point x="111" y="227" type="curve"/>
      <point x="75" y="213" type="line"/>
      <point x="93" y="162"/>
      <point x="121" y="118"/>
      <point x="157" y="80" type="curve"/>
      <point x="184" y="107" type="line"/>
      <point x="152" y="141"/>
      <point x="127" y="182"/>
    </contour>
    <contour>
      <point x="124" y="503" type="curve"/>
      <point x="88" y="518" type="line"/>
      <point x="66" y="472"/>
      <point x="53" y="420"/>
      <point x="51" y="366" type="curve"/>
      <point x="91" y="366" type="line"/>
      <point x="93" y="415"/>
      <point x="105" y="461"/>
    </contour>
    <contour>
      <point x="329" y="682" type="curve"/>
      <point x="314" y="719" type="line"/>
      <point x="264" y="702"/>
      <point x="218" y="675"/>
      <point x="180" y="641" type="curve"/>
      <point x="208" y="614" type="line"/>
      <point x="242" y="644"/>
      <point x="283" y="667"/>
    </contour>
  </outline>
</glyph>
<glyph name="blackCircle" format="2">
	<advance width="909"/>
	<unicode hex="25CF"/>
	<outline>
		<contour>
			<point x="455" y="-40" type="curve" smooth="yes"/>
			<point x="228" y="-40"/>
			<point x="58" y="130"/>
			<point x="58" y="349" type="curve" smooth="yes"/>
			<point x="58" y="568"/>
			<point x="228" y="740"/>
			<point x="455" y="740" type="curve" smooth="yes"/>
			<point x="680" y="740"/>
			<point x="851" y="568"/>
			<point x="851" y="349" type="curve" smooth="yes"/>
			<point x="851" y="130"/>
			<point x="680" y="-40"/>
		</contour>
	</outline>
</glyph>
<glyph name="A.ss06" format="2">
  <advance width="1222"/>
  <note>
A
</note>
  <outline>
    <contour>
      <point x="44" y="904" type="line"/>
      <point x="1178" y="904" type="line"/>
      <point x="1178" y="-230" type="line"/>
      <point x="44" y="-230" type="line"/>
    </contour>
    <contour>
      <point x="626" y="666" type="line"/>
      <point x="762" y="249" type="line"/>
      <point x="460" y="249" type="line"/>
      <point x="596" y="666" type="line"/>
    </contour>
    <contour>
      <point x="343" y="0" type="line"/>
      <point x="379" y="0" type="line"/>
      <point x="449" y="215" type="line"/>
      <point x="773" y="215" type="line"/>
      <point x="843" y="0" type="line"/>
      <point x="879" y="0" type="line"/>
      <point x="651" y="700" type="line"/>
      <point x="571" y="700" type="line"/>
    </contour>
  </outline>
</glyph>
<glyph name="B.ss06" format="2">
	<advance width="1222"/>
	<note>
		B
	</note>
	<outline>
		<contour>
			<point x="44" y="904" type="line"/>
			<point x="1178" y="904" type="line"/>
			<point x="1178" y="-230" type="line"/>
			<point x="44" y="-230" type="line"/>
		</contour>
		<contour>
			<point x="628" y="700" type="curve" smooth="yes"/>
			<point x="388" y="700" type="line"/>
			<point x="388" y="0" type="line"/>
			<point x="647" y="0" type="line" smooth="yes"/>
			<point x="773" y="0"/>
			<point x="857" y="48"/>
			<point x="857" y="188" type="curve" smooth="yes"/>
			<point x="857" y="308"/>
			<point x="795" y="344"/>
			<point x="733" y="361" type="curve"/>
			<point x="790" y="382"/>
			<point x="830" y="429"/>
			<point x="830" y="524" type="curve" smooth="yes"/>
			<point x="830" y="646"/>
			<point x="762" y="700"/>
		</contour>
		<contour>
			<point x="424" y="341" type="line"/>
			<point x="639" y="341" type="line" smooth="yes"/>
			<point x="740" y="341"/>
			<point x="820" y="309"/>
			<point x="820" y="188" type="curve" smooth="yes"/>
			<point x="820" y="73"/>
			<point x="749" y="34"/>
			<point x="647" y="34" type="curve" smooth="yes"/>
			<point x="424" y="34" type="line"/>
		</contour>
		<contour>
			<point x="424" y="666" type="line"/>
			<point x="628" y="666" type="line" smooth="yes"/>
			<point x="740" y="666"/>
			<point x="793" y="628"/>
			<point x="793" y="524" type="curve" smooth="yes"/>
			<point x="793" y="429"/>
			<point x="748" y="375"/>
			<point x="639" y="375" type="curve" smooth="yes"/>
			<point x="424" y="375" type="line"/>
		</contour>
	</outline>
</glyph>
<glyph name="C.ss06" format="2">
  <advance width="1222"/>
  <note>
C
</note>
  <outline>
    <contour>
      <point x="44" y="904" type="line"/>
      <point x="1178" y="904" type="line"/>
      <point x="1178" y="-230" type="line"/>
      <point x="44" y="-230" type="line"/>
    </contour>
    <contour>
      <point x="809" y="11" type="curve"/>
      <point x="806" y="45" type="line"/>
      <point x="754" y="34"/>
      <point x="687" y="24"/>
      <point x="631" y="24" type="curve" smooth="yes"/>
      <point x="440" y="24"/>
      <point x="413" y="141"/>
      <point x="413" y="359" type="curve" smooth="yes"/>
      <point x="413" y="540"/>
      <point x="432" y="676"/>
      <point x="624" y="676" type="curve" smooth="yes"/>
      <point x="680" y="676"/>
      <point x="763" y="665"/>
      <point x="806" y="656" type="curve"/>
      <point x="809" y="690" type="line"/>
      <point x="763" y="700"/>
      <point x="687" y="710"/>
      <point x="628" y="710" type="curve" smooth="yes"/>
      <point x="404" y="710"/>
      <point x="375" y="559"/>
      <point x="375" y="359" type="curve" smooth="yes"/>
      <point x="375" y="119"/>
      <point x="417" y="-10"/>
      <point x="631" y="-10" type="curve" smooth="yes"/>
      <point x="691" y="-10"/>
      <point x="759" y="0"/>
    </contour>
  </outline>
</glyph>
<glyph name="D.ss06" format="2">
  <advance width="1222"/>
  <note>
D
</note>
  <outline>
    <contour>
      <point x="44" y="904" type="line"/>
      <point x="1178" y="904" type="line"/>
      <point x="1178" y="-230" type="line"/>
      <point x="44" y="-230" type="line"/>
    </contour>
    <contour>
      <point x="395" y="0" type="line"/>
      <point x="655" y="0" type="line" smooth="yes"/>
      <point x="831" y="0"/>
      <point x="889" y="182"/>
      <point x="889" y="358" type="curve" smooth="yes"/>
      <point x="889" y="534"/>
      <point x="831" y="700"/>
      <point x="655" y="700" type="curve" smooth="yes"/>
      <point x="395" y="700" type="line"/>
    </contour>
    <contour>
      <point x="851" y="358" type="curve" smooth="yes"/>
      <point x="851" y="208"/>
      <point x="805" y="34"/>
      <point x="655" y="34" type="curve" smooth="yes"/>
      <point x="431" y="34" type="line"/>
      <point x="431" y="666" type="line"/>
      <point x="655" y="666" type="line" smooth="yes"/>
      <point x="805" y="666"/>
      <point x="851" y="508"/>
    </contour>
  </outline>
</glyph>
<glyph name="E.ss06" format="2">
	<advance width="1222"/>
	<note>
		E
	</note>
	<outline>
		<contour>
			<point x="44" y="904" type="line"/>
			<point x="1178" y="904" type="line"/>
			<point x="1178" y="-230" type="line"/>
			<point x="44" y="-230" type="line"/>
		</contour>
		<contour>
			<point x="421" y="700" type="line"/>
			<point x="421" y="0" type="line"/>
			<point x="830" y="0" type="line"/>
			<point x="830" y="34" type="line"/>
			<point x="457" y="34" type="line"/>
			<point x="457" y="341" type="line"/>
			<point x="770" y="341" type="line"/>
			<point x="770" y="375" type="line"/>
			<point x="457" y="375" type="line"/>
			<point x="457" y="666" type="line"/>
			<point x="830" y="666" type="line"/>
			<point x="830" y="700" type="line"/>
		</contour>
	</outline>
</glyph>
<glyph name="F.ss06" format="2">
	<advance width="1222"/>
	<note>
		F
	</note>
	<outline>
		<contour>
			<point x="44" y="904" type="line"/>
			<point x="1178" y="904" type="line"/>
			<point x="1178" y="-230" type="line"/>
			<point x="44" y="-230" type="line"/>
		</contour>
		<contour>
			<point x="433" y="700" type="line"/>
			<point x="433" y="0" type="line"/>
			<point x="469" y="0" type="line"/>
			<point x="469" y="316" type="line"/>
			<point x="783" y="316" type="line"/>
			<point x="783" y="350" type="line"/>
			<point x="469" y="350" type="line"/>
			<point x="469" y="666" type="line"/>
			<point x="834" y="666" type="line"/>
			<point x="834" y="700" type="line"/>
		</contour>
	</outline>
</glyph>
<glyph name="G.ss06" format="2">
  <advance width="1222"/>
  <note>
G
</note>
  <outline>
    <contour>
      <point x="44" y="904" type="line"/>
      <point x="1178" y="904" type="line"/>
      <point x="1178" y="-230" type="line"/>
      <point x="44" y="-230" type="line"/>
    </contour>
    <contour>
      <point x="660" y="347" type="line"/>
      <point x="660" y="313" type="line"/>
      <point x="810" y="313" type="line"/>
      <point x="810" y="43" type="line"/>
      <point x="766" y="32"/>
      <point x="680" y="24"/>
      <point x="628" y="24" type="curve" smooth="yes"/>
      <point x="429" y="24"/>
      <point x="402" y="137"/>
      <point x="402" y="347" type="curve" smooth="yes"/>
      <point x="402" y="558"/>
      <point x="428" y="676"/>
      <point x="616" y="676" type="curve" smooth="yes"/>
      <point x="707" y="676"/>
      <point x="843" y="650"/>
      <point x="843" y="650" type="curve"/>
      <point x="846" y="685" type="line"/>
      <point x="846" y="685"/>
      <point x="721" y="710"/>
      <point x="616" y="710" type="curve" smooth="yes"/>
      <point x="403" y="710"/>
      <point x="364" y="577"/>
      <point x="364" y="347" type="curve" smooth="yes"/>
      <point x="364" y="119"/>
      <point x="404" y="-10"/>
      <point x="627" y="-10" type="curve" smooth="yes"/>
      <point x="694" y="-10"/>
      <point x="781" y="2"/>
      <point x="846" y="16" type="curve"/>
      <point x="846" y="347" type="line"/>
    </contour>
  </outline>
</glyph>
<glyph name="H.ss06" format="2">
  <advance width="1222"/>
  <note>
H
</note>
  <outline>
    <contour>
      <point x="44" y="904" type="line"/>
      <point x="1178" y="904" type="line"/>
      <point x="1178" y="-230" type="line"/>
      <point x="44" y="-230" type="line"/>
    </contour>
    <contour>
      <point x="820" y="339" type="line"/>
      <point x="820" y="0" type="line"/>
      <point x="856" y="0" type="line"/>
      <point x="856" y="700" type="line"/>
      <point x="820" y="700" type="line"/>
      <point x="820" y="373" type="line"/>
      <point x="402" y="373" type="line"/>
      <point x="402" y="700" type="line"/>
      <point x="366" y="700" type="line"/>
      <point x="366" y="0" type="line"/>
      <point x="402" y="0" type="line"/>
      <point x="402" y="339" type="line"/>
    </contour>
  </outline>
</glyph>
<glyph name="J.ss06" format="2">
  <advance width="1222"/>
  <note>
J
</note>
  <outline>
    <contour>
      <point x="44" y="904" type="line"/>
      <point x="1178" y="904" type="line"/>
      <point x="1178" y="-230" type="line"/>
      <point x="44" y="-230" type="line"/>
    </contour>
    <contour>
      <point x="661" y="114" type="curve" smooth="yes"/>
      <point x="661" y="700" type="line"/>
      <point x="625" y="700" type="line"/>
      <point x="625" y="124" type="line" smooth="yes"/>
      <point x="625" y="51"/>
      <point x="615" y="27"/>
      <point x="488" y="27" type="curve"/>
      <point x="488" y="-7" type="line"/>
      <point x="630" y="-7"/>
      <point x="661" y="16"/>
    </contour>
  </outline>
</glyph>
<glyph name="K.ss06" format="2">
  <advance width="1222"/>
  <note>
K
</note>
  <outline>
    <contour>
      <point x="44" y="904" type="line"/>
      <point x="1178" y="904" type="line"/>
      <point x="1178" y="-230" type="line"/>
      <point x="44" y="-230" type="line"/>
    </contour>
    <contour>
      <point x="592" y="329" type="line"/>
      <point x="822" y="0" type="line"/>
      <point x="866" y="0" type="line"/>
      <point x="621" y="348" type="line"/>
      <point x="852" y="700" type="line"/>
      <point x="811" y="700" type="line"/>
      <point x="591" y="363" type="line"/>
      <point x="460" y="363" type="line"/>
      <point x="460" y="700" type="line"/>
      <point x="424" y="700" type="line"/>
      <point x="424" y="0" type="line"/>
      <point x="460" y="0" type="line"/>
      <point x="460" y="329" type="line"/>
    </contour>
  </outline>
</glyph>
<glyph name="L.ss06" format="2">
  <advance width="1222"/>
  <note>
L
</note>
  <outline>
    <contour>
      <point x="44" y="904" type="line"/>
      <point x="1178" y="904" type="line"/>
      <point x="1178" y="-230" type="line"/>
      <point x="44" y="-230" type="line"/>
    </contour>
    <contour>
      <point x="443" y="0" type="line"/>
      <point x="820" y="0" type="line"/>
      <point x="820" y="34" type="line"/>
      <point x="479" y="34" type="line"/>
      <point x="479" y="700" type="line"/>
      <point x="443" y="700" type="line"/>
    </contour>
  </outline>
</glyph>
<glyph name="Lslashcomb" format="2">
  <advance width="346"/>
  <anchor x="122" y="368" name="_center"/>
  <outline>
    <contour>
      <point x="122" y="340" type="line"/>
      <point x="122" y="374" type="line"/>
      <point x="0" y="332" type="line"/>
      <point x="0" y="297" type="line"/>
    </contour>
    <contour>
      <point x="132" y="376" type="line"/>
      <point x="132" y="340" type="line"/>
      <point x="346" y="415" type="line"/>
      <point x="346" y="450" type="line"/>
    </contour>
  </outline>
</glyph>
<glyph name="M.ss03" format="2">
	<advance width="1256"/>
	<note>
		M
	</note>
	<outline>
		<contour>
			<point x="316" y="700" type="line"/>
			<point x="316" y="0" type="line"/>
			<point x="352" y="0" type="line"/>
			<point x="352" y="666" type="line"/>
			<point x="382" y="666" type="line"/>
			<point x="605" y="0" type="line"/>
			<point x="653" y="0" type="line"/>
			<point x="875" y="666" type="line"/>
			<point x="905" y="666" type="line"/>
			<point x="905" y="0" type="line"/>
			<point x="941" y="0" type="line"/>
			<point x="941" y="700" type="line"/>
			<point x="850" y="700" type="line"/>
			<point x="628" y="34" type="line"/>
			<point x="630" y="34" type="line"/>
			<point x="407" y="700" type="line"/>
		</contour>
		<component base="_sferiliumstroke" xOffset="-2"/>
	</outline>
</glyph>
<glyph name="M.ss06" format="2">
	<advance width="1222"/>
	<note>
		M
	</note>
	<outline>
		<contour>
			<point x="44" y="904" type="line"/>
			<point x="1178" y="904" type="line"/>
			<point x="1178" y="-230" type="line"/>
			<point x="44" y="-230" type="line"/>
		</contour>
		<contour>
			<point x="288" y="700" type="line"/>
			<point x="288" y="0" type="line"/>
			<point x="324" y="0" type="line"/>
			<point x="324" y="666" type="line"/>
			<point x="354" y="666" type="line"/>
			<point x="587" y="0" type="line"/>
			<point x="635" y="0" type="line"/>
			<point x="867" y="666" type="line"/>
			<point x="897" y="666" type="line"/>
			<point x="897" y="0" type="line"/>
			<point x="933" y="0" type="line"/>
			<point x="933" y="700" type="line"/>
			<point x="842" y="700" type="line"/>
			<point x="611" y="37" type="line"/>
			<point x="379" y="700" type="line"/>
		</contour>
	</outline>
</glyph>
<glyph name="N.ss06" format="2">
	<advance width="1222"/>
	<note>
		N
	</note>
	<outline>
		<contour>
			<point x="44" y="904" type="line"/>
			<point x="1178" y="904" type="line"/>
			<point x="1178" y="-230" type="line"/>
			<point x="44" y="-230" type="line"/>
		</contour>
		<contour>
			<point x="370" y="700" type="line"/>
			<point x="370" y="0" type="line"/>
			<point x="406" y="0" type="line"/>
			<point x="406" y="666" type="line"/>
			<point x="436" y="666" type="line"/>
			<point x="763" y="0" type="line"/>
			<point x="851" y="0" type="line"/>
			<point x="851" y="700" type="line"/>
			<point x="815" y="700" type="line"/>
			<point x="815" y="34" type="line"/>
			<point x="785" y="34" type="line"/>
			<point x="458" y="700" type="line"/>
		</contour>
	</outline>
</glyph>
<glyph name="O.ss06" format="2">
	<advance width="1222"/>
	<note>
		O
	</note>
	<outline>
		<contour>
			<point x="44" y="904" type="line"/>
			<point x="1178" y="904" type="line"/>
			<point x="1178" y="-230" type="line"/>
			<point x="44" y="-230" type="line"/>
		</contour>
		<contour>
			<point x="611" y="24" type="curve" smooth="yes"/>
			<point x="421" y="24"/>
			<point x="382" y="139"/>
			<point x="382" y="347" type="curve" smooth="yes"/>
			<point x="382" y="557"/>
			<point x="421" y="675"/>
			<point x="611" y="675" type="curve" smooth="yes"/>
			<point x="802" y="675"/>
			<point x="840" y="557"/>
			<point x="840" y="347" type="curve" smooth="yes"/>
			<point x="840" y="139"/>
			<point x="802" y="24"/>
		</contour>
		<contour>
			<point x="611" y="-10" type="curve" smooth="yes"/>
			<point x="825" y="-10"/>
			<point x="878" y="117"/>
			<point x="878" y="347" type="curve" smooth="yes"/>
			<point x="878" y="577"/>
			<point x="825" y="709"/>
			<point x="611" y="709" type="curve" smooth="yes"/>
			<point x="397" y="709"/>
			<point x="344" y="577"/>
			<point x="344" y="347" type="curve" smooth="yes"/>
			<point x="344" y="117"/>
			<point x="397" y="-10"/>
		</contour>
	</outline>
</glyph>
<glyph name="P.ss06" format="2">
	<advance width="1222"/>
	<note>
		P
	</note>
	<outline>
		<contour>
			<point x="44" y="904" type="line"/>
			<point x="1178" y="904" type="line"/>
			<point x="1178" y="-230" type="line"/>
			<point x="44" y="-230" type="line"/>
		</contour>
		<contour>
			<point x="440" y="257" type="line"/>
			<point x="659" y="257" type="line" smooth="yes"/>
			<point x="804" y="257"/>
			<point x="866" y="340"/>
			<point x="866" y="485" type="curve" smooth="yes"/>
			<point x="866" y="630"/>
			<point x="804" y="700"/>
			<point x="659" y="700" type="curve" smooth="yes"/>
			<point x="404" y="700" type="line"/>
			<point x="404" y="0" type="line"/>
			<point x="440" y="0" type="line"/>
		</contour>
		<contour>
			<point x="659" y="291" type="curve" smooth="yes"/>
			<point x="440" y="291" type="line"/>
			<point x="440" y="666" type="line"/>
			<point x="659" y="666" type="line" smooth="yes"/>
			<point x="780" y="666"/>
			<point x="828" y="606"/>
			<point x="828" y="485" type="curve" smooth="yes"/>
			<point x="828" y="364"/>
			<point x="780" y="291"/>
		</contour>
	</outline>
</glyph>
<glyph name="Q.ss03" format="2">
  <advance width="1256"/>
  <note>
Q
</note>
  <outline>
    <contour>
      <point x="630" y="25" type="curve" smooth="yes"/>
      <point x="440" y="25"/>
      <point x="401" y="139"/>
      <point x="401" y="347" type="curve" smooth="yes"/>
      <point x="401" y="557"/>
      <point x="440" y="675"/>
      <point x="630" y="675" type="curve" smooth="yes"/>
      <point x="821" y="675"/>
      <point x="859" y="557"/>
      <point x="859" y="347" type="curve" smooth="yes"/>
      <point x="859" y="139"/>
      <point x="821" y="25"/>
    </contour>
    <contour>
      <point x="363" y="347" type="curve" smooth="yes"/>
      <point x="363" y="117"/>
      <point x="416" y="-9"/>
      <point x="630" y="-9" type="curve" smooth="yes"/>
      <point x="674" y="-9"/>
      <point x="711" y="-4"/>
      <point x="742" y="7" type="curve"/>
      <point x="819" y="-130" type="line"/>
      <point x="850" y="-113" type="line"/>
      <point x="775" y="21" type="line"/>
      <point x="870" y="70"/>
      <point x="897" y="182"/>
      <point x="897" y="347" type="curve" smooth="yes"/>
      <point x="897" y="577"/>
      <point x="844" y="709"/>
      <point x="630" y="709" type="curve" smooth="yes"/>
      <point x="416" y="709"/>
      <point x="363" y="577"/>
    </contour>
    <component base="_sferiliumstroke" xOffset="-2"/>
  </outline>
</glyph>
<glyph name="Q.ss05" format="2">
	<advance width="1222"/>
	<note>
		Q
	</note>
	<outline>
		<contour>
			<point x="611" y="25" type="curve" smooth="yes"/>
			<point x="421" y="25"/>
			<point x="382" y="139"/>
			<point x="382" y="347" type="curve" smooth="yes"/>
			<point x="382" y="557"/>
			<point x="421" y="675"/>
			<point x="611" y="675" type="curve" smooth="yes"/>
			<point x="802" y="675"/>
			<point x="840" y="557"/>
			<point x="840" y="347" type="curve" smooth="yes"/>
			<point x="840" y="139"/>
			<point x="802" y="25"/>
		</contour>
		<contour>
			<point x="344" y="347" type="curve" smooth="yes"/>
			<point x="344" y="117"/>
			<point x="397" y="-9"/>
			<point x="611" y="-9" type="curve" smooth="yes"/>
			<point x="655" y="-9"/>
			<point x="692" y="-4"/>
			<point x="723" y="7" type="curve"/>
			<point x="793" y="-120" type="line"/>
			<point x="824" y="-103" type="line"/>
			<point x="756" y="21" type="line"/>
			<point x="851" y="70"/>
			<point x="878" y="182"/>
			<point x="878" y="347" type="curve" smooth="yes"/>
			<point x="878" y="577"/>
			<point x="825" y="709"/>
			<point x="611" y="709" type="curve" smooth="yes"/>
			<point x="397" y="709"/>
			<point x="344" y="577"/>
		</contour>
		<component base="_quadriliumstroke" xOffset="4"/>
	</outline>
</glyph>
<glyph name="Q.ss06" format="2">
  <advance width="1222"/>
  <note>
Q
</note>
  <outline>
    <contour>
      <point x="44" y="904" type="line"/>
      <point x="1178" y="904" type="line"/>
      <point x="1178" y="-230" type="line"/>
      <point x="44" y="-230" type="line"/>
    </contour>
    <contour>
      <point x="611" y="25" type="curve" smooth="yes"/>
      <point x="421" y="25"/>
      <point x="382" y="139"/>
      <point x="382" y="347" type="curve" smooth="yes"/>
      <point x="382" y="557"/>
      <point x="421" y="675"/>
      <point x="611" y="675" type="curve" smooth="yes"/>
      <point x="802" y="675"/>
      <point x="840" y="557"/>
      <point x="840" y="347" type="curve" smooth="yes"/>
      <point x="840" y="139"/>
      <point x="802" y="25"/>
    </contour>
    <contour>
      <point x="344" y="347" type="curve" smooth="yes"/>
      <point x="344" y="117"/>
      <point x="397" y="-9"/>
      <point x="611" y="-9" type="curve" smooth="yes"/>
      <point x="655" y="-9"/>
      <point x="692" y="-4"/>
      <point x="723" y="6" type="curve"/>
      <point x="800" y="-130" type="line"/>
      <point x="831" y="-113" type="line"/>
      <point x="756" y="20" type="line"/>
      <point x="851" y="70"/>
      <point x="878" y="182"/>
      <point x="878" y="347" type="curve" smooth="yes"/>
      <point x="878" y="577"/>
      <point x="825" y="709"/>
      <point x="611" y="709" type="curve" smooth="yes"/>
      <point x="397" y="709"/>
      <point x="344" y="577"/>
    </contour>
  </outline>
</glyph>
<glyph name="R.ss06" format="2">
  <advance width="1222"/>
  <note>
R
</note>
  <outline>
    <contour>
      <point x="44" y="904" type="line"/>
      <point x="1178" y="904" type="line"/>
      <point x="1178" y="-230" type="line"/>
      <point x="44" y="-230" type="line"/>
    </contour>
    <contour>
      <point x="816" y="500" type="curve" smooth="yes"/>
      <point x="816" y="396"/>
      <point x="773" y="324"/>
      <point x="646" y="324" type="curve" smooth="yes"/>
      <point x="431" y="324" type="line"/>
      <point x="431" y="666" type="line"/>
      <point x="646" y="666" type="line" smooth="yes"/>
      <point x="763" y="666"/>
      <point x="816" y="616"/>
    </contour>
    <contour>
      <point x="431" y="290" type="line"/>
      <point x="673" y="290" type="line"/>
      <point x="827" y="0" type="line"/>
      <point x="867" y="0" type="line"/>
      <point x="709" y="295" type="line"/>
      <point x="813" y="315"/>
      <point x="854" y="392"/>
      <point x="854" y="500" type="curve" smooth="yes"/>
      <point x="854" y="640"/>
      <point x="785" y="700"/>
      <point x="646" y="700" type="curve" smooth="yes"/>
      <point x="395" y="700" type="line"/>
      <point x="395" y="0" type="line"/>
      <point x="431" y="0" type="line"/>
    </contour>
  </outline>
</glyph>
<glyph name="S.ss06" format="2">
	<advance width="1222"/>
	<note>
		S
	</note>
	<outline>
		<contour>
			<point x="44" y="904" type="line"/>
			<point x="1178" y="904" type="line"/>
			<point x="1178" y="-230" type="line"/>
			<point x="44" y="-230" type="line"/>
		</contour>
		<contour>
			<point x="804" y="659" type="curve"/>
			<point x="808" y="694" type="line"/>
			<point x="808" y="694"/>
			<point x="690" y="710"/>
			<point x="611" y="710" type="curve" smooth="yes"/>
			<point x="481" y="710"/>
			<point x="396" y="668"/>
			<point x="396" y="530" type="curve" smooth="yes"/>
			<point x="396" y="416"/>
			<point x="452" y="375"/>
			<point x="550" y="355" type="curve" smooth="yes"/>
			<point x="671" y="330" type="line" smooth="yes"/>
			<point x="763" y="311"/>
			<point x="789" y="271"/>
			<point x="789" y="195" type="curve" smooth="yes"/>
			<point x="789" y="73"/>
			<point x="727" y="24"/>
			<point x="613" y="24" type="curve" smooth="yes"/>
			<point x="542" y="24"/>
			<point x="401" y="44"/>
			<point x="401" y="44" type="curve"/>
			<point x="397" y="9" type="line"/>
			<point x="397" y="9"/>
			<point x="538" y="-10"/>
			<point x="613" y="-10" type="curve" smooth="yes"/>
			<point x="751" y="-10"/>
			<point x="827" y="50"/>
			<point x="827" y="195" type="curve" smooth="yes"/>
			<point x="827" y="301"/>
			<point x="788" y="346"/>
			<point x="677" y="368" type="curve" smooth="yes"/>
			<point x="561" y="391" type="line" smooth="yes"/>
			<point x="476" y="408"/>
			<point x="434" y="439"/>
			<point x="434" y="532" type="curve" smooth="yes"/>
			<point x="434" y="640"/>
			<point x="489" y="676"/>
			<point x="602" y="676" type="curve" smooth="yes"/>
			<point x="680" y="676"/>
			<point x="804" y="659"/>
		</contour>
	</outline>
</glyph>
<glyph name="T.ss06" format="2">
  <advance width="1222"/>
  <note>
T
</note>
  <outline>
    <contour>
      <point x="44" y="904" type="line"/>
      <point x="1178" y="904" type="line"/>
      <point x="1178" y="-230" type="line"/>
      <point x="44" y="-230" type="line"/>
    </contour>
    <contour>
      <point x="363" y="700" type="line"/>
      <point x="363" y="666" type="line"/>
      <point x="593" y="666" type="line"/>
      <point x="593" y="0" type="line"/>
      <point x="629" y="0" type="line"/>
      <point x="629" y="666" type="line"/>
      <point x="859" y="666" type="line"/>
      <point x="859" y="700" type="line"/>
    </contour>
  </outline>
</glyph>
<glyph name="U.ss06" format="2">
	<advance width="1222"/>
	<note>
		U
	</note>
	<outline>
		<contour>
			<point x="44" y="904" type="line"/>
			<point x="1178" y="904" type="line"/>
			<point x="1178" y="-230" type="line"/>
			<point x="44" y="-230" type="line"/>
		</contour>
		<contour>
			<point x="416" y="196" type="curve" smooth="yes"/>
			<point x="416" y="700" type="line"/>
			<point x="380" y="700" type="line"/>
			<point x="380" y="196" type="line" smooth="yes"/>
			<point x="380" y="45"/>
			<point x="465" y="-10"/>
			<point x="610" y="-10" type="curve" smooth="yes"/>
			<point x="755" y="-10"/>
			<point x="842" y="46"/>
			<point x="842" y="196" type="curve" smooth="yes"/>
			<point x="842" y="700" type="line"/>
			<point x="806" y="700" type="line"/>
			<point x="806" y="196" type="line" smooth="yes"/>
			<point x="806" y="69"/>
			<point x="731" y="24"/>
			<point x="610" y="24" type="curve" smooth="yes"/>
			<point x="488" y="24"/>
			<point x="416" y="70"/>
		</contour>
	</outline>
</glyph>
<glyph name="V.ss06" format="2">
	<advance width="1222"/>
	<note>
		V
	</note>
	<outline>
		<contour>
			<point x="44" y="904" type="line"/>
			<point x="1178" y="904" type="line"/>
			<point x="1178" y="-230" type="line"/>
			<point x="44" y="-230" type="line"/>
		</contour>
		<contour>
			<point x="865" y="700" type="line"/>
			<point x="829" y="700" type="line"/>
			<point x="625" y="34" type="line"/>
			<point x="595" y="34" type="line"/>
			<point x="392" y="700" type="line"/>
			<point x="356" y="700" type="line"/>
			<point x="570" y="0" type="line"/>
			<point x="650" y="0" type="line"/>
		</contour>
	</outline>
</glyph>
<glyph name="W.ss03" format="2">
	<advance width="1256"/>
	<note>
		W
	</note>
	<outline>
		<contour>
			<point x="304" y="700" type="line"/>
			<point x="269" y="700" type="line"/>
			<point x="397" y="0" type="line"/>
			<point x="480" y="0" type="line"/>
			<point x="629" y="641" type="line"/>
			<point x="778" y="0" type="line"/>
			<point x="861" y="0" type="line"/>
			<point x="988" y="700" type="line"/>
			<point x="953" y="700" type="line"/>
			<point x="833" y="34" type="line"/>
			<point x="803" y="34" type="line"/>
			<point x="650" y="690" type="line"/>
			<point x="608" y="690" type="line"/>
			<point x="455" y="34" type="line"/>
			<point x="425" y="34" type="line"/>
		</contour>
		<component base="_sferiliumstroke" xOffset="-2"/>
	</outline>
</glyph>
<glyph name="W.ss05" format="2">
	<advance width="1222"/>
	<note>
		W
	</note>
	<outline>
		<contour>
			<point x="286" y="700" type="line"/>
			<point x="251" y="700" type="line"/>
			<point x="379" y="0" type="line"/>
			<point x="462" y="0" type="line"/>
			<point x="611" y="641" type="line"/>
			<point x="760" y="0" type="line"/>
			<point x="843" y="0" type="line"/>
			<point x="970" y="700" type="line"/>
			<point x="935" y="700" type="line"/>
			<point x="815" y="34" type="line"/>
			<point x="785" y="34" type="line"/>
			<point x="632" y="690" type="line"/>
			<point x="590" y="690" type="line"/>
			<point x="437" y="34" type="line"/>
			<point x="407" y="34" type="line"/>
		</contour>
		<component base="_quadriliumstroke" xOffset="4"/>
	</outline>
</glyph>
<glyph name="W.ss06" format="2">
  <advance width="1222"/>
  <note>
W
</note>
  <outline>
    <contour>
      <point x="44" y="904" type="line"/>
      <point x="1178" y="904" type="line"/>
      <point x="1178" y="-230" type="line"/>
      <point x="44" y="-230" type="line"/>
    </contour>
    <contour>
      <point x="256" y="700" type="line"/>
      <point x="221" y="700" type="line"/>
      <point x="369" y="0" type="line"/>
      <point x="452" y="0" type="line"/>
      <point x="611" y="641" type="line"/>
      <point x="770" y="0" type="line"/>
      <point x="853" y="0" type="line"/>
      <point x="1000" y="700" type="line"/>
      <point x="965" y="700" type="line"/>
      <point x="825" y="34" type="line"/>
      <point x="795" y="34" type="line"/>
      <point x="632" y="690" type="line"/>
      <point x="590" y="690" type="line"/>
      <point x="427" y="34" type="line"/>
      <point x="397" y="34" type="line"/>
    </contour>
  </outline>
</glyph>
<glyph name="X.ss06" format="2">
	<advance width="1222"/>
	<note>
		X
	</note>
	<outline>
		<contour>
			<point x="44" y="904" type="line"/>
			<point x="1178" y="904" type="line"/>
			<point x="1178" y="-230" type="line"/>
			<point x="44" y="-230" type="line"/>
		</contour>
		<contour>
			<point x="355" y="0" type="line"/>
			<point x="396" y="0" type="line"/>
			<point x="610" y="323" type="line"/>
			<point x="826" y="0" type="line"/>
			<point x="867" y="0" type="line"/>
			<point x="634" y="350" type="line"/>
			<point x="862" y="700" type="line"/>
			<point x="821" y="700" type="line"/>
			<point x="612" y="379" type="line"/>
			<point x="403" y="700" type="line"/>
			<point x="362" y="700" type="line"/>
			<point x="589" y="353" type="line"/>
		</contour>
	</outline>
</glyph>
<glyph name="Y.ss06" format="2">
	<advance width="1222"/>
	<note>
		Y
	</note>
	<outline>
		<contour>
			<point x="44" y="904" type="line"/>
			<point x="1178" y="904" type="line"/>
			<point x="1178" y="-230" type="line"/>
			<point x="44" y="-230" type="line"/>
		</contour>
		<contour>
			<point x="593" y="0" type="line"/>
			<point x="629" y="0" type="line"/>
			<point x="629" y="301" type="line"/>
			<point x="857" y="700" type="line"/>
			<point x="817" y="700" type="line"/>
			<point x="611" y="337" type="line"/>
			<point x="405" y="700" type="line"/>
			<point x="365" y="700" type="line"/>
			<point x="593" y="301" type="line"/>
		</contour>
	</outline>
</glyph>
<glyph name="Z.ss06" format="2">
	<advance width="1222"/>
	<note>
		Z
	</note>
	<outline>
		<contour>
			<point x="44" y="904" type="line"/>
			<point x="1178" y="904" type="line"/>
			<point x="1178" y="-230" type="line"/>
			<point x="44" y="-230" type="line"/>
		</contour>
		<contour>
			<point x="408" y="700" type="line"/>
			<point x="408" y="666" type="line"/>
			<point x="816" y="666" type="line"/>
			<point x="816" y="641" type="line"/>
			<point x="406" y="67" type="line"/>
			<point x="406" y="-1" type="line"/>
			<point x="853" y="-1" type="line"/>
			<point x="853" y="33" type="line"/>
			<point x="443" y="33" type="line"/>
			<point x="443" y="58" type="line"/>
			<point x="853" y="632" type="line"/>
			<point x="853" y="700" type="line"/>
		</contour>
	</outline>
</glyph>
<glyph name="_sferilium" format="2">
	<advance width="1260"/>
	<outline>
		<contour>
			<point x="630" y="-271" type="curve"/>
			<point x="275" y="-271"/>
			<point x="26" y="-28"/>
			<point x="26" y="333" type="curve" smooth="yes"/>
			<point x="26" y="695"/>
			<point x="275" y="938"/>
			<point x="630" y="938" type="curve" smooth="yes"/>
			<point x="985" y="938"/>
			<point x="1234" y="695"/>
			<point x="1234" y="333" type="curve" smooth="yes"/>
			<point x="1234" y="-28"/>
			<point x="985" y="-271"/>
		</contour>
	</outline>
</glyph>
